Hoogli-Bold_006.ufo
<glyph name="exclam" format="1">
  <advance width="323"/>
  <unicode hex="0021"/>
  <outline>
    <contour>
      <point x="159" y="225" type="curve" smooth="yes"/>
      <point x="183" y="224"/>
      <point x="208" y="243"/>
      <point x="209" y="265" type="curve" smooth="yes"/>
      <point x="216" y="540" type="line" smooth="yes"/>
      <point x="217" y="563"/>
      <point x="192" y="582"/>
      <point x="168" y="583" type="curve" smooth="yes"/>
      <point x="144" y="584"/>
      <point x="119" y="565"/>
      <point x="118" y="542" type="curve" smooth="yes"/>
      <point x="111" y="267" type="line" smooth="yes"/>
      <point x="110" y="245"/>
      <point x="135" y="226"/>
    </contour>
    <contour>
      <point x="161" y="-19" type="curve" smooth="yes"/>
      <point x="198" y="-19"/>
      <point x="231" y="-5"/>
      <point x="231" y="51" type="curve" smooth="yes"/>
      <point x="231" y="97"/>
      <point x="196" y="122"/>
      <point x="160" y="122" type="curve" smooth="yes"/>
      <point x="121" y="122"/>
      <point x="90" y="98"/>
      <point x="90" y="51" type="curve"/>
      <point x="90" y="-3"/>
      <point x="131" y="-19"/>
    </contour>
  </outline>
</glyph>
<glyph name="parenleft" format="1">
  <advance width="332"/>
  <unicode hex="0028"/>
  <outline>
    <contour>
      <point x="266" y="-99" type="curve" smooth="yes"/>
      <point x="283" y="-84"/>
      <point x="284" y="-57"/>
      <point x="267" y="-40" type="curve" smooth="yes"/>
      <point x="192" y="34"/>
      <point x="141" y="143"/>
      <point x="141" y="261" type="curve" smooth="yes"/>
      <point x="141" y="381"/>
      <point x="196" y="498"/>
      <point x="268" y="573" type="curve" smooth="yes"/>
      <point x="284" y="589"/>
      <point x="282" y="617"/>
      <point x="265" y="632" type="curve" smooth="yes"/>
      <point x="247" y="648"/>
      <point x="218" y="647"/>
      <point x="202" y="630" type="curve" smooth="yes"/>
      <point x="116" y="541"/>
      <point x="43" y="406"/>
      <point x="43" y="261" type="curve"/>
      <point x="43" y="119"/>
      <point x="112" y="-11"/>
      <point x="203" y="-98" type="curve" smooth="yes"/>
      <point x="219" y="-115"/>
      <point x="248" y="-115"/>
    </contour>
  </outline>
</glyph>
<glyph name="zero" format="1">
  <advance width="574"/>
  <unicode hex="0030"/>
  <outline>
    <contour>
      <point x="288" y="-22" type="curve" smooth="yes"/>
      <point x="443" y="-22"/>
      <point x="544" y="101"/>
      <point x="544" y="269" type="curve" smooth="yes"/>
      <point x="544" y="446"/>
      <point x="422" y="557"/>
      <point x="288" y="557" type="curve" smooth="yes"/>
      <point x="143" y="557"/>
      <point x="29" y="446"/>
      <point x="29" y="267" type="curve"/>
      <point x="29" y="102"/>
      <point x="146" y="-22"/>
    </contour>
    <contour>
      <point x="288" y="62" type="curve" smooth="yes"/>
      <point x="186" y="62"/>
      <point x="127" y="164"/>
      <point x="127" y="267" type="curve" smooth="yes"/>
      <point x="127" y="379"/>
      <point x="185" y="474"/>
      <point x="288" y="474" type="curve" smooth="yes"/>
      <point x="384" y="474"/>
      <point x="446" y="379"/>
      <point x="446" y="269" type="curve" smooth="yes"/>
      <point x="446" y="165"/>
      <point x="399" y="62"/>
    </contour>
  </outline>
</glyph>
<glyph name="eight" format="1">
  <advance width="566"/>
  <unicode hex="0038"/>
  <outline>
    <contour>
      <point x="284" y="-21" type="curve" smooth="yes"/>
      <point x="466" y="-21"/>
      <point x="525" y="63"/>
      <point x="525" y="154" type="curve" smooth="yes"/>
      <point x="525" y="254"/>
      <point x="437" y="328"/>
      <point x="284" y="328" type="curve" smooth="yes"/>
      <point x="122" y="328"/>
      <point x="41" y="254"/>
      <point x="41" y="153" type="curve"/>
      <point x="41" y="64"/>
      <point x="113" y="-21"/>
    </contour>
    <contour>
      <point x="284" y="63" type="curve" smooth="yes"/>
      <point x="195" y="63"/>
      <point x="139" y="99"/>
      <point x="139" y="153" type="curve" smooth="yes"/>
      <point x="139" y="213"/>
      <point x="198" y="246"/>
      <point x="284" y="246" type="curve" smooth="yes"/>
      <point x="365" y="246"/>
      <point x="427" y="213"/>
      <point x="427" y="154" type="curve" smooth="yes"/>
      <point x="427" y="99"/>
      <point x="380" y="63"/>
    </contour>
    <contour>
      <point x="284" y="246" type="curve" smooth="yes"/>
      <point x="433" y="246"/>
      <point x="498" y="320"/>
      <point x="498" y="403" type="curve" smooth="yes"/>
      <point x="498" y="490"/>
      <point x="422" y="556"/>
      <point x="284" y="556" type="curve" smooth="yes"/>
      <point x="139" y="556"/>
      <point x="68" y="490"/>
      <point x="68" y="403" type="curve"/>
      <point x="68" y="320"/>
      <point x="128" y="246"/>
    </contour>
    <contour>
      <point x="284" y="328" type="curve" smooth="yes"/>
      <point x="210" y="328"/>
      <point x="166" y="358"/>
      <point x="166" y="403" type="curve" smooth="yes"/>
      <point x="166" y="451"/>
      <point x="217" y="473"/>
      <point x="284" y="473" type="curve" smooth="yes"/>
      <point x="348" y="473"/>
      <point x="400" y="451"/>
      <point x="400" y="403" type="curve" smooth="yes"/>
      <point x="400" y="358"/>
      <point x="355" y="328"/>
    </contour>
  </outline>
</glyph>
<glyph name="colon" format="1">
  <advance width="244"/>
  <unicode hex="003A"/>
  <outline>
    <contour>
      <point x="122" y="-14" type="curve" smooth="yes"/>
      <point x="159" y="-14"/>
      <point x="192" y="0"/>
      <point x="192" y="56" type="curve" smooth="yes"/>
      <point x="192" y="100"/>
      <point x="157" y="127"/>
      <point x="121" y="127" type="curve" smooth="yes"/>
      <point x="85" y="127"/>
      <point x="51" y="102"/>
      <point x="51" y="56" type="curve"/>
      <point x="51" y="2"/>
      <point x="92" y="-14"/>
    </contour>
    <contour>
      <point x="122" y="253" type="curve" smooth="yes"/>
      <point x="158" y="253"/>
      <point x="192" y="266"/>
      <point x="192" y="323" type="curve" smooth="yes"/>
      <point x="192" y="365"/>
      <point x="158" y="392"/>
      <point x="121" y="392" type="curve" smooth="yes"/>
      <point x="84" y="392"/>
      <point x="51" y="367"/>
      <point x="51" y="323" type="curve"/>
      <point x="51" y="268"/>
      <point x="93" y="253"/>
    </contour>
  </outline>
</glyph>
<glyph name="B" format="1">
  <advance width="534"/>
  <unicode hex="0042"/>
  <outline>
    <contour>
      <point x="282" y="-13" type="line" smooth="yes"/>
      <point x="368" y="-13"/>
      <point x="419" y="10"/>
      <point x="454" y="41" type="curve" smooth="yes"/>
      <point x="486" y="72"/>
      <point x="506" y="113"/>
      <point x="506" y="154" type="curve" smooth="yes"/>
      <point x="506" y="198"/>
      <point x="486" y="235"/>
      <point x="450" y="270" type="curve" smooth="yes"/>
      <point x="414" y="304"/>
      <point x="353" y="326"/>
      <point x="285" y="326" type="curve" smooth="yes"/>
      <point x="129" y="326" type="line" smooth="yes"/>
      <point x="105" y="326"/>
      <point x="85" y="308"/>
      <point x="85" y="285" type="curve" smooth="yes"/>
      <point x="85" y="262"/>
      <point x="105" y="244"/>
      <point x="129" y="244" type="curve" smooth="yes"/>
      <point x="285" y="244" type="line" smooth="yes"/>
      <point x="327" y="244"/>
      <point x="364" y="230"/>
      <point x="386" y="210" type="curve" smooth="yes"/>
      <point x="404" y="194"/>
      <point x="408" y="174"/>
      <point x="408" y="154" type="curve" smooth="yes"/>
      <point x="408" y="135"/>
      <point x="406" y="116"/>
      <point x="390" y="101" type="curve" smooth="yes"/>
      <point x="369" y="82"/>
      <point x="336" y="69"/>
      <point x="282" y="69" type="curve" smooth="yes"/>
      <point x="119" y="69" type="line"/>
      <point x="168" y="29" type="line"/>
      <point x="168" y="507" type="line"/>
      <point x="119" y="466" type="line"/>
      <point x="265" y="466" type="line" smooth="yes"/>
      <point x="302" y="466"/>
      <point x="328" y="455"/>
      <point x="343" y="441" type="curve" smooth="yes"/>
      <point x="354" y="430"/>
      <point x="358" y="412"/>
      <point x="358" y="398" type="curve" smooth="yes"/>
      <point x="358" y="382"/>
      <point x="355" y="364"/>
      <point x="343" y="354" type="curve" smooth="yes"/>
      <point x="330" y="341"/>
      <point x="304" y="328"/>
      <point x="274" y="326" type="curve" smooth="yes"/>
      <point x="250" y="325"/>
      <point x="231" y="305"/>
      <point x="233" y="283" type="curve" smooth="yes"/>
      <point x="235" y="260"/>
      <point x="256" y="242"/>
      <point x="280" y="244" type="curve" smooth="yes"/>
      <point x="336" y="248"/>
      <point x="382" y="271"/>
      <point x="407" y="293" type="curve" smooth="yes"/>
      <point x="433" y="319"/>
      <point x="456" y="356"/>
      <point x="456" y="398" type="curve" smooth="yes"/>
      <point x="456" y="435"/>
      <point x="434" y="475"/>
      <point x="407" y="501" type="curve" smooth="yes"/>
      <point x="378" y="527"/>
      <point x="334" y="549"/>
      <point x="265" y="549" type="curve" smooth="yes"/>
      <point x="119" y="549" type="line" smooth="yes"/>
      <point x="92" y="549"/>
      <point x="70" y="530"/>
      <point x="70" y="507" type="curve" smooth="yes"/>
      <point x="70" y="29" type="line" smooth="yes"/>
      <point x="70" y="5"/>
      <point x="92" y="-13"/>
      <point x="119" y="-13" type="curve" smooth="yes"/>
    </contour>
  </outline>
</glyph>
<glyph name="D" format="1">
  <advance width="623"/>
  <unicode hex="0044"/>
  <outline>
    <contour>
      <point x="304" y="-13" type="line" smooth="yes"/>
      <point x="474" y="-13"/>
      <point x="591" y="107"/>
      <point x="591" y="268" type="curve" smooth="yes"/>
      <point x="591" y="438"/>
      <point x="452" y="549"/>
      <point x="304" y="549" type="curve" smooth="yes"/>
      <point x="119" y="549" type="line" smooth="yes"/>
      <point x="92" y="549"/>
      <point x="70" y="530"/>
      <point x="70" y="507" type="curve"/>
      <point x="70" y="29" type="line"/>
      <point x="70" y="5"/>
      <point x="92" y="-13"/>
      <point x="119" y="-13" type="curve" smooth="yes"/>
    </contour>
    <contour>
      <point x="168" y="507" type="line"/>
      <point x="119" y="466" type="line"/>
      <point x="304" y="466" type="line" smooth="yes"/>
      <point x="408" y="466"/>
      <point x="493" y="379"/>
      <point x="493" y="268" type="curve" smooth="yes"/>
      <point x="493" y="162"/>
      <point x="424" y="69"/>
      <point x="304" y="69" type="curve" smooth="yes"/>
      <point x="119" y="69" type="line"/>
      <point x="168" y="29" type="line"/>
    </contour>
    <contour>
      <point x="289" y="550" type="move" name="top"/>
    </contour>
  </outline>
</glyph>
<glyph name="F" format="1">
  <advance width="479"/>
  <unicode hex="0046"/>
  <outline>
    <contour>
      <point x="119" y="-13" type="curve" smooth="yes"/>
      <point x="143" y="-13"/>
      <point x="168" y="5"/>
      <point x="168" y="29" type="curve" smooth="yes"/>
      <point x="168" y="507" type="line" smooth="yes"/>
      <point x="168" y="530"/>
      <point x="143" y="549"/>
      <point x="119" y="549" type="curve" smooth="yes"/>
      <point x="95" y="549"/>
      <point x="70" y="530"/>
      <point x="70" y="507" type="curve" smooth="yes"/>
      <point x="70" y="29" type="line" smooth="yes"/>
      <point x="70" y="5"/>
      <point x="95" y="-13"/>
    </contour>
    <contour>
      <point x="365" y="226" type="line" smooth="yes"/>
      <point x="389" y="226"/>
      <point x="409" y="245"/>
      <point x="409" y="267" type="curve" smooth="yes"/>
      <point x="409" y="290"/>
      <point x="389" y="309"/>
      <point x="365" y="309" type="curve" smooth="yes"/>
      <point x="128" y="309" type="line" smooth="yes"/>
      <point x="104" y="309"/>
      <point x="84" y="290"/>
      <point x="84" y="267" type="curve" smooth="yes"/>
      <point x="84" y="245"/>
      <point x="104" y="226"/>
      <point x="128" y="226" type="curve" smooth="yes"/>
    </contour>
    <contour>
      <point x="418" y="466" type="line" smooth="yes"/>
      <point x="442" y="466"/>
      <point x="462" y="485"/>
      <point x="462" y="507" type="curve" smooth="yes"/>
      <point x="462" y="530"/>
      <point x="442" y="549"/>
      <point x="418" y="549" type="curve" smooth="yes"/>
      <point x="128" y="549" type="line" smooth="yes"/>
      <point x="104" y="549"/>
      <point x="84" y="530"/>
      <point x="84" y="507" type="curve" smooth="yes"/>
      <point x="84" y="485"/>
      <point x="104" y="466"/>
      <point x="128" y="466" type="curve" smooth="yes"/>
    </contour>
  </outline>
</glyph>
<glyph name="J" format="1">
  <advance width="388"/>
  <unicode hex="004A"/>
  <outline>
    <contour>
      <point x="158" y="-22" type="curve" smooth="yes"/>
      <point x="263" y="-22"/>
      <point x="331" y="32"/>
      <point x="331" y="168" type="curve" smooth="yes"/>
      <point x="331" y="507" type="line" smooth="yes"/>
      <point x="331" y="530"/>
      <point x="306" y="549"/>
      <point x="282" y="549" type="curve" smooth="yes"/>
      <point x="258" y="549"/>
      <point x="233" y="530"/>
      <point x="233" y="507" type="curve" smooth="yes"/>
      <point x="233" y="168" type="line" smooth="yes"/>
      <point x="233" y="108"/>
      <point x="217" y="62"/>
      <point x="158" y="62" type="curve" smooth="yes"/>
      <point x="133" y="62"/>
      <point x="108" y="66"/>
      <point x="84" y="76" type="curve" smooth="yes"/>
      <point x="62" y="86"/>
      <point x="35" y="76"/>
      <point x="25" y="57" type="curve" smooth="yes"/>
      <point x="15" y="35"/>
      <point x="25" y="10"/>
      <point x="46" y="2" type="curve" smooth="yes"/>
      <point x="82" y="-15"/>
      <point x="121" y="-22"/>
    </contour>
  </outline>
</glyph>
<glyph name="O" format="1">
  <advance width="652"/>
  <unicode hex="004F"/>
  <outline>
    <contour>
      <point x="328" y="-23" type="curve" smooth="yes"/>
      <point x="508" y="-23"/>
      <point x="621" y="99"/>
      <point x="621" y="267" type="curve" smooth="yes"/>
      <point x="621" y="442"/>
      <point x="487" y="558"/>
      <point x="328" y="558" type="curve" smooth="yes"/>
      <point x="156" y="558"/>
      <point x="31" y="442"/>
      <point x="31" y="264" type="curve"/>
      <point x="31" y="100"/>
      <point x="157" y="-23"/>
    </contour>
    <contour>
      <point x="328" y="61" type="curve" smooth="yes"/>
      <point x="207" y="61"/>
      <point x="129" y="156"/>
      <point x="129" y="264" type="curve" smooth="yes"/>
      <point x="129" y="384"/>
      <point x="204" y="475"/>
      <point x="328" y="475" type="curve" smooth="yes"/>
      <point x="441" y="475"/>
      <point x="523" y="384"/>
      <point x="523" y="267" type="curve" smooth="yes"/>
      <point x="523" y="157"/>
      <point x="456" y="61"/>
    </contour>
    <contour>
      <point x="326" y="561" type="move" name="top"/>
    </contour>
    <contour>
      <point x="330" y="-20" type="move" name="bottom"/>
    </contour>
  </outline>
</glyph>
<glyph name="U" format="1">
  <advance width="627"/>
  <unicode hex="0055"/>
  <outline>
    <contour>
      <point x="311" y="-22" type="curve" smooth="yes"/>
      <point x="473" y="-22"/>
      <point x="569" y="60"/>
      <point x="569" y="219" type="curve" smooth="yes"/>
      <point x="569" y="507" type="line" smooth="yes"/>
      <point x="569" y="530"/>
      <point x="544" y="549"/>
      <point x="520" y="549" type="curve" smooth="yes"/>
      <point x="496" y="549"/>
      <point x="471" y="530"/>
      <point x="471" y="507" type="curve" smooth="yes"/>
      <point x="471" y="219" type="line" smooth="yes"/>
      <point x="471" y="120"/>
      <point x="417" y="62"/>
      <point x="311" y="62" type="curve" smooth="yes"/>
      <point x="216" y="62"/>
      <point x="156" y="120"/>
      <point x="156" y="216" type="curve" smooth="yes"/>
      <point x="156" y="507" type="line" smooth="yes"/>
      <point x="156" y="530"/>
      <point x="131" y="549"/>
      <point x="107" y="549" type="curve" smooth="yes"/>
      <point x="83" y="549"/>
      <point x="58" y="530"/>
      <point x="58" y="507" type="curve" smooth="yes"/>
      <point x="58" y="216" type="line"/>
      <point x="58" y="60"/>
      <point x="166" y="-22"/>
    </contour>
    <contour>
      <point x="364" y="6" type="move" name="ogonek"/>
    </contour>
    <contour>
      <point x="309" y="531" type="move" name="top"/>
    </contour>
  </outline>
</glyph>
<glyph name="backslash" format="1">
  <advance width="395"/>
  <unicode hex="005C"/>
  <outline>
    <contour>
      <point x="346" y="-91" type="curve" smooth="yes"/>
      <point x="368" y="-83"/>
      <point x="384" y="-58"/>
      <point x="376" y="-36" type="curve" smooth="yes"/>
      <point x="115" y="635" type="line" smooth="yes"/>
      <point x="107" y="657"/>
      <point x="77" y="666"/>
      <point x="55" y="659" type="curve" smooth="yes"/>
      <point x="33" y="651"/>
      <point x="17" y="626"/>
      <point x="25" y="605" type="curve" smooth="yes"/>
      <point x="286" y="-66" type="line" smooth="yes"/>
      <point x="294" y="-89"/>
      <point x="324" y="-97"/>
    </contour>
  </outline>
</glyph>
<glyph name="underscore" format="1">
  <advance width="500"/>
  <unicode hex="005F"/>
  <outline>
    <contour>
      <point x="468" y="-119" type="line" smooth="yes"/>
      <point x="492" y="-119"/>
      <point x="512" y="-99"/>
      <point x="512" y="-77" type="curve" smooth="yes"/>
      <point x="512" y="-55"/>
      <point x="492" y="-35"/>
      <point x="468" y="-35" type="curve" smooth="yes"/>
      <point x="32" y="-35" type="line" smooth="yes"/>
      <point x="8" y="-35"/>
      <point x="-12" y="-55"/>
      <point x="-12" y="-77" type="curve" smooth="yes"/>
      <point x="-12" y="-99"/>
      <point x="8" y="-119"/>
      <point x="32" y="-119" type="curve" smooth="yes"/>
    </contour>
  </outline>
</glyph>
<glyph name="a" format="1">
  <advance width="456"/>
  <unicode hex="0061"/>
  <outline>
    <contour>
      <point x="427" y="2" type="curve" smooth="yes"/>
      <point x="445" y="16"/>
      <point x="448" y="43"/>
      <point x="432" y="61" type="curve" smooth="yes"/>
      <point x="413" y="80"/>
      <point x="408" y="104"/>
      <point x="408" y="144" type="curve" smooth="yes"/>
      <point x="408" y="234" type="line" smooth="yes"/>
      <point x="408" y="343"/>
      <point x="344" y="411"/>
      <point x="219" y="411" type="curve" smooth="yes"/>
      <point x="179" y="411"/>
      <point x="133" y="401"/>
      <point x="108" y="393" type="curve" smooth="yes"/>
      <point x="85" y="387"/>
      <point x="72" y="362"/>
      <point x="79" y="342" type="curve" smooth="yes"/>
      <point x="86" y="320"/>
      <point x="112" y="308"/>
      <point x="134" y="315" type="curve" smooth="yes"/>
      <point x="153" y="320"/>
      <point x="189" y="328"/>
      <point x="219" y="328" type="curve" smooth="yes"/>
      <point x="286" y="328"/>
      <point x="310" y="286"/>
      <point x="310" y="234" type="curve" smooth="yes"/>
      <point x="310" y="144" type="line" smooth="yes"/>
      <point x="310" y="74"/>
      <point x="333" y="36"/>
      <point x="364" y="3" type="curve" smooth="yes"/>
      <point x="380" y="-13"/>
      <point x="410" y="-14"/>
    </contour>
    <contour>
      <point x="174" y="-10" type="curve" smooth="yes"/>
      <point x="265" y="-10"/>
      <point x="336" y="23"/>
      <point x="396" y="99" type="curve" smooth="yes"/>
      <point x="410" y="118"/>
      <point x="404" y="145"/>
      <point x="385" y="159" type="curve" smooth="yes"/>
      <point x="366" y="172"/>
      <point x="336" y="168"/>
      <point x="322" y="151" type="curve" smooth="yes"/>
      <point x="282" y="99"/>
      <point x="237" y="72"/>
      <point x="174" y="72" type="curve" smooth="yes"/>
      <point x="138" y="72"/>
      <point x="121" y="94"/>
      <point x="121" y="111" type="curve" smooth="yes"/>
      <point x="121" y="124"/>
      <point x="120" y="137"/>
      <point x="132" y="149" type="curve" smooth="yes"/>
      <point x="158" y="172"/>
      <point x="200" y="185"/>
      <point x="261" y="185" type="curve" smooth="yes"/>
      <point x="291" y="185"/>
      <point x="322" y="183"/>
      <point x="357" y="182" type="curve" smooth="yes"/>
      <point x="380" y="181"/>
      <point x="401" y="199"/>
      <point x="402" y="222" type="curve" smooth="yes"/>
      <point x="403" y="244"/>
      <point x="383" y="263"/>
      <point x="359" y="264" type="curve" smooth="yes"/>
      <point x="324" y="265"/>
      <point x="291" y="267"/>
      <point x="261" y="267" type="curve" smooth="yes"/>
      <point x="168" y="267"/>
      <point x="108" y="244"/>
      <point x="70" y="209" type="curve" smooth="yes"/>
      <point x="38" y="181"/>
      <point x="23" y="150"/>
      <point x="23" y="111" type="curve" smooth="yes"/>
      <point x="23" y="60"/>
      <point x="60" y="-10"/>
    </contour>
    <contour>
      <point x="400" y="49" type="move" name="ogonek"/>
    </contour>
    <contour>
      <point x="216" y="410" type="move" name="top"/>
    </contour>
  </outline>
</glyph>
<glyph name="b" format="1">
  <advance width="520"/>
  <unicode hex="0062"/>
  <outline>
    <contour>
      <point x="271" y="-14" type="curve" smooth="yes"/>
      <point x="397" y="-14"/>
      <point x="493" y="65"/>
      <point x="493" y="196" type="curve" smooth="yes"/>
      <point x="493" y="328"/>
      <point x="395" y="407"/>
      <point x="285" y="407" type="curve" smooth="yes"/>
      <point x="208" y="407"/>
      <point x="125" y="360"/>
      <point x="68" y="275" type="curve" smooth="yes"/>
      <point x="55" y="255"/>
      <point x="64" y="228"/>
      <point x="84" y="217" type="curve" smooth="yes"/>
      <point x="104" y="204"/>
      <point x="134" y="209"/>
      <point x="146" y="228" type="curve" smooth="yes"/>
      <point x="183" y="284"/>
      <point x="232" y="324"/>
      <point x="285" y="324" type="curve" smooth="yes"/>
      <point x="351" y="324"/>
      <point x="395" y="266"/>
      <point x="395" y="196" type="curve" smooth="yes"/>
      <point x="395" y="123"/>
      <point x="347" y="68"/>
      <point x="271" y="68" type="curve" smooth="yes"/>
      <point x="217" y="68"/>
      <point x="171" y="80"/>
      <point x="127" y="102" type="curve" smooth="yes"/>
      <point x="106" y="113"/>
      <point x="79" y="105"/>
      <point x="67" y="86" type="curve" smooth="yes"/>
      <point x="56" y="66"/>
      <point x="64" y="39"/>
      <point x="85" y="30" type="curve" smooth="yes"/>
      <point x="141" y="2"/>
      <point x="201" y="-14"/>
    </contour>
    <contour>
      <point x="106" y="-13" type="curve" smooth="yes"/>
      <point x="130" y="-13"/>
      <point x="155" y="5"/>
      <point x="155" y="29" type="curve" smooth="yes"/>
      <point x="155" y="533" type="line" smooth="yes"/>
      <point x="155" y="555"/>
      <point x="130" y="574"/>
      <point x="106" y="574" type="curve" smooth="yes"/>
      <point x="82" y="574"/>
      <point x="57" y="555"/>
      <point x="57" y="533" type="curve" smooth="yes"/>
      <point x="57" y="29" type="line" smooth="yes"/>
      <point x="57" y="5"/>
      <point x="82" y="-13"/>
    </contour>
  </outline>
</glyph>
<glyph name="j" format="1">
  <advance width="224"/>
  <unicode hex="006A"/>
  <outline>
    <contour>
      <point x="12" y="-164" type="curve" smooth="yes"/>
      <point x="102" y="-131"/>
      <point x="161" y="-74"/>
      <point x="161" y="49" type="curve" smooth="yes"/>
      <point x="161" y="368" type="line" smooth="yes"/>
      <point x="161" y="390"/>
      <point x="136" y="410"/>
      <point x="112" y="410" type="curve" smooth="yes"/>
      <point x="88" y="410"/>
      <point x="63" y="390"/>
      <point x="63" y="368" type="curve" smooth="yes"/>
      <point x="63" y="49" type="line" smooth="yes"/>
      <point x="63" y="-24"/>
      <point x="38" y="-65"/>
      <point x="-20" y="-88" type="curve" smooth="yes"/>
      <point x="-42" y="-95"/>
      <point x="-54" y="-121"/>
      <point x="-45" y="-141" type="curve" smooth="yes"/>
      <point x="-36" y="-161"/>
      <point x="-10" y="-173"/>
    </contour>
    <contour>
      <point x="113" y="483" type="curve" smooth="yes"/>
      <point x="143" y="483"/>
      <point x="180" y="503"/>
      <point x="180" y="548" type="curve" smooth="yes"/>
      <point x="180" y="595"/>
      <point x="143" y="616"/>
      <point x="112" y="616" type="curve" smooth="yes"/>
      <point x="79" y="616"/>
      <point x="44" y="595"/>
      <point x="44" y="548" type="curve" smooth="yes"/>
      <point x="44" y="505"/>
      <point x="77" y="483"/>
    </contour>
  </outline>
</glyph>
<glyph name="k" format="1">
  <advance width="472"/>
  <unicode hex="006B"/>
  <outline>
    <contour>
      <point x="418" y="332" type="line" smooth="yes"/>
      <point x="437" y="347"/>
      <point x="440" y="373"/>
      <point x="426" y="390" type="curve" smooth="yes"/>
      <point x="411" y="409"/>
      <point x="382" y="412"/>
      <point x="364" y="398" type="curve" smooth="yes"/>
      <point x="81" y="190" type="line" smooth="yes"/>
      <point x="62" y="175"/>
      <point x="59" y="149"/>
      <point x="73" y="131" type="curve" smooth="yes"/>
      <point x="88" y="113"/>
      <point x="117" y="109"/>
      <point x="135" y="124" type="curve" smooth="yes"/>
    </contour>
    <contour>
      <point x="106" y="-14" type="curve" smooth="yes"/>
      <point x="130" y="-14"/>
      <point x="155" y="4"/>
      <point x="155" y="28" type="curve" smooth="yes"/>
      <point x="155" y="533" type="line" smooth="yes"/>
      <point x="155" y="555"/>
      <point x="130" y="574"/>
      <point x="106" y="574" type="curve" smooth="yes"/>
      <point x="82" y="574"/>
      <point x="57" y="555"/>
      <point x="57" y="533" type="curve" smooth="yes"/>
      <point x="57" y="28" type="line" smooth="yes"/>
      <point x="57" y="4"/>
      <point x="82" y="-14"/>
    </contour>
    <contour>
      <point x="430" y="-6" type="curve" smooth="yes"/>
      <point x="450" y="6"/>
      <point x="456" y="34"/>
      <point x="442" y="53" type="curve" smooth="yes"/>
      <point x="273" y="277" type="line" smooth="yes"/>
      <point x="260" y="294"/>
      <point x="230" y="298"/>
      <point x="211" y="285" type="curve" smooth="yes"/>
      <point x="191" y="272"/>
      <point x="185" y="245"/>
      <point x="199" y="226" type="curve" smooth="yes"/>
      <point x="368" y="2" type="line" smooth="yes"/>
      <point x="381" y="-16"/>
      <point x="411" y="-20"/>
    </contour>
    <contour>
      <point x="244" y="12" type="move" name="bottom"/>
    </contour>
  </outline>
</glyph>
<glyph name="l" format="1">
  <advance width="224"/>
  <unicode hex="006C"/>
  <outline>
    <contour>
      <point x="112" y="-14" type="curve" smooth="yes"/>
      <point x="136" y="-14"/>
      <point x="161" y="4"/>
      <point x="161" y="28" type="curve" smooth="yes"/>
      <point x="161" y="533" type="line" smooth="yes"/>
      <point x="161" y="555"/>
      <point x="136" y="574"/>
      <point x="112" y="574" type="curve" smooth="yes"/>
      <point x="88" y="574"/>
      <point x="63" y="555"/>
      <point x="63" y="533" type="curve" smooth="yes"/>
      <point x="63" y="28" type="line" smooth="yes"/>
      <point x="63" y="4"/>
      <point x="88" y="-14"/>
    </contour>
    <contour>
      <point x="111" y="572" type="move" name="top"/>
    </contour>
    <contour>
      <point x="110" y="-15" type="move" name="bottom"/>
    </contour>
  </outline>
</glyph>
<glyph name="q" format="1">
  <advance width="520"/>
  <unicode hex="0071"/>
  <outline>
    <contour>
      <point x="233" y="-5" type="curve" smooth="yes"/>
      <point x="313" y="-5"/>
      <point x="395" y="33"/>
      <point x="453" y="121" type="curve" smooth="yes"/>
      <point x="466" y="139"/>
      <point x="457" y="166"/>
      <point x="437" y="178" type="curve" smooth="yes"/>
      <point x="417" y="191"/>
      <point x="387" y="186"/>
      <point x="375" y="165" type="curve" smooth="yes"/>
      <point x="337" y="109"/>
      <point x="287" y="77"/>
      <point x="233" y="77" type="curve" smooth="yes"/>
      <point x="174" y="77"/>
      <point x="127" y="125"/>
      <point x="127" y="191" type="curve"/>
      <point x="127" y="275"/>
      <point x="187" y="332"/>
      <point x="264" y="332" type="curve" smooth="yes"/>
      <point x="314" y="332"/>
      <point x="355" y="320"/>
      <point x="391" y="298" type="curve" smooth="yes"/>
      <point x="411" y="286"/>
      <point x="439" y="292"/>
      <point x="452" y="311" type="curve" smooth="yes"/>
      <point x="465" y="329"/>
      <point x="459" y="356"/>
      <point x="439" y="368" type="curve" smooth="yes"/>
      <point x="389" y="399"/>
      <point x="334" y="415"/>
      <point x="264" y="415" type="curve" smooth="yes"/>
      <point x="141" y="415"/>
      <point x="29" y="335"/>
      <point x="29" y="191" type="curve" smooth="yes"/>
      <point x="29" y="63"/>
      <point x="132" y="-5"/>
    </contour>
    <contour>
      <point x="415" y="-193" type="curve" smooth="yes"/>
      <point x="439" y="-193"/>
      <point x="464" y="-175"/>
      <point x="464" y="-153" type="curve" smooth="yes"/>
      <point x="464" y="374" type="line" smooth="yes"/>
      <point x="464" y="396"/>
      <point x="439" y="415"/>
      <point x="415" y="415" type="curve" smooth="yes"/>
      <point x="391" y="415"/>
      <point x="366" y="396"/>
      <point x="366" y="374" type="curve" smooth="yes"/>
      <point x="366" y="-153" type="line" smooth="yes"/>
      <point x="366" y="-175"/>
      <point x="391" y="-193"/>
    </contour>
  </outline>
</glyph>
<glyph name="r" format="1">
  <advance width="364"/>
  <unicode hex="0072"/>
  <outline>
    <contour>
      <point x="83" y="205" type="curve" smooth="yes"/>
      <point x="103" y="193"/>
      <point x="133" y="197"/>
      <point x="146" y="217" type="curve" smooth="yes"/>
      <point x="187" y="278"/>
      <point x="235" y="319"/>
      <point x="313" y="328" type="curve" smooth="yes"/>
      <point x="336" y="331"/>
      <point x="354" y="353"/>
      <point x="351" y="376" type="curve" smooth="yes"/>
      <point x="348" y="397"/>
      <point x="325" y="414"/>
      <point x="301" y="411" type="curve" smooth="yes"/>
      <point x="195" y="398"/>
      <point x="125" y="348"/>
      <point x="68" y="263" type="curve" smooth="yes"/>
      <point x="55" y="245"/>
      <point x="63" y="218"/>
    </contour>
    <contour>
      <point x="106" y="-10" type="curve" smooth="yes"/>
      <point x="130" y="-10"/>
      <point x="155" y="8"/>
      <point x="155" y="32" type="curve" smooth="yes"/>
      <point x="155" y="370" type="line" smooth="yes"/>
      <point x="155" y="392"/>
      <point x="130" y="411"/>
      <point x="106" y="411" type="curve" smooth="yes"/>
      <point x="82" y="411"/>
      <point x="57" y="392"/>
      <point x="57" y="370" type="curve" smooth="yes"/>
      <point x="57" y="32" type="line" smooth="yes"/>
      <point x="57" y="8"/>
      <point x="82" y="-10"/>
    </contour>
    <contour>
      <point x="206" y="420" type="move" name="top"/>
    </contour>
    <contour>
      <point x="106" y="-12" type="move" name="bottom"/>
    </contour>
  </outline>
</glyph>
<glyph name="t" format="1">
  <advance width="352"/>
  <unicode hex="0074"/>
  <outline>
    <contour>
      <point x="282" y="-13" type="curve" smooth="yes"/>
      <point x="306" y="-13"/>
      <point x="327" y="4"/>
      <point x="327" y="28" type="curve" smooth="yes"/>
      <point x="327" y="50"/>
      <point x="308" y="69"/>
      <point x="284" y="69" type="curve" smooth="yes"/>
      <point x="216" y="70"/>
      <point x="180" y="95"/>
      <point x="180" y="144" type="curve" smooth="yes"/>
      <point x="180" y="491" type="line" smooth="yes"/>
      <point x="180" y="514"/>
      <point x="155" y="533"/>
      <point x="131" y="533" type="curve" smooth="yes"/>
      <point x="107" y="533"/>
      <point x="82" y="514"/>
      <point x="82" y="491" type="curve" smooth="yes"/>
      <point x="82" y="144" type="line" smooth="yes"/>
      <point x="82" y="47"/>
      <point x="138" y="-10"/>
    </contour>
    <contour>
      <point x="297" y="325" type="line" smooth="yes"/>
      <point x="321" y="325"/>
      <point x="341" y="344"/>
      <point x="341" y="366" type="curve" smooth="yes"/>
      <point x="341" y="389"/>
      <point x="321" y="408"/>
      <point x="297" y="408" type="curve" smooth="yes"/>
      <point x="38" y="408" type="line" smooth="yes"/>
      <point x="14" y="408"/>
      <point x="-6" y="389"/>
      <point x="-6" y="366" type="curve" smooth="yes"/>
      <point x="-6" y="344"/>
      <point x="14" y="325"/>
      <point x="38" y="325" type="curve" smooth="yes"/>
    </contour>
    <contour>
      <point x="169" y="-13" type="move" name="bottom"/>
    </contour>
  </outline>
</glyph>
<glyph name="x" format="1">
  <advance width="449"/>
  <unicode hex="0078"/>
  <outline>
    <contour>
      <point x="422" y="1" type="curve" smooth="yes"/>
      <point x="440" y="14"/>
      <point x="443" y="42"/>
      <point x="427" y="60" type="curve" smooth="yes"/>
      <point x="333" y="161"/>
      <point x="187" y="306"/>
      <point x="105" y="397" type="curve" smooth="yes"/>
      <point x="89" y="414"/>
      <point x="60" y="416"/>
      <point x="42" y="402" type="curve" smooth="yes"/>
      <point x="23" y="387"/>
      <point x="20" y="359"/>
      <point x="35" y="343" type="curve" smooth="yes"/>
      <point x="117" y="252"/>
      <point x="265" y="106"/>
      <point x="359" y="2" type="curve" smooth="yes"/>
      <point x="374" y="-14"/>
      <point x="404" y="-15"/>
    </contour>
    <contour>
      <point x="27" y="1" type="curve" smooth="yes"/>
      <point x="45" y="-15"/>
      <point x="74" y="-14"/>
      <point x="90" y="2" type="curve" smooth="yes"/>
      <point x="158" y="77"/>
      <point x="325" y="246"/>
      <point x="408" y="344" type="curve" smooth="yes"/>
      <point x="422" y="360"/>
      <point x="418" y="389"/>
      <point x="399" y="402" type="curve" smooth="yes"/>
      <point x="381" y="416"/>
      <point x="351" y="414"/>
      <point x="336" y="396" type="curve" smooth="yes"/>
      <point x="255" y="300"/>
      <point x="90" y="131"/>
      <point x="22" y="60" type="curve" smooth="yes"/>
      <point x="6" y="42"/>
      <point x="9" y="14"/>
    </contour>
  </outline>
</glyph>
<glyph name="y" format="1">
  <advance width="453"/>
  <unicode hex="0079"/>
  <outline>
    <contour>
      <point x="78" y="-172" type="curve" smooth="yes"/>
      <point x="150" y="-133"/>
      <point x="217" y="-89"/>
      <point x="281" y="14" type="curve" smooth="yes"/>
      <point x="338" y="105"/>
      <point x="405" y="246"/>
      <point x="441" y="360" type="curve" smooth="yes"/>
      <point x="448" y="382"/>
      <point x="430" y="408"/>
      <point x="407" y="413" type="curve" smooth="yes"/>
      <point x="385" y="420"/>
      <point x="356" y="408"/>
      <point x="349" y="387" type="curve" smooth="yes"/>
      <point x="315" y="278"/>
      <point x="256" y="145"/>
      <point x="201" y="60" type="curve" smooth="yes"/>
      <point x="147" y="-27"/>
      <point x="94" y="-67"/>
      <point x="34" y="-100" type="curve" smooth="yes"/>
      <point x="13" y="-112"/>
      <point x="6" y="-137"/>
      <point x="18" y="-157" type="curve" smooth="yes"/>
      <point x="30" y="-177"/>
      <point x="57" y="-184"/>
    </contour>
    <contour>
      <point x="262" y="2" type="curve" smooth="yes"/>
      <point x="282" y="14"/>
      <point x="290" y="41"/>
      <point x="277" y="61" type="curve" smooth="yes"/>
      <point x="224" y="136"/>
      <point x="158" y="242"/>
      <point x="103" y="390" type="curve" smooth="yes"/>
      <point x="95" y="410"/>
      <point x="66" y="421"/>
      <point x="43" y="413" type="curve" smooth="yes"/>
      <point x="21" y="407"/>
      <point x="5" y="380"/>
      <point x="13" y="359" type="curve" smooth="yes"/>
      <point x="72" y="204"/>
      <point x="144" y="94"/>
      <point x="199" y="13" type="curve" smooth="yes"/>
      <point x="212" y="-5"/>
      <point x="242" y="-10"/>
    </contour>
    <contour>
      <point x="229" y="385" type="move" name="top"/>
    </contour>
  </outline>
</glyph>
<glyph name="braceleft" format="1">
  <advance width="413"/>
  <unicode hex="007B"/>
  <outline>
    <contour>
      <point x="316" y="-112" type="line" smooth="yes"/>
      <point x="340" y="-112"/>
      <point x="360" y="-93"/>
      <point x="360" y="-70" type="curve" smooth="yes"/>
      <point x="360" y="-48"/>
      <point x="340" y="-30"/>
      <point x="316" y="-30" type="curve" smooth="yes"/>
      <point x="295" y="-30" type="line" smooth="yes"/>
      <point x="232" y="-30"/>
      <point x="178" y="-3"/>
      <point x="178" y="35" type="curve" smooth="yes"/>
      <point x="178" y="100"/>
      <point x="248" y="134"/>
      <point x="248" y="192" type="curve" smooth="yes"/>
      <point x="248" y="243"/>
      <point x="211" y="287"/>
      <point x="99" y="303" type="curve"/>
      <point x="141" y="262" type="line"/>
      <point x="141" y="268" type="line"/>
      <point x="99" y="228" type="line"/>
      <point x="211" y="244"/>
      <point x="248" y="288"/>
      <point x="248" y="339" type="curve" smooth="yes"/>
      <point x="248" y="396"/>
      <point x="178" y="430"/>
      <point x="178" y="495" type="curve" smooth="yes"/>
      <point x="178" y="535"/>
      <point x="232" y="560"/>
      <point x="295" y="560" type="curve" smooth="yes"/>
      <point x="316" y="560" type="line" smooth="yes"/>
      <point x="340" y="560"/>
      <point x="360" y="579"/>
      <point x="360" y="601" type="curve" smooth="yes"/>
      <point x="360" y="624"/>
      <point x="340" y="643"/>
      <point x="316" y="643" type="curve" smooth="yes"/>
      <point x="295" y="643" type="line" smooth="yes"/>
      <point x="152" y="643"/>
      <point x="80" y="567"/>
      <point x="80" y="495" type="curve" smooth="yes"/>
      <point x="80" y="430"/>
      <point x="150" y="396"/>
      <point x="150" y="339" type="curve" smooth="yes"/>
      <point x="150" y="318"/>
      <point x="115" y="314"/>
      <point x="85" y="309" type="curve" smooth="yes"/>
      <point x="62" y="306"/>
      <point x="43" y="287"/>
      <point x="43" y="268" type="curve"/>
      <point x="43" y="262" type="line"/>
      <point x="43" y="244"/>
      <point x="62" y="225"/>
      <point x="85" y="222" type="curve" smooth="yes"/>
      <point x="115" y="218"/>
      <point x="150" y="213"/>
      <point x="150" y="192" type="curve" smooth="yes"/>
      <point x="150" y="134"/>
      <point x="80" y="100"/>
      <point x="80" y="35" type="curve"/>
      <point x="80" y="-35"/>
      <point x="152" y="-112"/>
      <point x="295" y="-112" type="curve" smooth="yes"/>
    </contour>
  </outline>
</glyph>
<glyph name="copyright" format="1">
  <advance width="666"/>
  <unicode hex="00A9"/>
  <outline>
    <contour>
      <point x="335" y="-22" type="curve" smooth="yes"/>
      <point x="528" y="-22"/>
      <point x="641" y="105"/>
      <point x="641" y="267" type="curve" smooth="yes"/>
      <point x="641" y="437"/>
      <point x="505" y="557"/>
      <point x="335" y="557" type="curve" smooth="yes"/>
      <point x="149" y="557"/>
      <point x="25" y="437"/>
      <point x="25" y="264" type="curve"/>
      <point x="25" y="106"/>
      <point x="152" y="-22"/>
    </contour>
    <contour>
      <point x="345" y="99" type="curve" smooth="yes"/>
      <point x="380" y="99"/>
      <point x="412" y="108"/>
      <point x="437" y="121" type="curve" smooth="yes"/>
      <point x="458" y="130"/>
      <point x="467" y="155"/>
      <point x="456" y="174" type="curve" smooth="yes"/>
      <point x="446" y="194"/>
      <point x="420" y="202"/>
      <point x="399" y="192" type="curve" smooth="yes"/>
      <point x="384" y="186"/>
      <point x="366" y="181"/>
      <point x="345" y="181" type="curve" smooth="yes"/>
      <point x="286" y="181"/>
      <point x="249" y="217"/>
      <point x="249" y="266" type="curve" smooth="yes"/>
      <point x="249" y="319"/>
      <point x="292" y="355"/>
      <point x="342" y="355" type="curve" smooth="yes"/>
      <point x="363" y="355"/>
      <point x="383" y="349"/>
      <point x="396" y="344" type="curve" smooth="yes"/>
      <point x="417" y="333"/>
      <point x="443" y="342"/>
      <point x="453" y="361" type="curve" smooth="yes"/>
      <point x="464" y="381"/>
      <point x="455" y="406"/>
      <point x="434" y="415" type="curve" smooth="yes"/>
      <point x="411" y="426"/>
      <point x="379" y="436"/>
      <point x="342" y="436" type="curve" smooth="yes"/>
      <point x="248" y="436"/>
      <point x="163" y="368"/>
      <point x="163" y="266" type="curve" smooth="yes"/>
      <point x="163" y="171"/>
      <point x="230" y="99"/>
    </contour>
    <contour>
      <point x="335" y="60" type="curve" smooth="yes"/>
      <point x="204" y="60"/>
      <point x="111" y="150"/>
      <point x="111" y="264" type="curve"/>
      <point x="111" y="390"/>
      <point x="201" y="476"/>
      <point x="335" y="476" type="curve" smooth="yes"/>
      <point x="457" y="476"/>
      <point x="555" y="390"/>
      <point x="555" y="267" type="curve" smooth="yes"/>
      <point x="555" y="151"/>
      <point x="474" y="60"/>
    </contour>
  </outline>
</glyph>
<glyph name="guillemotleft" format="1">
  <advance width="440"/>
  <unicode hex="00AB"/>
  <outline>
    <contour>
      <point x="386" y="14" type="curve" smooth="yes"/>
      <point x="405" y="28"/>
      <point x="411" y="55"/>
      <point x="397" y="72" type="curve" smooth="yes"/>
      <point x="280" y="222" type="line" smooth="yes"/>
      <point x="266" y="239"/>
      <point x="236" y="243"/>
      <point x="217" y="228" type="curve" smooth="yes"/>
      <point x="198" y="216"/>
      <point x="192" y="189"/>
      <point x="206" y="170" type="curve" smooth="yes"/>
      <point x="323" y="22" type="line" smooth="yes"/>
      <point x="337" y="3"/>
      <point x="367" y="1"/>
    </contour>
    <contour>
      <point x="207" y="14" type="curve" smooth="yes"/>
      <point x="226" y="28"/>
      <point x="232" y="55"/>
      <point x="218" y="72" type="curve" smooth="yes"/>
      <point x="102" y="222" type="line" smooth="yes"/>
      <point x="88" y="239"/>
      <point x="58" y="243"/>
      <point x="39" y="228" type="curve" smooth="yes"/>
      <point x="20" y="216"/>
      <point x="14" y="189"/>
      <point x="28" y="170" type="curve" smooth="yes"/>
      <point x="144" y="22" type="line" smooth="yes"/>
      <point x="158" y="3"/>
      <point x="188" y="1"/>
    </contour>
    <contour>
      <point x="39" y="167" type="curve" smooth="yes"/>
      <point x="58" y="154"/>
      <point x="88" y="158"/>
      <point x="102" y="175" type="curve" smooth="yes"/>
      <point x="218" y="324" type="line" smooth="yes"/>
      <point x="232" y="342"/>
      <point x="226" y="369"/>
      <point x="207" y="382" type="curve" smooth="yes"/>
      <point x="188" y="396"/>
      <point x="158" y="392"/>
      <point x="144" y="375" type="curve" smooth="yes"/>
      <point x="28" y="226" type="line" smooth="yes"/>
      <point x="14" y="208"/>
      <point x="20" y="181"/>
    </contour>
    <contour>
      <point x="217" y="167" type="curve" smooth="yes"/>
      <point x="236" y="154"/>
      <point x="266" y="158"/>
      <point x="280" y="175" type="curve" smooth="yes"/>
      <point x="397" y="324" type="line" smooth="yes"/>
      <point x="411" y="342"/>
      <point x="405" y="369"/>
      <point x="386" y="382" type="curve" smooth="yes"/>
      <point x="367" y="396"/>
      <point x="337" y="392"/>
      <point x="323" y="375" type="curve" smooth="yes"/>
      <point x="206" y="226" type="line" smooth="yes"/>
      <point x="192" y="208"/>
      <point x="198" y="181"/>
    </contour>
  </outline>
</glyph>
<glyph name="uni00B5" format="1">
  <advance width="502"/>
  <unicode hex="00B5"/>
  <outline>
    <contour>
      <point x="95" y="-160" type="curve" smooth="yes"/>
      <point x="119" y="-160"/>
      <point x="144" y="-142"/>
      <point x="144" y="-118" type="curve" smooth="yes"/>
      <point x="144" y="220" type="line" smooth="yes"/>
      <point x="144" y="242"/>
      <point x="119" y="261"/>
      <point x="95" y="261" type="curve" smooth="yes"/>
      <point x="71" y="261"/>
      <point x="46" y="242"/>
      <point x="46" y="220" type="curve" smooth="yes"/>
      <point x="46" y="-118" type="line" smooth="yes"/>
      <point x="46" y="-142"/>
      <point x="71" y="-160"/>
    </contour>
    <contour>
      <point x="213" y="-10" type="curve" smooth="yes"/>
      <point x="291" y="-10"/>
      <point x="376" y="43"/>
      <point x="429" y="112" type="curve" smooth="yes"/>
      <point x="443" y="131"/>
      <point x="437" y="159"/>
      <point x="418" y="171" type="curve" smooth="yes"/>
      <point x="398" y="185"/>
      <point x="369" y="181"/>
      <point x="355" y="163" type="curve" smooth="yes"/>
      <point x="320" y="117"/>
      <point x="267" y="72"/>
      <point x="213" y="72" type="curve" smooth="yes"/>
      <point x="165" y="72"/>
      <point x="144" y="111"/>
      <point x="144" y="172" type="curve" smooth="yes"/>
      <point x="144" y="370" type="line" smooth="yes"/>
      <point x="144" y="392"/>
      <point x="119" y="411"/>
      <point x="95" y="411" type="curve" smooth="yes"/>
      <point x="71" y="411"/>
      <point x="46" y="392"/>
      <point x="46" y="370" type="curve" smooth="yes"/>
      <point x="46" y="172" type="line"/>
      <point x="46" y="25"/>
      <point x="125" y="-10"/>
    </contour>
    <contour>
      <point x="396" y="-10" type="curve" smooth="yes"/>
      <point x="420" y="-10"/>
      <point x="445" y="8"/>
      <point x="445" y="32" type="curve" smooth="yes"/>
      <point x="445" y="370" type="line" smooth="yes"/>
      <point x="445" y="392"/>
      <point x="420" y="411"/>
      <point x="396" y="411" type="curve" smooth="yes"/>
      <point x="372" y="411"/>
      <point x="347" y="392"/>
      <point x="347" y="370" type="curve" smooth="yes"/>
      <point x="347" y="32" type="line" smooth="yes"/>
      <point x="347" y="8"/>
      <point x="372" y="-10"/>
    </contour>
  </outline>
</glyph>
<glyph name="periodcentered" format="1">
  <advance width="216"/>
  <unicode hex="00B7"/>
  <outline>
    <contour>
      <point x="110" y="154" type="curve" smooth="yes"/>
      <point x="145" y="154"/>
      <point x="180" y="166"/>
      <point x="180" y="223" type="curve" smooth="yes"/>
      <point x="180" y="268"/>
      <point x="144" y="293"/>
      <point x="109" y="293" type="curve" smooth="yes"/>
      <point x="70" y="293"/>
      <point x="39" y="270"/>
      <point x="39" y="223" type="curve"/>
      <point x="39" y="168"/>
      <point x="78" y="154"/>
    </contour>
  </outline>
</glyph>
<glyph name="eth" format="1">
  <advance width="508"/>
  <unicode hex="00F0"/>
  <outline>
    <contour>
      <point x="243" y="-18" type="curve" smooth="yes"/>
      <point x="379" y="-18"/>
      <point x="472" y="61"/>
      <point x="472" y="215" type="curve" smooth="yes"/>
      <point x="472" y="325"/>
      <point x="418" y="436"/>
      <point x="247" y="569" type="curve" smooth="yes"/>
      <point x="229" y="584"/>
      <point x="200" y="581"/>
      <point x="185" y="564" type="curve" smooth="yes"/>
      <point x="170" y="547"/>
      <point x="172" y="519"/>
      <point x="191" y="505" type="curve" smooth="yes"/>
      <point x="330" y="396"/>
      <point x="374" y="305"/>
      <point x="374" y="215" type="curve" smooth="yes"/>
      <point x="374" y="127"/>
      <point x="331" y="66"/>
      <point x="243" y="66" type="curve" smooth="yes"/>
      <point x="167" y="66"/>
      <point x="124" y="115"/>
      <point x="124" y="173" type="curve"/>
      <point x="124" y="239"/>
      <point x="173" y="286"/>
      <point x="244" y="286" type="curve" smooth="yes"/>
      <point x="300" y="286"/>
      <point x="355" y="261"/>
      <point x="381" y="238" type="curve" smooth="yes"/>
      <point x="399" y="223"/>
      <point x="428" y="225"/>
      <point x="444" y="241" type="curve" smooth="yes"/>
      <point x="460" y="257"/>
      <point x="460" y="285"/>
      <point x="443" y="300" type="curve" smooth="yes"/>
      <point x="405" y="333"/>
      <point x="326" y="369"/>
      <point x="244" y="369" type="curve" smooth="yes"/>
      <point x="121" y="369"/>
      <point x="26" y="293"/>
      <point x="26" y="173" type="curve" smooth="yes"/>
      <point x="26" y="67"/>
      <point x="109" y="-18"/>
    </contour>
    <contour>
      <point x="388" y="495" type="line" smooth="yes"/>
      <point x="408" y="506"/>
      <point x="416" y="531"/>
      <point x="404" y="551" type="curve" smooth="yes"/>
      <point x="391" y="569"/>
      <point x="365" y="575"/>
      <point x="345" y="564" type="curve" smooth="yes"/>
      <point x="173" y="466" type="line" smooth="yes"/>
      <point x="153" y="455"/>
      <point x="144" y="429"/>
      <point x="156" y="410" type="curve" smooth="yes"/>
      <point x="169" y="390"/>
      <point x="196" y="386"/>
      <point x="216" y="397" type="curve" smooth="yes"/>
    </contour>
  </outline>
</glyph>
<glyph name="Iogonek" format="1">
  <advance width="249"/>
  <unicode hex="012E"/>
  <outline>
    <contour>
      <point x="166" y="-226" type="curve" smooth="yes"/>
      <point x="190" y="-226"/>
      <point x="209" y="-208"/>
      <point x="209" y="-187" type="curve" smooth="yes"/>
      <point x="209" y="-165"/>
      <point x="190" y="-148"/>
      <point x="166" y="-148" type="curve" smooth="yes"/>
      <point x="109" y="-148"/>
      <point x="92" y="-135"/>
      <point x="92" y="-118" type="curve" smooth="yes"/>
      <point x="92" y="-101"/>
      <point x="105" y="-80"/>
      <point x="157" y="-33" type="curve" smooth="yes"/>
      <point x="165" y="-25"/>
      <point x="173" y="-14"/>
      <point x="173" y="-2" type="curve" smooth="yes"/>
      <point x="173" y="41" type="line" smooth="yes"/>
      <point x="173" y="64"/>
      <point x="153" y="82"/>
      <point x="130" y="82" type="curve" smooth="yes"/>
      <point x="107" y="82"/>
      <point x="75" y="64"/>
      <point x="75" y="41" type="curve" smooth="yes"/>
      <point x="75" y="-2" type="line"/>
      <point x="103" y="29" type="line"/>
      <point x="10" y="-53"/>
      <point x="-1" y="-95"/>
      <point x="-1" y="-128" type="curve" smooth="yes"/>
      <point x="-1" y="-183"/>
      <point x="48" y="-226"/>
    </contour>
    <contour>
      <point x="124" y="-13" type="curve" smooth="yes"/>
      <point x="148" y="-13"/>
      <point x="173" y="5"/>
      <point x="173" y="29" type="curve" smooth="yes"/>
      <point x="173" y="507" type="line" smooth="yes"/>
      <point x="173" y="530"/>
      <point x="148" y="549"/>
      <point x="124" y="549" type="curve" smooth="yes"/>
      <point x="100" y="549"/>
      <point x="75" y="530"/>
      <point x="75" y="507" type="curve" smooth="yes"/>
      <point x="75" y="29" type="line" smooth="yes"/>
      <point x="75" y="5"/>
      <point x="100" y="-13"/>
    </contour>
    <contour>
      <point x="130" y="59" type="move" name="_ogonek"/>
    </contour>
  </outline>
</glyph>
<glyph name="dotlessi" format="1">
  <advance width="197"/>
  <unicode hex="0131"/>
  <outline>
    <contour>
      <point x="98" y="-10" type="curve" smooth="yes"/>
      <point x="122" y="-10"/>
      <point x="147" y="8"/>
      <point x="147" y="32" type="curve" smooth="yes"/>
      <point x="147" y="370" type="line" smooth="yes"/>
      <point x="147" y="392"/>
      <point x="122" y="411"/>
      <point x="98" y="411" type="curve" smooth="yes"/>
      <point x="74" y="411"/>
      <point x="49" y="392"/>
      <point x="49" y="370" type="curve" smooth="yes"/>
      <point x="49" y="32" type="line" smooth="yes"/>
      <point x="49" y="8"/>
      <point x="74" y="-10"/>
    </contour>
    <contour>
      <point x="104" y="51" type="move" name="ogonek"/>
    </contour>
    <contour>
      <point x="98" y="-11" type="move" name="bottom"/>
    </contour>
    <contour>
      <point x="97" y="411" type="move" name="top"/>
    </contour>
  </outline>
</glyph>
<glyph name="Eng" format="1">
  <advance width="647"/>
  <unicode hex="014A"/>
  <outline>
    <contour>
      <point x="449" y="-193" type="curve" smooth="yes"/>
      <point x="524" y="-162"/>
      <point x="577" y="-101"/>
      <point x="577" y="2" type="curve" smooth="yes"/>
      <point x="577" y="161" type="line" smooth="yes"/>
      <point x="577" y="183"/>
      <point x="552" y="203"/>
      <point x="528" y="203" type="curve" smooth="yes"/>
      <point x="504" y="203"/>
      <point x="479" y="183"/>
      <point x="479" y="161" type="curve" smooth="yes"/>
      <point x="479" y="2" type="line" smooth="yes"/>
      <point x="479" y="-61"/>
      <point x="458" y="-97"/>
      <point x="415" y="-115" type="curve" smooth="yes"/>
      <point x="393" y="-124"/>
      <point x="381" y="-150"/>
      <point x="390" y="-170" type="curve" smooth="yes"/>
      <point x="399" y="-190"/>
      <point x="427" y="-202"/>
    </contour>
    <contour>
      <point x="547" y="-4" type="curve" smooth="yes"/>
      <point x="566" y="8"/>
      <point x="572" y="35"/>
      <point x="558" y="54" type="curve" smooth="yes"/>
      <point x="446" y="195"/>
      <point x="240" y="434"/>
      <point x="161" y="533" type="curve" smooth="yes"/>
      <point x="147" y="551"/>
      <point x="118" y="553"/>
      <point x="99" y="540" type="curve" smooth="yes"/>
      <point x="80" y="527"/>
      <point x="74" y="500"/>
      <point x="89" y="482" type="curve" smooth="yes"/>
      <point x="168" y="383"/>
      <point x="372" y="144"/>
      <point x="484" y="2" type="curve" smooth="yes"/>
      <point x="499" y="-15"/>
      <point x="528" y="-18"/>
    </contour>
    <contour>
      <point x="119" y="-13" type="curve" smooth="yes"/>
      <point x="143" y="-13"/>
      <point x="168" y="5"/>
      <point x="168" y="29" type="curve" smooth="yes"/>
      <point x="168" y="507" type="line" smooth="yes"/>
      <point x="168" y="530"/>
      <point x="143" y="549"/>
      <point x="119" y="549" type="curve" smooth="yes"/>
      <point x="95" y="549"/>
      <point x="70" y="530"/>
      <point x="70" y="507" type="curve" smooth="yes"/>
      <point x="70" y="29" type="line" smooth="yes"/>
      <point x="70" y="5"/>
      <point x="95" y="-13"/>
    </contour>
    <contour>
      <point x="528" y="-13" type="curve" smooth="yes"/>
      <point x="552" y="-13"/>
      <point x="577" y="5"/>
      <point x="577" y="29" type="curve" smooth="yes"/>
      <point x="577" y="507" type="line" smooth="yes"/>
      <point x="577" y="530"/>
      <point x="552" y="549"/>
      <point x="528" y="549" type="curve" smooth="yes"/>
      <point x="504" y="549"/>
      <point x="479" y="530"/>
      <point x="479" y="507" type="curve" smooth="yes"/>
      <point x="479" y="29" type="line" smooth="yes"/>
      <point x="479" y="5"/>
      <point x="504" y="-13"/>
    </contour>
  </outline>
</glyph>
<glyph name="ringcomb" format="1">
  <advance width="0"/>
  <unicode hex="030A"/>
  <outline>
    <contour>
      <point x="0" y="449" type="curve" smooth="yes"/>
      <point x="81" y="449"/>
      <point x="127" y="505"/>
      <point x="127" y="562" type="curve" smooth="yes"/>
      <point x="127" y="618"/>
      <point x="81" y="675"/>
      <point x="0" y="675" type="curve" smooth="yes"/>
      <point x="-79" y="675"/>
      <point x="-125" y="616"/>
      <point x="-125" y="562" type="curve" smooth="yes"/>
      <point x="-125" y="507"/>
      <point x="-79" y="449"/>
    </contour>
    <contour>
      <point x="0" y="525" type="curve" smooth="yes"/>
      <point x="-28" y="525"/>
      <point x="-43" y="542"/>
      <point x="-43" y="562" type="curve" smooth="yes"/>
      <point x="-43" y="580"/>
      <point x="-27" y="600"/>
      <point x="0" y="600" type="curve" smooth="yes"/>
      <point x="31" y="600"/>
      <point x="45" y="582"/>
      <point x="45" y="562" type="curve" smooth="yes"/>
      <point x="45" y="543"/>
      <point x="29" y="525"/>
    </contour>
    <contour>
      <point x="0" y="394" type="move" name="_top"/>
    </contour>
  </outline>
</glyph>
<glyph name="bI" format="1">
  <advance width="488"/>
  <unicode hex="0987"/>
  <outline>
    <contour>
      <point x="409" y="564" type="line"/>
      <point x="409" y="683"/>
      <point x="365" y="739"/>
      <point x="281" y="739" type="curve" smooth="yes"/>
      <point x="224" y="739"/>
      <point x="168" y="711"/>
      <point x="124" y="711" type="curve" smooth="yes"/>
      <point x="80" y="711"/>
      <point x="58" y="743"/>
      <point x="58" y="779" type="curve" smooth="yes"/>
      <point x="58" y="808"/>
      <point x="42" y="826"/>
      <point x="21" y="826" type="curve" smooth="yes"/>
      <point x="-4" y="826"/>
      <point x="-17" y="808"/>
      <point x="-17" y="779" type="curve" smooth="yes"/>
      <point x="-17" y="706"/>
      <point x="25" y="624"/>
      <point x="132" y="624" type="curve" smooth="yes"/>
      <point x="190" y="624"/>
      <point x="239" y="648"/>
      <point x="275" y="648" type="curve" smooth="yes"/>
      <point x="321" y="648"/>
      <point x="325" y="623"/>
      <point x="325" y="564" type="curve"/>
    </contour>
    <contour>
      <point x="417" y="-40" type="curve" smooth="yes"/>
      <point x="448" y="-40"/>
      <point x="467" y="-24"/>
      <point x="467" y="1" type="curve" smooth="yes"/>
      <point x="467" y="22"/>
      <point x="452" y="41"/>
      <point x="417" y="51" type="curve" smooth="yes"/>
      <point x="359" y="67"/>
      <point x="333" y="108"/>
      <point x="307" y="142" type="curve" smooth="yes"/>
      <point x="262" y="202"/>
      <point x="223" y="248"/>
      <point x="151" y="248" type="curve" smooth="yes"/>
      <point x="94" y="248"/>
      <point x="56" y="206"/>
      <point x="56" y="159" type="curve" smooth="yes"/>
      <point x="56" y="102"/>
      <point x="103" y="60"/>
      <point x="181" y="60" type="curve" smooth="yes"/>
      <point x="297" y="60"/>
      <point x="416" y="162"/>
      <point x="416" y="283" type="curve" smooth="yes"/>
      <point x="416" y="398"/>
      <point x="332" y="480"/>
      <point x="218" y="480" type="curve" smooth="yes"/>
      <point x="140" y="480"/>
      <point x="62" y="443"/>
      <point x="62" y="359" type="curve" smooth="yes"/>
      <point x="62" y="308"/>
      <point x="102" y="265"/>
      <point x="165" y="265" type="curve" smooth="yes"/>
      <point x="224" y="265"/>
      <point x="257" y="310"/>
      <point x="257" y="356" type="curve" smooth="yes"/>
      <point x="257" y="411"/>
      <point x="212" y="434"/>
      <point x="185" y="434" type="curve" smooth="yes"/>
      <point x="161" y="434"/>
      <point x="137" y="425"/>
      <point x="124" y="402" type="curve"/>
      <point x="169" y="402" type="line"/>
      <point x="187" y="412"/>
      <point x="207" y="416"/>
      <point x="221" y="416" type="curve" smooth="yes"/>
      <point x="277" y="416"/>
      <point x="321" y="362"/>
      <point x="321" y="303" type="curve" smooth="yes"/>
      <point x="321" y="210"/>
      <point x="250" y="144"/>
      <point x="168" y="144" type="curve" smooth="yes"/>
      <point x="146" y="144"/>
      <point x="133" y="153"/>
      <point x="133" y="161" type="curve" smooth="yes"/>
      <point x="133" y="165"/>
      <point x="139" y="169"/>
      <point x="150" y="169" type="curve" smooth="yes"/>
      <point x="177" y="169"/>
      <point x="213" y="107"/>
      <point x="234" y="81" type="curve" smooth="yes"/>
      <point x="280" y="24"/>
      <point x="338" y="-40"/>
    </contour>
    <contour>
      <point x="168" y="339" type="curve" smooth="yes"/>
      <point x="154" y="339"/>
      <point x="142" y="351"/>
      <point x="142" y="365" type="curve" smooth="yes"/>
      <point x="142" y="379"/>
      <point x="154" y="391"/>
      <point x="168" y="391" type="curve" smooth="yes"/>
      <point x="182" y="391"/>
      <point x="194" y="379"/>
      <point x="194" y="365" type="curve" smooth="yes"/>
      <point x="194" y="351"/>
      <point x="182" y="339"/>
    </contour>
    <contour>
      <point x="487" y="502" type="line" smooth="yes"/>
      <point x="513" y="502"/>
      <point x="533" y="520"/>
      <point x="533" y="545" type="curve" smooth="yes"/>
      <point x="533" y="569"/>
      <point x="513" y="587"/>
      <point x="487" y="587" type="curve" smooth="yes"/>
      <point x="0" y="587" type="line" smooth="yes"/>
      <point x="-26" y="587"/>
      <point x="-46" y="569"/>
      <point x="-46" y="545" type="curve" smooth="yes"/>
      <point x="-46" y="521"/>
      <point x="-26" y="502"/>
      <point x="0" y="502" type="curve" smooth="yes"/>
    </contour>
  </outline>
</glyph>
<glyph name="bE" format="1">
  <advance width="598"/>
  <unicode hex="098F"/>
  <outline>
    <contour>
      <point x="482" y="-12" type="curve" smooth="yes"/>
      <point x="515" y="-12"/>
      <point x="532" y="16"/>
      <point x="532" y="46" type="curve" smooth="yes"/>
      <point x="532" y="468" type="line" smooth="yes"/>
      <point x="532" y="545"/>
      <point x="488" y="595"/>
      <point x="420" y="595" type="curve" smooth="yes"/>
      <point x="302" y="595"/>
      <point x="162" y="447"/>
      <point x="162" y="329" type="curve" smooth="yes"/>
      <point x="162" y="262"/>
      <point x="208" y="213"/>
      <point x="278" y="213" type="curve" smooth="yes"/>
      <point x="350" y="213"/>
      <point x="388" y="264"/>
      <point x="388" y="313" type="curve" smooth="yes"/>
      <point x="388" y="360"/>
      <point x="354" y="414"/>
      <point x="291" y="414" type="curve" smooth="yes"/>
      <point x="243" y="414"/>
      <point x="211" y="379"/>
      <point x="211" y="357" type="curve"/>
      <point x="271" y="365" type="line"/>
      <point x="271" y="439"/>
      <point x="375" y="502"/>
      <point x="410" y="502" type="curve" smooth="yes"/>
      <point x="441" y="502"/>
      <point x="437" y="481"/>
      <point x="437" y="435" type="curve" smooth="yes"/>
      <point x="437" y="100" type="line"/>
      <point x="449" y="100" type="line"/>
      <point x="435" y="154"/>
      <point x="388" y="180"/>
      <point x="344" y="180" type="curve" smooth="yes"/>
      <point x="295" y="180"/>
      <point x="239" y="149"/>
      <point x="192" y="149" type="curve" smooth="yes"/>
      <point x="163" y="149"/>
      <point x="99" y="161"/>
      <point x="99" y="233" type="curve" smooth="yes"/>
      <point x="99" y="276"/>
      <point x="122" y="304"/>
      <point x="122" y="338" type="curve" smooth="yes"/>
      <point x="122" y="369"/>
      <point x="103" y="380"/>
      <point x="82" y="380" type="curve" smooth="yes"/>
      <point x="39" y="380"/>
      <point x="3" y="309"/>
      <point x="3" y="242" type="curve" smooth="yes"/>
      <point x="3" y="139"/>
      <point x="65" y="44"/>
      <point x="193" y="44" type="curve" smooth="yes"/>
      <point x="268" y="44"/>
      <point x="315" y="76"/>
      <point x="370" y="76" type="curve" smooth="yes"/>
      <point x="379" y="76"/>
      <point x="410" y="75"/>
      <point x="427" y="37" type="curve" smooth="yes"/>
      <point x="437" y="15"/>
      <point x="450" y="-12"/>
    </contour>
    <contour>
      <point x="280" y="294" type="curve" smooth="yes"/>
      <point x="263" y="294"/>
      <point x="250" y="305"/>
      <point x="250" y="323" type="curve" smooth="yes"/>
      <point x="250" y="341"/>
      <point x="263" y="352"/>
      <point x="280" y="352" type="curve" smooth="yes"/>
      <point x="296" y="352"/>
      <point x="308" y="341"/>
      <point x="308" y="323" type="curve" smooth="yes"/>
      <point x="308" y="305"/>
      <point x="296" y="294"/>
    </contour>
  </outline>
</glyph>
<glyph name="bJha" format="1">
  <advance width="655"/>
  <unicode hex="099D"/>
  <outline>
    <contour>
      <point x="407" y="84" type="line"/>
      <point x="407" y="215"/>
      <point x="231" y="300"/>
      <point x="150" y="318" type="curve"/>
      <point x="147" y="289" type="line"/>
      <point x="349" y="357"/>
      <point x="388" y="422"/>
      <point x="388" y="476" type="curve" smooth="yes"/>
      <point x="388" y="528"/>
      <point x="351" y="587"/>
      <point x="270" y="587" type="curve" smooth="yes"/>
      <point x="0" y="587" type="line" smooth="yes"/>
      <point x="-17" y="587"/>
      <point x="-40" y="575"/>
      <point x="-40" y="546" type="curve" smooth="yes"/>
      <point x="-40" y="517"/>
      <point x="-19" y="502"/>
      <point x="0" y="502" type="curve" smooth="yes"/>
      <point x="242" y="502" type="line" smooth="yes"/>
      <point x="246" y="502"/>
      <point x="318" y="505"/>
      <point x="318" y="487" type="curve" smooth="yes"/>
      <point x="318" y="460"/>
      <point x="204" y="419"/>
      <point x="66" y="362" type="curve" smooth="yes"/>
      <point x="32" y="348"/>
      <point x="20" y="327"/>
      <point x="20" y="302" type="curve" smooth="yes"/>
      <point x="20" y="262"/>
      <point x="52" y="249"/>
      <point x="84" y="239" type="curve" smooth="yes"/>
      <point x="130" y="225"/>
      <point x="344" y="159"/>
      <point x="344" y="49" type="curve"/>
    </contour>
    <contour>
      <point x="391" y="-12" type="curve" smooth="yes"/>
      <point x="418" y="-12"/>
      <point x="439" y="12"/>
      <point x="439" y="44" type="curve" smooth="yes"/>
      <point x="439" y="553" type="line" smooth="yes"/>
      <point x="439" y="585"/>
      <point x="419" y="609"/>
      <point x="392" y="609" type="curve" smooth="yes"/>
      <point x="364" y="609"/>
      <point x="344" y="585"/>
      <point x="344" y="553" type="curve" smooth="yes"/>
      <point x="344" y="44" type="line" smooth="yes"/>
      <point x="344" y="12"/>
      <point x="364" y="-12"/>
    </contour>
    <contour>
      <point x="546" y="114" type="line"/>
      <point x="546" y="234"/>
      <point x="439" y="227"/>
      <point x="439" y="335" type="curve"/>
      <point x="413" y="234" type="line"/>
      <point x="413" y="177"/>
      <point x="494" y="181"/>
      <point x="494" y="93" type="curve"/>
    </contour>
    <contour>
      <point x="541" y="27" type="curve" smooth="yes"/>
      <point x="568" y="27"/>
      <point x="589" y="51"/>
      <point x="589" y="83" type="curve" smooth="yes"/>
      <point x="589" y="435" type="line" smooth="yes"/>
      <point x="589" y="491"/>
      <point x="589" y="502"/>
      <point x="623" y="502" type="curve" smooth="yes"/>
      <point x="655" y="502" type="line" smooth="yes"/>
      <point x="681" y="502"/>
      <point x="701" y="520"/>
      <point x="701" y="545" type="curve" smooth="yes"/>
      <point x="701" y="569"/>
      <point x="681" y="587"/>
      <point x="655" y="587" type="curve" smooth="yes"/>
      <point x="600" y="587" type="line" smooth="yes"/>
      <point x="538" y="587"/>
      <point x="494" y="544"/>
      <point x="494" y="457" type="curve" smooth="yes"/>
      <point x="494" y="83" type="line" smooth="yes"/>
      <point x="494" y="51"/>
      <point x="514" y="27"/>
    </contour>
  </outline>
</glyph>
<glyph name="bNya" format="1">
  <advance width="804"/>
  <unicode hex="099E"/>
  <outline>
    <contour>
      <point x="632" y="94" type="curve" smooth="yes"/>
      <point x="723" y="94"/>
      <point x="777" y="153"/>
      <point x="777" y="226" type="curve" smooth="yes"/>
      <point x="777" y="301"/>
      <point x="719" y="381"/>
      <point x="642" y="381" type="curve" smooth="yes"/>
      <point x="589" y="381"/>
      <point x="554" y="342"/>
      <point x="554" y="296" type="curve" smooth="yes"/>
      <point x="554" y="246"/>
      <point x="595" y="213"/>
      <point x="642" y="213" type="curve" smooth="yes"/>
      <point x="722" y="213"/>
      <point x="774" y="309"/>
      <point x="774" y="382" type="curve" smooth="yes"/>
      <point x="774" y="450"/>
      <point x="729" y="515"/>
      <point x="634" y="515" type="curve" smooth="yes"/>
      <point x="509" y="515"/>
      <point x="460" y="389"/>
      <point x="460" y="299" type="curve" smooth="yes"/>
      <point x="460" y="207"/>
      <point x="512" y="94"/>
    </contour>
    <contour>
      <point x="624" y="179" type="curve" smooth="yes"/>
      <point x="580" y="179"/>
      <point x="532" y="215"/>
      <point x="532" y="293" type="curve" smooth="yes"/>
      <point x="532" y="370"/>
      <point x="574" y="426"/>
      <point x="631" y="426" type="curve" smooth="yes"/>
      <point x="666" y="426"/>
      <point x="695" y="408"/>
      <point x="695" y="361" type="curve" smooth="yes"/>
      <point x="695" y="316"/>
      <point x="668" y="286"/>
      <point x="644" y="286" type="curve" smooth="yes"/>
      <point x="633" y="286"/>
      <point x="627" y="292"/>
      <point x="627" y="298" type="curve" smooth="yes"/>
      <point x="627" y="305"/>
      <point x="634" y="312"/>
      <point x="646" y="312" type="curve" smooth="yes"/>
      <point x="668" y="312"/>
      <point x="700" y="289"/>
      <point x="700" y="248" type="curve" smooth="yes"/>
      <point x="700" y="204"/>
      <point x="663" y="179"/>
    </contour>
    <contour>
      <point x="482" y="-12" type="curve" smooth="yes"/>
      <point x="515" y="-12"/>
      <point x="532" y="16"/>
      <point x="532" y="46" type="curve" smooth="yes"/>
      <point x="532" y="468" type="line" smooth="yes"/>
      <point x="532" y="545"/>
      <point x="488" y="595"/>
      <point x="420" y="595" type="curve" smooth="yes"/>
      <point x="302" y="595"/>
      <point x="162" y="447"/>
      <point x="162" y="329" type="curve" smooth="yes"/>
      <point x="162" y="262"/>
      <point x="208" y="213"/>
      <point x="278" y="213" type="curve" smooth="yes"/>
      <point x="350" y="213"/>
      <point x="388" y="264"/>
      <point x="388" y="313" type="curve" smooth="yes"/>
      <point x="388" y="360"/>
      <point x="354" y="414"/>
      <point x="291" y="414" type="curve" smooth="yes"/>
      <point x="243" y="414"/>
      <point x="211" y="379"/>
      <point x="211" y="357" type="curve"/>
      <point x="271" y="365" type="line"/>
      <point x="271" y="439"/>
      <point x="375" y="502"/>
      <point x="410" y="502" type="curve" smooth="yes"/>
      <point x="441" y="502"/>
      <point x="437" y="481"/>
      <point x="437" y="435" type="curve" smooth="yes"/>
      <point x="437" y="100" type="line"/>
      <point x="449" y="100" type="line"/>
      <point x="435" y="154"/>
      <point x="388" y="180"/>
      <point x="344" y="180" type="curve" smooth="yes"/>
      <point x="295" y="180"/>
      <point x="239" y="149"/>
      <point x="192" y="149" type="curve" smooth="yes"/>
      <point x="163" y="149"/>
      <point x="99" y="161"/>
      <point x="99" y="233" type="curve" smooth="yes"/>
      <point x="99" y="276"/>
      <point x="122" y="304"/>
      <point x="122" y="338" type="curve" smooth="yes"/>
      <point x="122" y="369"/>
      <point x="103" y="380"/>
      <point x="82" y="380" type="curve" smooth="yes"/>
      <point x="39" y="380"/>
      <point x="3" y="309"/>
      <point x="3" y="242" type="curve" smooth="yes"/>
      <point x="3" y="139"/>
      <point x="65" y="44"/>
      <point x="193" y="44" type="curve" smooth="yes"/>
      <point x="268" y="44"/>
      <point x="315" y="76"/>
      <point x="370" y="76" type="curve" smooth="yes"/>
      <point x="379" y="76"/>
      <point x="410" y="75"/>
      <point x="427" y="37" type="curve" smooth="yes"/>
      <point x="437" y="15"/>
      <point x="450" y="-12"/>
    </contour>
    <contour>
      <point x="280" y="294" type="curve" smooth="yes"/>
      <point x="263" y="294"/>
      <point x="250" y="305"/>
      <point x="250" y="323" type="curve" smooth="yes"/>
      <point x="250" y="341"/>
      <point x="263" y="352"/>
      <point x="280" y="352" type="curve" smooth="yes"/>
      <point x="296" y="352"/>
      <point x="308" y="341"/>
      <point x="308" y="323" type="curve" smooth="yes"/>
      <point x="308" y="305"/>
      <point x="296" y="294"/>
    </contour>
  </outline>
</glyph>
<glyph name="bNa" format="1">
  <advance width="506"/>
  <unicode hex="09A8"/>
  <outline>
    <contour>
      <point x="392" y="-11" type="curve" smooth="yes"/>
      <point x="419" y="-11"/>
      <point x="440" y="13"/>
      <point x="440" y="45" type="curve" smooth="yes"/>
      <point x="440" y="435" type="line" smooth="yes"/>
      <point x="440" y="491"/>
      <point x="440" y="502"/>
      <point x="474" y="502" type="curve" smooth="yes"/>
      <point x="506" y="502" type="line" smooth="yes"/>
      <point x="532" y="502"/>
      <point x="552" y="520"/>
      <point x="552" y="545" type="curve" smooth="yes"/>
      <point x="552" y="569"/>
      <point x="532" y="587"/>
      <point x="506" y="587" type="curve" smooth="yes"/>
      <point x="451" y="587" type="line" smooth="yes"/>
      <point x="388" y="587"/>
      <point x="361" y="557"/>
      <point x="361" y="502" type="curve"/>
      <point x="382" y="502" type="line"/>
      <point x="382" y="558"/>
      <point x="345" y="587"/>
      <point x="286" y="587" type="curve" smooth="yes"/>
      <point x="0" y="587" type="line" smooth="yes"/>
      <point x="-26" y="587"/>
      <point x="-46" y="569"/>
      <point x="-46" y="545" type="curve" smooth="yes"/>
      <point x="-46" y="520"/>
      <point x="-26" y="502"/>
      <point x="0" y="502" type="curve" smooth="yes"/>
      <point x="276" y="502" type="line" smooth="yes"/>
      <point x="330" y="502"/>
      <point x="345" y="492"/>
      <point x="345" y="441" type="curve" smooth="yes"/>
      <point x="345" y="45" type="line" smooth="yes"/>
      <point x="345" y="13"/>
      <point x="365" y="-11"/>
    </contour>
    <contour>
      <point x="160" y="228" type="curve" smooth="yes"/>
      <point x="147" y="228"/>
      <point x="130" y="237"/>
      <point x="130" y="256" type="curve" smooth="yes"/>
      <point x="130" y="273"/>
      <point x="142" y="286"/>
      <point x="158" y="286" type="curve" smooth="yes"/>
      <point x="173" y="286"/>
      <point x="188" y="275"/>
      <point x="188" y="257" type="curve" smooth="yes"/>
      <point x="188" y="239"/>
      <point x="174" y="228"/>
    </contour>
    <contour>
      <point x="408" y="137" type="line"/>
      <point x="408" y="257"/>
      <point x="303" y="393"/>
      <point x="168" y="393" type="curve" smooth="yes"/>
      <point x="67" y="393"/>
      <point x="21" y="322"/>
      <point x="21" y="256" type="curve" smooth="yes"/>
      <point x="21" y="178"/>
      <point x="85" y="132"/>
      <point x="148" y="132" type="curve" smooth="yes"/>
      <point x="216" y="132"/>
      <point x="261" y="184"/>
      <point x="261" y="238" type="curve" smooth="yes"/>
      <point x="261" y="286"/>
      <point x="226" y="340"/>
      <point x="178" y="340" type="curve"/>
      <point x="201" y="275" type="line"/>
      <point x="213" y="280"/>
      <point x="224" y="282"/>
      <point x="235" y="282" type="curve" smooth="yes"/>
      <point x="301" y="282"/>
      <point x="345" y="201"/>
      <point x="345" y="117" type="curve"/>
    </contour>
  </outline>
</glyph>
<glyph name="bNukta" format="1">
  <advance width="0"/>
  <unicode hex="09BC"/>
  <outline>
    <contour>
      <point x="1" y="-161" type="curve" smooth="yes"/>
      <point x="36" y="-161"/>
      <point x="80" y="-138"/>
      <point x="80" y="-84" type="curve" smooth="yes"/>
      <point x="80" y="-42"/>
      <point x="47" y="0"/>
      <point x="-3" y="0" type="curve" smooth="yes"/>
      <point x="-45" y="0"/>
      <point x="-81" y="-32"/>
      <point x="-81" y="-78" type="curve" smooth="yes"/>
      <point x="-81" y="-127"/>
      <point x="-41" y="-161"/>
    </contour>
    <contour>
      <point x="1" y="-97" type="curve" smooth="yes"/>
      <point x="-8" y="-97"/>
      <point x="-18" y="-90"/>
      <point x="-18" y="-79" type="curve" smooth="yes"/>
      <point x="-18" y="-67"/>
      <point x="-8" y="-61"/>
      <point x="0" y="-61" type="curve" smooth="yes"/>
      <point x="10" y="-61"/>
      <point x="18" y="-69"/>
      <point x="18" y="-81" type="curve" smooth="yes"/>
      <point x="18" y="-93"/>
      <point x="8" y="-97"/>
    </contour>
  </outline>
</glyph>
<glyph name="bSignAa" format="1">
  <advance width="220"/>
  <unicode hex="09BE"/>
  <outline>
    <contour>
      <point x="106" y="-11" type="curve" smooth="yes"/>
      <point x="133" y="-11"/>
      <point x="154" y="13"/>
      <point x="154" y="45" type="curve" smooth="yes"/>
      <point x="154" y="435" type="line" smooth="yes"/>
      <point x="154" y="491"/>
      <point x="154" y="502"/>
      <point x="188" y="502" type="curve" smooth="yes"/>
      <point x="220" y="502" type="line" smooth="yes"/>
      <point x="246" y="502"/>
      <point x="266" y="520"/>
      <point x="266" y="545" type="curve" smooth="yes"/>
      <point x="266" y="569"/>
      <point x="246" y="587"/>
      <point x="220" y="587" type="curve" smooth="yes"/>
      <point x="165" y="587" type="line" smooth="yes"/>
      <point x="109" y="587"/>
      <point x="75" y="557"/>
      <point x="75" y="502" type="curve"/>
      <point x="96" y="502" type="line"/>
      <point x="96" y="558"/>
      <point x="59" y="587"/>
      <point x="20" y="587" type="curve" smooth="yes"/>
      <point x="0" y="587" type="line" smooth="yes"/>
      <point x="-26" y="587"/>
      <point x="-46" y="569"/>
      <point x="-46" y="545" type="curve" smooth="yes"/>
      <point x="-46" y="520"/>
      <point x="-26" y="502"/>
      <point x="0" y="502" type="curve" smooth="yes"/>
      <point x="27" y="502" type="line" smooth="yes"/>
      <point x="49" y="502"/>
      <point x="59" y="492"/>
      <point x="59" y="441" type="curve" smooth="yes"/>
      <point x="59" y="45" type="line" smooth="yes"/>
      <point x="59" y="13"/>
      <point x="79" y="-11"/>
    </contour>
  </outline>
</glyph>
<glyph name="bSignUu" format="1">
  <advance width="0"/>
  <unicode hex="09C2"/>
  <outline>
    <contour>
      <point x="82" y="-249" type="curve" smooth="yes"/>
      <point x="107" y="-249"/>
      <point x="121" y="-235"/>
      <point x="121" y="-211" type="curve" smooth="yes"/>
      <point x="121" y="-193"/>
      <point x="107" y="-178"/>
      <point x="80" y="-163" type="curve" smooth="yes"/>
      <point x="-18" y="-107"/>
      <point x="-13" y="-70"/>
      <point x="-76" y="-70" type="curve" smooth="yes"/>
      <point x="-139" y="-70"/>
      <point x="-158" y="-108"/>
      <point x="-209" y="-108" type="curve" smooth="yes"/>
      <point x="-231" y="-108"/>
      <point x="-246" y="-101"/>
      <point x="-246" y="-85" type="curve" smooth="yes"/>
      <point x="-246" y="-64"/>
      <point x="-221" y="-56"/>
      <point x="-193" y="-55" type="curve" smooth="yes"/>
      <point x="-172" y="-54"/>
      <point x="-148" y="-56"/>
      <point x="-134" y="-56" type="curve" smooth="yes"/>
      <point x="-83" y="-56"/>
      <point x="-66" y="-20"/>
      <point x="-66" y="28" type="curve" smooth="yes"/>
      <point x="-66" y="61" type="line" smooth="yes"/>
      <point x="-66" y="83"/>
      <point x="-71" y="122"/>
      <point x="-113" y="122" type="curve" smooth="yes"/>
      <point x="-154" y="122"/>
      <point x="-161" y="84"/>
      <point x="-161" y="61" type="curve" smooth="yes"/>
      <point x="-161" y="45" type="line" smooth="yes"/>
      <point x="-161" y="17"/>
      <point x="-174" y="21"/>
      <point x="-198" y="21" type="curve" smooth="yes"/>
      <point x="-212" y="21"/>
      <point x="-220" y="23"/>
      <point x="-233" y="23" type="curve" smooth="yes"/>
      <point x="-289" y="23"/>
      <point x="-340" y="-20"/>
      <point x="-340" y="-87" type="curve" smooth="yes"/>
      <point x="-340" y="-151"/>
      <point x="-293" y="-208"/>
      <point x="-215" y="-208" type="curve" smooth="yes"/>
      <point x="-146" y="-208"/>
      <point x="-120" y="-163"/>
      <point x="-86" y="-163" type="curve" smooth="yes"/>
      <point x="-40" y="-163"/>
      <point x="19" y="-249"/>
    </contour>
  </outline>
</glyph>
<glyph name="bSignVocalicRr" format="1">
  <advance width="0"/>
  <unicode hex="09C4"/>
  <outline>
    <contour>
      <point x="-53" y="-338" type="curve" smooth="yes"/>
      <point x="-38" y="-338"/>
      <point x="-25" y="-330"/>
      <point x="-25" y="-305" type="curve" smooth="yes"/>
      <point x="-25" y="-276"/>
      <point x="-40" y="-263"/>
      <point x="-62" y="-249" type="curve" smooth="yes"/>
      <point x="-204" y="-154" type="line"/>
      <point x="-210" y="-193" type="line"/>
      <point x="-108" y="-159" type="line"/>
      <point x="-191" y="-101" type="line"/>
      <point x="-253" y="-123" type="line" smooth="yes"/>
      <point x="-276" y="-131"/>
      <point x="-288" y="-145"/>
      <point x="-288" y="-162" type="curve" smooth="yes"/>
      <point x="-288" y="-196"/>
      <point x="-263" y="-206"/>
      <point x="-233" y="-226" type="curve" smooth="yes"/>
      <point x="-170" y="-268"/>
      <point x="-80" y="-338"/>
    </contour>
    <contour>
      <point x="-63" y="-193" type="curve" smooth="yes"/>
      <point x="-48" y="-193"/>
      <point x="-35" y="-185"/>
      <point x="-35" y="-160" type="curve" smooth="yes"/>
      <point x="-35" y="-131"/>
      <point x="-50" y="-118"/>
      <point x="-72" y="-104" type="curve" smooth="yes"/>
      <point x="-213" y="-9" type="line"/>
      <point x="-219" y="-48" type="line"/>
      <point x="-101" y="-9" type="line" smooth="yes"/>
      <point x="-80" y="-2"/>
      <point x="-66" y="18"/>
      <point x="-66" y="40" type="curve" smooth="yes"/>
      <point x="-66" y="125" type="line" smooth="yes"/>
      <point x="-66" y="157"/>
      <point x="-87" y="181"/>
      <point x="-114" y="181" type="curve" smooth="yes"/>
      <point x="-141" y="181"/>
      <point x="-161" y="157"/>
      <point x="-161" y="125" type="curve" smooth="yes"/>
      <point x="-161" y="12" type="line"/>
      <point x="-132" y="67" type="line"/>
      <point x="-263" y="22" type="line" smooth="yes"/>
      <point x="-286" y="14"/>
      <point x="-298" y="0"/>
      <point x="-298" y="-17" type="curve" smooth="yes"/>
      <point x="-298" y="-51"/>
      <point x="-273" y="-61"/>
      <point x="-243" y="-81" type="curve" smooth="yes"/>
      <point x="-180" y="-123"/>
      <point x="-90" y="-193"/>
    </contour>
  </outline>
</glyph>
<glyph name="bVocalicLl" format="1">
  <advance width="700"/>
  <unicode hex="09E1"/>
  <outline>
    <contour>
      <point x="548" y="-218" type="curve" smooth="yes"/>
      <point x="623" y="-218"/>
      <point x="754" y="-138"/>
      <point x="754" y="27" type="curve" smooth="yes"/>
      <point x="754" y="147"/>
      <point x="684" y="234"/>
      <point x="510" y="297" type="curve"/>
      <point x="509" y="192" type="line"/>
      <point x="606" y="155"/>
      <point x="665" y="91"/>
      <point x="665" y="1" type="curve" smooth="yes"/>
      <point x="665" y="-65"/>
      <point x="633" y="-110"/>
      <point x="586" y="-135" type="curve"/>
      <point x="595" y="-156" type="line"/>
      <point x="617" y="-136"/>
      <point x="638" y="-89"/>
      <point x="638" y="-45" type="curve" smooth="yes"/>
      <point x="638" y="39"/>
      <point x="562" y="122"/>
      <point x="468" y="123" type="curve"/>
      <point x="479" y="84" type="line"/>
      <point x="523" y="140"/>
      <point x="533" y="203"/>
      <point x="533" y="244" type="curve" smooth="yes"/>
      <point x="533" y="413"/>
      <point x="404" y="473"/>
      <point x="263" y="516" type="curve" smooth="yes"/>
      <point x="178" y="542"/>
      <point x="139" y="565"/>
      <point x="115" y="638" type="curve" smooth="yes"/>
      <point x="104" y="672"/>
      <point x="96" y="693"/>
      <point x="64" y="693" type="curve" smooth="yes"/>
      <point x="36" y="693"/>
      <point x="22" y="667"/>
      <point x="22" y="631" type="curve" smooth="yes"/>
      <point x="22" y="489"/>
      <point x="167" y="440"/>
      <point x="234" y="418" type="curve" smooth="yes"/>
      <point x="335" y="385"/>
      <point x="437" y="333"/>
      <point x="437" y="233" type="curve" smooth="yes"/>
      <point x="437" y="186"/>
      <point x="415" y="122"/>
      <point x="343" y="84" type="curve"/>
      <point x="363" y="76" type="line"/>
      <point x="389" y="99"/>
      <point x="406" y="148"/>
      <point x="406" y="187" type="curve" smooth="yes"/>
      <point x="406" y="272"/>
      <point x="325" y="364"/>
      <point x="206" y="364" type="curve" smooth="yes"/>
      <point x="86" y="364"/>
      <point x="14" y="271"/>
      <point x="14" y="171" type="curve" smooth="yes"/>
      <point x="14" y="71"/>
      <point x="85" y="-3"/>
      <point x="160" y="-3" type="curve" smooth="yes"/>
      <point x="221" y="-3"/>
      <point x="262" y="47"/>
      <point x="262" y="96" type="curve" smooth="yes"/>
      <point x="262" y="141"/>
      <point x="227" y="184"/>
      <point x="175" y="184" type="curve" smooth="yes"/>
      <point x="125" y="184"/>
      <point x="84" y="145"/>
      <point x="84" y="102" type="curve" smooth="yes"/>
      <point x="84" y="87"/>
      <point x="89" y="71"/>
      <point x="102" y="56" type="curve"/>
      <point x="120" y="66" type="line"/>
      <point x="100" y="90"/>
      <point x="92" y="117"/>
      <point x="92" y="143" type="curve" smooth="yes"/>
      <point x="92" y="208"/>
      <point x="146" y="268"/>
      <point x="213" y="268" type="curve" smooth="yes"/>
      <point x="277" y="268"/>
      <point x="310" y="213"/>
      <point x="310" y="151" type="curve" smooth="yes"/>
      <point x="310" y="64"/>
      <point x="246" y="24"/>
      <point x="246" y="-65" type="curve" smooth="yes"/>
      <point x="246" y="-153"/>
      <point x="308" y="-210"/>
      <point x="387" y="-210" type="curve" smooth="yes"/>
      <point x="458" y="-210"/>
      <point x="497" y="-165"/>
      <point x="497" y="-116" type="curve" smooth="yes"/>
      <point x="497" y="-69"/>
      <point x="462" y="-26"/>
      <point x="408" y="-26" type="curve" smooth="yes"/>
      <point x="355" y="-26"/>
      <point x="320" y="-67"/>
      <point x="320" y="-109" type="curve" smooth="yes"/>
      <point x="320" y="-130"/>
      <point x="329" y="-151"/>
      <point x="352" y="-168" type="curve"/>
      <point x="363" y="-147" type="line"/>
      <point x="335" y="-123"/>
      <point x="324" y="-95"/>
      <point x="324" y="-70" type="curve" smooth="yes"/>
      <point x="324" y="-21"/>
      <point x="365" y="27"/>
      <point x="436" y="27" type="curve" smooth="yes"/>
      <point x="499" y="27"/>
      <point x="550" y="-11"/>
      <point x="550" y="-69" type="curve" smooth="yes"/>
      <point x="550" y="-125"/>
      <point x="504" y="-163"/>
      <point x="504" y="-191" type="curve" smooth="yes"/>
      <point x="504" y="-207"/>
      <point x="520" y="-218"/>
    </contour>
    <contour>
      <point x="157" y="61" type="curve" smooth="yes"/>
      <point x="141" y="61"/>
      <point x="130" y="72"/>
      <point x="130" y="86" type="curve" smooth="yes"/>
      <point x="130" y="99"/>
      <point x="140" y="113"/>
      <point x="157" y="113" type="curve" smooth="yes"/>
      <point x="172" y="113"/>
      <point x="183" y="101"/>
      <point x="183" y="86" type="curve" smooth="yes"/>
      <point x="183" y="72"/>
      <point x="173" y="61"/>
    </contour>
    <contour>
      <point x="406" y="-145" type="curve" smooth="yes"/>
      <point x="391" y="-145"/>
      <point x="382" y="-134"/>
      <point x="382" y="-122" type="curve" smooth="yes"/>
      <point x="382" y="-111"/>
      <point x="390" y="-98"/>
      <point x="405" y="-98" type="curve" smooth="yes"/>
      <point x="419" y="-98"/>
      <point x="430" y="-108"/>
      <point x="430" y="-122" type="curve" smooth="yes"/>
      <point x="430" y="-135"/>
      <point x="421" y="-145"/>
    </contour>
  </outline>
</glyph>
<glyph name="bSignVocalicL" format="1">
  <advance width="0"/>
  <unicode hex="09E2"/>
  <outline>
    <contour>
      <point x="-169" y="-264" type="curve" smooth="yes"/>
      <point x="-122" y="-264"/>
      <point x="-41" y="-211"/>
      <point x="-41" y="-118" type="curve" smooth="yes"/>
      <point x="-41" y="-21"/>
      <point x="-104" y="0"/>
      <point x="-174" y="25" type="curve" smooth="yes"/>
      <point x="-214" y="39"/>
      <point x="-256" y="47"/>
      <point x="-265" y="71" type="curve" smooth="yes"/>
      <point x="-273" y="91"/>
      <point x="-284" y="100"/>
      <point x="-303" y="100" type="curve" smooth="yes"/>
      <point x="-322" y="100"/>
      <point x="-338" y="85"/>
      <point x="-338" y="60" type="curve" smooth="yes"/>
      <point x="-338" y="5"/>
      <point x="-262" y="-17"/>
      <point x="-218" y="-27" type="curve" smooth="yes"/>
      <point x="-140" y="-44"/>
      <point x="-102" y="-81"/>
      <point x="-102" y="-122" type="curve" smooth="yes"/>
      <point x="-102" y="-143"/>
      <point x="-110" y="-183"/>
      <point x="-156" y="-202" type="curve"/>
      <point x="-162" y="-232" type="line"/>
      <point x="-112" y="-201"/>
      <point x="-112" y="-163"/>
      <point x="-112" y="-148" type="curve" smooth="yes"/>
      <point x="-112" y="-103"/>
      <point x="-162" y="-53"/>
      <point x="-221" y="-53" type="curve" smooth="yes"/>
      <point x="-301" y="-53"/>
      <point x="-339" y="-112"/>
      <point x="-339" y="-158" type="curve" smooth="yes"/>
      <point x="-339" y="-218"/>
      <point x="-301" y="-260"/>
      <point x="-253" y="-260" type="curve" smooth="yes"/>
      <point x="-216" y="-260"/>
      <point x="-192" y="-231"/>
      <point x="-192" y="-199" type="curve" smooth="yes"/>
      <point x="-192" y="-165"/>
      <point x="-219" y="-140"/>
      <point x="-253" y="-140" type="curve" smooth="yes"/>
      <point x="-289" y="-140"/>
      <point x="-311" y="-168"/>
      <point x="-311" y="-195" type="curve" smooth="yes"/>
      <point x="-311" y="-209"/>
      <point x="-305" y="-223"/>
      <point x="-292" y="-233" type="curve"/>
      <point x="-279" y="-202" type="line"/>
      <point x="-283" y="-191"/>
      <point x="-285" y="-182"/>
      <point x="-285" y="-173" type="curve" smooth="yes"/>
      <point x="-285" y="-137"/>
      <point x="-248" y="-121"/>
      <point x="-226" y="-121" type="curve" smooth="yes"/>
      <point x="-190" y="-121"/>
      <point x="-172" y="-146"/>
      <point x="-172" y="-171" type="curve" smooth="yes"/>
      <point x="-172" y="-207"/>
      <point x="-189" y="-225"/>
      <point x="-189" y="-242" type="curve" smooth="yes"/>
      <point x="-189" y="-250"/>
      <point x="-186" y="-264"/>
    </contour>
    <contour>
      <point x="-256" y="-211" type="curve" smooth="yes"/>
      <point x="-267" y="-211"/>
      <point x="-272" y="-202"/>
      <point x="-272" y="-195" type="curve" smooth="yes"/>
      <point x="-272" y="-186"/>
      <point x="-265" y="-179"/>
      <point x="-256" y="-179" type="curve" smooth="yes"/>
      <point x="-248" y="-179"/>
      <point x="-240" y="-185"/>
      <point x="-240" y="-195" type="curve" smooth="yes"/>
      <point x="-240" y="-204"/>
      <point x="-246" y="-211"/>
    </contour>
  </outline>
</glyph>
<glyph name="bFive" format="1">
  <advance width="524"/>
  <unicode hex="09EB"/>
  <outline>
    <contour>
      <point x="279" y="-12" type="curve" smooth="yes"/>
      <point x="387" y="-12"/>
      <point x="496" y="38"/>
      <point x="496" y="112" type="curve" smooth="yes"/>
      <point x="496" y="137"/>
      <point x="484" y="154"/>
      <point x="451" y="154" type="curve" smooth="yes"/>
      <point x="408" y="154"/>
      <point x="361" y="172"/>
      <point x="361" y="238" type="curve" smooth="yes"/>
      <point x="361" y="366"/>
      <point x="511" y="423"/>
      <point x="511" y="469" type="curve" smooth="yes"/>
      <point x="511" y="487"/>
      <point x="498" y="501"/>
      <point x="471" y="501" type="curve" smooth="yes"/>
      <point x="428" y="501"/>
      <point x="400" y="466"/>
      <point x="338" y="466" type="curve" smooth="yes"/>
      <point x="293" y="466"/>
      <point x="258" y="485"/>
      <point x="258" y="515" type="curve" smooth="yes"/>
      <point x="258" y="531"/>
      <point x="268" y="541"/>
      <point x="268" y="556" type="curve" smooth="yes"/>
      <point x="268" y="577"/>
      <point x="249" y="587"/>
      <point x="229" y="587" type="curve" smooth="yes"/>
      <point x="207" y="587"/>
      <point x="185" y="574"/>
      <point x="164" y="553" type="curve" smooth="yes"/>
      <point x="133" y="523"/>
      <point x="28" y="408"/>
      <point x="28" y="244" type="curve" smooth="yes"/>
      <point x="28" y="72"/>
      <point x="138" y="-12"/>
    </contour>
    <contour>
      <point x="293" y="73" type="curve" smooth="yes"/>
      <point x="212" y="73"/>
      <point x="126" y="127"/>
      <point x="126" y="246" type="curve" smooth="yes"/>
      <point x="126" y="336"/>
      <point x="189" y="431"/>
      <point x="231" y="476" type="curve"/>
      <point x="196" y="510" type="line"/>
      <point x="194" y="424"/>
      <point x="255" y="387"/>
      <point x="329" y="387" type="curve" smooth="yes"/>
      <point x="357" y="387"/>
      <point x="387" y="394"/>
      <point x="415" y="409" type="curve"/>
      <point x="368" y="446" type="line"/>
      <point x="319" y="397"/>
      <point x="252" y="302"/>
      <point x="252" y="228" type="curve" smooth="yes"/>
      <point x="252" y="121"/>
      <point x="341" y="76"/>
      <point x="437" y="76" type="curve"/>
      <point x="397" y="106" type="line"/>
      <point x="378" y="92"/>
      <point x="330" y="73"/>
    </contour>
  </outline>
</glyph>
<glyph name="bNine" format="1">
  <advance width="552"/>
  <unicode hex="09EF"/>
  <outline>
    <contour>
      <point x="343" y="-12" type="curve" smooth="yes"/>
      <point x="418" y="-12"/>
      <point x="535" y="106"/>
      <point x="535" y="261" type="curve" smooth="yes"/>
      <point x="535" y="372"/>
      <point x="475" y="455"/>
      <point x="354" y="487" type="curve" smooth="yes"/>
      <point x="264" y="511"/>
      <point x="211" y="510"/>
      <point x="160" y="548" type="curve" smooth="yes"/>
      <point x="122" y="577"/>
      <point x="114" y="589"/>
      <point x="83" y="589" type="curve" smooth="yes"/>
      <point x="62" y="589"/>
      <point x="44" y="577"/>
      <point x="44" y="551" type="curve" smooth="yes"/>
      <point x="44" y="474"/>
      <point x="181" y="437"/>
      <point x="242" y="426" type="curve" smooth="yes"/>
      <point x="348" y="406"/>
      <point x="444" y="356"/>
      <point x="444" y="259" type="curve" smooth="yes"/>
      <point x="444" y="212"/>
      <point x="422" y="155"/>
      <point x="369" y="85" type="curve"/>
      <point x="399" y="43" type="line"/>
      <point x="426" y="91"/>
      <point x="437" y="134"/>
      <point x="437" y="172" type="curve" smooth="yes"/>
      <point x="437" y="290"/>
      <point x="337" y="358"/>
      <point x="227" y="358" type="curve" smooth="yes"/>
      <point x="108" y="358"/>
      <point x="29" y="268"/>
      <point x="29" y="163" type="curve" smooth="yes"/>
      <point x="29" y="73"/>
      <point x="103" y="-2"/>
      <point x="195" y="-2" type="curve" smooth="yes"/>
      <point x="250" y="-2"/>
      <point x="294" y="43"/>
      <point x="294" y="96" type="curve" smooth="yes"/>
      <point x="294" y="149"/>
      <point x="259" y="191"/>
      <point x="200" y="191" type="curve" smooth="yes"/>
      <point x="145" y="191"/>
      <point x="103" y="146"/>
      <point x="103" y="102" type="curve" smooth="yes"/>
      <point x="103" y="73"/>
      <point x="120" y="44"/>
      <point x="163" y="27" type="curve"/>
      <point x="163" y="88" type="line"/>
      <point x="138" y="112"/>
      <point x="127" y="138"/>
      <point x="127" y="162" type="curve" smooth="yes"/>
      <point x="127" y="213"/>
      <point x="186" y="256"/>
      <point x="242" y="256" type="curve" smooth="yes"/>
      <point x="318" y="256"/>
      <point x="359" y="215"/>
      <point x="359" y="158" type="curve" smooth="yes"/>
      <point x="359" y="75"/>
      <point x="300" y="50"/>
      <point x="300" y="20" type="curve" smooth="yes"/>
      <point x="300" y="5"/>
      <point x="310" y="-12"/>
    </contour>
    <contour>
      <point x="196" y="71" type="curve" smooth="yes"/>
      <point x="180" y="71"/>
      <point x="169" y="81"/>
      <point x="169" y="94" type="curve" smooth="yes"/>
      <point x="169" y="111"/>
      <point x="183" y="118"/>
      <point x="194" y="118" type="curve" smooth="yes"/>
      <point x="205" y="118"/>
      <point x="218" y="109"/>
      <point x="218" y="94" type="curve" smooth="yes"/>
      <point x="218" y="80"/>
      <point x="207" y="71"/>
    </contour>
  </outline>
</glyph>
<glyph name="bRupeesign" format="1">
  <advance width="488"/>
  <unicode hex="09F3"/>
  <outline>
    <contour>
      <point x="185" y="-12" type="curve" smooth="yes"/>
      <point x="312" y="-12"/>
      <point x="440" y="181"/>
      <point x="440" y="318" type="curve" smooth="yes"/>
      <point x="440" y="374"/>
      <point x="407" y="442"/>
      <point x="325" y="442" type="curve" smooth="yes"/>
      <point x="262" y="442"/>
      <point x="207" y="400"/>
      <point x="207" y="331" type="curve" smooth="yes"/>
      <point x="207" y="271"/>
      <point x="260" y="221"/>
      <point x="319" y="221" type="curve" smooth="yes"/>
      <point x="347" y="221"/>
      <point x="377" y="233"/>
      <point x="403" y="262" type="curve"/>
      <point x="322" y="251" type="line"/>
      <point x="311" y="180"/>
      <point x="252" y="88"/>
      <point x="208" y="88" type="curve" smooth="yes"/>
      <point x="167" y="88"/>
      <point x="161" y="112"/>
      <point x="161" y="164" type="curve" smooth="yes"/>
      <point x="161" y="666" type="line" smooth="yes"/>
      <point x="161" y="710"/>
      <point x="146" y="795"/>
      <point x="70" y="795" type="curve" smooth="yes"/>
      <point x="53" y="795"/>
      <point x="24" y="785"/>
      <point x="24" y="754" type="curve" smooth="yes"/>
      <point x="24" y="716"/>
      <point x="66" y="719"/>
      <point x="66" y="690" type="curve" smooth="yes"/>
      <point x="66" y="118" type="line" smooth="yes"/>
      <point x="66" y="74"/>
      <point x="80" y="-12"/>
    </contour>
    <contour>
      <point x="319" y="295" type="curve" smooth="yes"/>
      <point x="302" y="295"/>
      <point x="289" y="308"/>
      <point x="289" y="323" type="curve" smooth="yes"/>
      <point x="289" y="340"/>
      <point x="300" y="353"/>
      <point x="316" y="353" type="curve" smooth="yes"/>
      <point x="336" y="353"/>
      <point x="347" y="337"/>
      <point x="347" y="322" type="curve" smooth="yes"/>
      <point x="347" y="308"/>
      <point x="338" y="295"/>
    </contour>
    <contour>
      <point x="488" y="502" type="line" smooth="yes"/>
      <point x="514" y="502"/>
      <point x="534" y="520"/>
      <point x="534" y="545" type="curve" smooth="yes"/>
      <point x="534" y="569"/>
      <point x="514" y="587"/>
      <point x="488" y="587" type="curve" smooth="yes"/>
      <point x="0" y="587" type="line" smooth="yes"/>
      <point x="-26" y="587"/>
      <point x="-46" y="569"/>
      <point x="-46" y="545" type="curve" smooth="yes"/>
      <point x="-46" y="521"/>
      <point x="-26" y="502"/>
      <point x="0" y="502" type="curve" smooth="yes"/>
    </contour>
  </outline>
</glyph>
<glyph name="ZWNJ" format="1">
  <advance width="0"/>
  <unicode hex="200C"/>
  <outline>
    <contour>
      <point x="0" y="791" type="line" smooth="yes"/>
      <point x="0" y="819"/>
      <point x="19" y="841"/>
      <point x="48" y="841" type="curve" smooth="yes"/>
      <point x="76" y="841"/>
      <point x="95" y="817"/>
      <point x="95" y="790" type="curve" smooth="yes"/>
      <point x="95" y="-193" type="line" smooth="yes"/>
      <point x="95" y="-223"/>
      <point x="76" y="-243"/>
      <point x="48" y="-243" type="curve" smooth="yes"/>
      <point x="19" y="-243"/>
      <point x="0" y="-221"/>
      <point x="0" y="-193" type="curve" smooth="yes"/>
    </contour>
  </outline>
</glyph>
<glyph name="emdash" format="1">
  <advance width="781"/>
  <unicode hex="2014"/>
  <outline>
    <contour>
      <point x="677" y="182" type="line" smooth="yes"/>
      <point x="701" y="182"/>
      <point x="721" y="200"/>
      <point x="721" y="223" type="curve" smooth="yes"/>
      <point x="721" y="246"/>
      <point x="701" y="264"/>
      <point x="677" y="264" type="curve" smooth="yes"/>
      <point x="104" y="264" type="line" smooth="yes"/>
      <point x="80" y="264"/>
      <point x="60" y="246"/>
      <point x="60" y="223" type="curve" smooth="yes"/>
      <point x="60" y="200"/>
      <point x="80" y="182"/>
      <point x="104" y="182" type="curve" smooth="yes"/>
    </contour>
  </outline>
</glyph>
<glyph name="quoteleft" format="1">
  <advance width="237"/>
  <unicode hex="2018"/>
  <outline>
    <contour>
      <point x="180" y="350" type="curve" smooth="yes"/>
      <point x="199" y="363"/>
      <point x="205" y="390"/>
      <point x="191" y="409" type="curve" smooth="yes"/>
      <point x="169" y="436"/>
      <point x="160" y="473"/>
      <point x="160" y="508" type="curve" smooth="yes"/>
      <point x="160" y="521"/>
      <point x="160" y="534"/>
      <point x="162" y="542" type="curve" smooth="yes"/>
      <point x="170" y="563"/>
      <point x="153" y="588"/>
      <point x="131" y="596" type="curve" smooth="yes"/>
      <point x="108" y="602"/>
      <point x="79" y="592"/>
      <point x="72" y="570" type="curve" smooth="yes"/>
      <point x="66" y="556"/>
      <point x="62" y="533"/>
      <point x="62" y="508" type="curve" smooth="yes"/>
      <point x="62" y="453"/>
      <point x="85" y="398"/>
      <point x="117" y="358" type="curve" smooth="yes"/>
      <point x="132" y="340"/>
      <point x="161" y="337"/>
    </contour>
  </outline>
</glyph>
<glyph name="dagger" format="1">
  <advance width="497"/>
  <unicode hex="2020"/>
  <outline>
    <contour>
      <point x="248" y="-13" type="curve" smooth="yes"/>
      <point x="272" y="-13"/>
      <point x="297" y="5"/>
      <point x="297" y="29" type="curve" smooth="yes"/>
      <point x="297" y="507" type="line" smooth="yes"/>
      <point x="297" y="530"/>
      <point x="272" y="549"/>
      <point x="248" y="549" type="curve" smooth="yes"/>
      <point x="224" y="549"/>
      <point x="199" y="530"/>
      <point x="199" y="507" type="curve" smooth="yes"/>
      <point x="199" y="29" type="line" smooth="yes"/>
      <point x="199" y="5"/>
      <point x="224" y="-13"/>
    </contour>
    <contour>
      <point x="407" y="340" type="line" smooth="yes"/>
      <point x="431" y="340"/>
      <point x="451" y="358"/>
      <point x="451" y="381" type="curve" smooth="yes"/>
      <point x="451" y="404"/>
      <point x="431" y="422"/>
      <point x="407" y="422" type="curve" smooth="yes"/>
      <point x="90" y="422" type="line" smooth="yes"/>
      <point x="66" y="422"/>
      <point x="46" y="404"/>
      <point x="46" y="381" type="curve" smooth="yes"/>
      <point x="46" y="358"/>
      <point x="66" y="340"/>
      <point x="90" y="340" type="curve" smooth="yes"/>
    </contour>
  </outline>
</glyph>
<glyph name="uni2126" format="1">
  <advance width="642"/>
  <unicode hex="2126"/>
  <outline>
    <contour>
      <point x="211" y="-1" type="curve" smooth="yes"/>
      <point x="228" y="-18"/>
      <point x="257" y="-17"/>
      <point x="274" y="1" type="curve" smooth="yes"/>
      <point x="290" y="16"/>
      <point x="290" y="43"/>
      <point x="273" y="59" type="curve" smooth="yes"/>
      <point x="204" y="122"/>
      <point x="135" y="200"/>
      <point x="135" y="299" type="curve" smooth="yes"/>
      <point x="135" y="395"/>
      <point x="203" y="474"/>
      <point x="323" y="474" type="curve" smooth="yes"/>
      <point x="432" y="474"/>
      <point x="507" y="395"/>
      <point x="507" y="299" type="curve" smooth="yes"/>
      <point x="507" y="203"/>
      <point x="446" y="122"/>
      <point x="382" y="58" type="curve" smooth="yes"/>
      <point x="366" y="40"/>
      <point x="368" y="13"/>
      <point x="385" y="-1" type="curve" smooth="yes"/>
      <point x="402" y="-17"/>
      <point x="432" y="-17"/>
      <point x="448" y="0" type="curve" smooth="yes"/>
      <point x="526" y="78"/>
      <point x="605" y="181"/>
      <point x="605" y="299" type="curve" smooth="yes"/>
      <point x="605" y="446"/>
      <point x="484" y="557"/>
      <point x="323" y="557" type="curve" smooth="yes"/>
      <point x="147" y="557"/>
      <point x="37" y="446"/>
      <point x="37" y="299" type="curve"/>
      <point x="37" y="176"/>
      <point x="124" y="76"/>
    </contour>
    <contour>
      <point x="234" y="-13" type="line" smooth="yes"/>
      <point x="258" y="-13"/>
      <point x="278" y="5"/>
      <point x="278" y="29" type="curve" smooth="yes"/>
      <point x="278" y="51"/>
      <point x="258" y="69"/>
      <point x="234" y="69" type="curve" smooth="yes"/>
      <point x="81" y="69" type="line" smooth="yes"/>
      <point x="57" y="69"/>
      <point x="37" y="51"/>
      <point x="37" y="29" type="curve" smooth="yes"/>
      <point x="37" y="5"/>
      <point x="57" y="-13"/>
      <point x="81" y="-13" type="curve" smooth="yes"/>
    </contour>
    <contour>
      <point x="576" y="-13" type="line" smooth="yes"/>
      <point x="600" y="-13"/>
      <point x="620" y="5"/>
      <point x="620" y="29" type="curve" smooth="yes"/>
      <point x="620" y="51"/>
      <point x="600" y="69"/>
      <point x="576" y="69" type="curve" smooth="yes"/>
      <point x="425" y="69" type="line" smooth="yes"/>
      <point x="401" y="69"/>
      <point x="381" y="51"/>
      <point x="381" y="29" type="curve" smooth="yes"/>
      <point x="381" y="5"/>
      <point x="401" y="-13"/>
      <point x="425" y="-13" type="curve" smooth="yes"/>
    </contour>
  </outline>
</glyph>
<glyph name="partialdiff" format="1">
  <advance width="574"/>
  <unicode hex="2202"/>
  <outline>
    <contour>
      <point x="265" y="-16" type="curve" smooth="yes"/>
      <point x="321" y="-16"/>
      <point x="376" y="4"/>
      <point x="421" y="45" type="curve" smooth="yes"/>
      <point x="469" y="92"/>
      <point x="516" y="199"/>
      <point x="516" y="311" type="curve" smooth="yes"/>
      <point x="516" y="393"/>
      <point x="490" y="470"/>
      <point x="451" y="506" type="curve" smooth="yes"/>
      <point x="418" y="536"/>
      <point x="374" y="552"/>
      <point x="328" y="552" type="curve" smooth="yes"/>
      <point x="278" y="552"/>
      <point x="225" y="531"/>
      <point x="188" y="497" type="curve" smooth="yes"/>
      <point x="171" y="482"/>
      <point x="171" y="455"/>
      <point x="187" y="438" type="curve" smooth="yes"/>
      <point x="204" y="422"/>
      <point x="233" y="421"/>
      <point x="250" y="437" type="curve" smooth="yes"/>
      <point x="271" y="455"/>
      <point x="300" y="470"/>
      <point x="328" y="470" type="curve" smooth="yes"/>
      <point x="350" y="470"/>
      <point x="372" y="461"/>
      <point x="387" y="446" type="curve" smooth="yes"/>
      <point x="414" y="421"/>
      <point x="418" y="363"/>
      <point x="418" y="311" type="curve" smooth="yes"/>
      <point x="418" y="228"/>
      <point x="395" y="140"/>
      <point x="357" y="105" type="curve" smooth="yes"/>
      <point x="332" y="82"/>
      <point x="299" y="67"/>
      <point x="265" y="67" type="curve" smooth="yes"/>
      <point x="208" y="67"/>
      <point x="170" y="106"/>
      <point x="170" y="153" type="curve" smooth="yes"/>
      <point x="170" y="216"/>
      <point x="223" y="267"/>
      <point x="312" y="267" type="curve" smooth="yes"/>
      <point x="349" y="267"/>
      <point x="396" y="261"/>
      <point x="443" y="251" type="curve" smooth="yes"/>
      <point x="466" y="246"/>
      <point x="490" y="260"/>
      <point x="496" y="282" type="curve" smooth="yes"/>
      <point x="501" y="303"/>
      <point x="486" y="325"/>
      <point x="463" y="331" type="curve" smooth="yes"/>
      <point x="408" y="344"/>
      <point x="355" y="350"/>
      <point x="312" y="350" type="curve" smooth="yes"/>
      <point x="159" y="350"/>
      <point x="72" y="259"/>
      <point x="72" y="153" type="curve" smooth="yes"/>
      <point x="72" y="60"/>
      <point x="152" y="-16"/>
    </contour>
  </outline>
</glyph>
<glyph name="minus" format="1">
  <advance width="537"/>
  <unicode hex="2212"/>
  <outline>
    <contour>
      <point x="445" y="211" type="line" smooth="yes"/>
      <point x="469" y="211"/>
      <point x="489" y="229"/>
      <point x="489" y="253" type="curve" smooth="yes"/>
      <point x="489" y="275"/>
      <point x="469" y="293"/>
      <point x="445" y="293" type="curve" smooth="yes"/>
      <point x="91" y="293" type="line" smooth="yes"/>
      <point x="67" y="293"/>
      <point x="47" y="275"/>
      <point x="47" y="253" type="curve" smooth="yes"/>
      <point x="47" y="229"/>
      <point x="67" y="211"/>
      <point x="91" y="211" type="curve" smooth="yes"/>
    </contour>
  </outline>
</glyph>
<glyph name="integral" format="1">
  <advance width="314"/>
  <unicode hex="222B"/>
  <outline>
    <contour>
      <point x="131" y="-10" type="curve" smooth="yes"/>
      <point x="155" y="-10"/>
      <point x="180" y="8"/>
      <point x="180" y="32" type="curve" smooth="yes"/>
      <point x="180" y="442" type="line" smooth="yes"/>
      <point x="180" y="487"/>
      <point x="204" y="517"/>
      <point x="276" y="520" type="curve" smooth="yes"/>
      <point x="300" y="521"/>
      <point x="319" y="542"/>
      <point x="318" y="564" type="curve" smooth="yes"/>
      <point x="317" y="586"/>
      <point x="295" y="604"/>
      <point x="272" y="603" type="curve" smooth="yes"/>
      <point x="124" y="596"/>
      <point x="82" y="533"/>
      <point x="82" y="442" type="curve" smooth="yes"/>
      <point x="82" y="32" type="line" smooth="yes"/>
      <point x="82" y="8"/>
      <point x="107" y="-10"/>
    </contour>
    <contour>
      <point x="-10" y="-188" type="curve" smooth="yes"/>
      <point x="137" y="-181"/>
      <point x="180" y="-118"/>
      <point x="180" y="-27" type="curve" smooth="yes"/>
      <point x="180" y="384" type="line" smooth="yes"/>
      <point x="180" y="407"/>
      <point x="155" y="425"/>
      <point x="131" y="425" type="curve" smooth="yes"/>
      <point x="107" y="425"/>
      <point x="82" y="407"/>
      <point x="82" y="384" type="curve" smooth="yes"/>
      <point x="82" y="-27" type="line" smooth="yes"/>
      <point x="82" y="-72"/>
      <point x="57" y="-101"/>
      <point x="-14" y="-105" type="curve" smooth="yes"/>
      <point x="-38" y="-106"/>
      <point x="-57" y="-127"/>
      <point x="-56" y="-149" type="curve" smooth="yes"/>
      <point x="-55" y="-171"/>
      <point x="-33" y="-189"/>
    </contour>
  </outline>
</glyph>
<glyph name="greaterequal" format="1">
  <advance width="537"/>
  <unicode hex="2265"/>
  <outline>
    <contour>
      <point x="429" y="278" type="line" smooth="yes"/>
      <point x="451" y="270"/>
      <point x="477" y="282"/>
      <point x="485" y="302" type="curve" smooth="yes"/>
      <point x="493" y="323"/>
      <point x="481" y="348"/>
      <point x="459" y="355" type="curve" smooth="yes"/>
      <point x="122" y="469" type="line" smooth="yes"/>
      <point x="100" y="476"/>
      <point x="74" y="465"/>
      <point x="66" y="444" type="curve" smooth="yes"/>
      <point x="58" y="423"/>
      <point x="70" y="399"/>
      <point x="92" y="391" type="curve" smooth="yes"/>
    </contour>
    <contour>
      <point x="445" y="42" type="line" smooth="yes"/>
      <point x="469" y="42"/>
      <point x="489" y="62"/>
      <point x="489" y="84" type="curve" smooth="yes"/>
      <point x="489" y="106"/>
      <point x="469" y="126"/>
      <point x="445" y="126" type="curve" smooth="yes"/>
      <point x="91" y="126" type="line" smooth="yes"/>
      <point x="67" y="126"/>
      <point x="47" y="106"/>
      <point x="47" y="84" type="curve" smooth="yes"/>
      <point x="47" y="62"/>
      <point x="67" y="42"/>
      <point x="91" y="42" type="curve" smooth="yes"/>
    </contour>
    <contour>
      <point x="452" y="275" type="line" smooth="yes"/>
      <point x="474" y="283"/>
      <point x="486" y="306"/>
      <point x="478" y="327" type="curve" smooth="yes"/>
      <point x="470" y="348"/>
      <point x="445" y="359"/>
      <point x="422" y="352" type="curve" smooth="yes"/>
      <point x="97" y="243" type="line" smooth="yes"/>
      <point x="75" y="235"/>
      <point x="63" y="212"/>
      <point x="71" y="191" type="curve" smooth="yes"/>
      <point x="79" y="169"/>
      <point x="104" y="159"/>
      <point x="127" y="165" type="curve" smooth="yes"/>
    </contour>
  </outline>
</glyph>
<glyph name="bCBa" format="1">
  <advance width="465"/>
  <outline>
    <contour>
      <point x="190" y="48" type="curve" smooth="yes"/>
      <point x="321" y="48"/>
      <point x="449" y="206"/>
      <point x="448" y="302" type="curve" smooth="yes"/>
      <point x="447" y="364"/>
      <point x="399" y="373"/>
      <point x="296" y="392" type="curve" smooth="yes"/>
      <point x="236" y="403"/>
      <point x="189" y="427"/>
      <point x="189" y="462" type="curve" smooth="yes"/>
      <point x="189" y="493"/>
      <point x="212" y="502"/>
      <point x="260" y="502" type="curve" smooth="yes"/>
      <point x="465" y="502" type="line" smooth="yes"/>
      <point x="491" y="502"/>
      <point x="511" y="520"/>
      <point x="511" y="545" type="curve" smooth="yes"/>
      <point x="511" y="569"/>
      <point x="491" y="587"/>
      <point x="465" y="587" type="curve" smooth="yes"/>
      <point x="192" y="587" type="line" smooth="yes"/>
      <point x="140" y="587"/>
      <point x="109" y="546"/>
      <point x="109" y="521" type="curve"/>
      <point x="122" y="521" type="line"/>
      <point x="122" y="546"/>
      <point x="85" y="587"/>
      <point x="37" y="587" type="curve" smooth="yes"/>
      <point x="0" y="587" type="line" smooth="yes"/>
      <point x="-26" y="587"/>
      <point x="-46" y="569"/>
      <point x="-46" y="545" type="curve" smooth="yes"/>
      <point x="-46" y="521"/>
      <point x="-26" y="502"/>
      <point x="0" y="502" type="curve" smooth="yes"/>
      <point x="35" y="502" type="line" smooth="yes"/>
      <point x="82" y="502"/>
      <point x="91" y="485"/>
      <point x="91" y="415" type="curve" smooth="yes"/>
      <point x="91" y="198" type="line" smooth="yes"/>
      <point x="91" y="112"/>
      <point x="104" y="48"/>
    </contour>
    <contour>
      <point x="355" y="-128" type="line"/>
      <point x="342" y="-74"/>
      <point x="241" y="18"/>
      <point x="166" y="18" type="curve"/>
      <point x="193" y="-13" type="line"/>
      <point x="323" y="83" type="line"/>
      <point x="274" y="146" type="line"/>
      <point x="138" y="48" type="line" smooth="yes"/>
      <point x="108" y="26"/>
      <point x="96" y="16"/>
      <point x="96" y="-5" type="curve" smooth="yes"/>
      <point x="96" y="-17"/>
      <point x="102" y="-40"/>
      <point x="136" y="-49" type="curve" smooth="yes"/>
      <point x="186" y="-62"/>
      <point x="274" y="-101"/>
      <point x="297" y="-158" type="curve"/>
    </contour>
    <contour>
      <point x="345" y="-191" type="curve" smooth="yes"/>
      <point x="373" y="-191"/>
      <point x="388" y="-167"/>
      <point x="388" y="-135" type="curve" smooth="yes"/>
      <point x="388" y="176" type="line"/>
      <point x="293" y="138" type="line"/>
      <point x="293" y="-135" type="line" smooth="yes"/>
      <point x="293" y="-167"/>
      <point x="313" y="-191"/>
    </contour>
    <contour>
      <point x="216" y="163" type="curve" smooth="yes"/>
      <point x="190" y="163"/>
      <point x="186" y="183"/>
      <point x="186" y="217" type="curve" smooth="yes"/>
      <point x="186" y="381" type="line"/>
      <point x="161" y="377" type="line"/>
      <point x="184" y="332"/>
      <point x="246" y="319"/>
      <point x="285" y="315" type="curve" smooth="yes"/>
      <point x="332" y="311"/>
      <point x="338" y="293"/>
      <point x="338" y="276" type="curve" smooth="yes"/>
      <point x="338" y="241"/>
      <point x="256" y="163"/>
    </contour>
  </outline>
</glyph>
<glyph name="bChBa" format="1">
  <advance width="500"/>
  <outline>
    <contour>
      <point x="466" y="-22" type="curve" smooth="yes"/>
      <point x="495" y="-22"/>
      <point x="513" y="-5"/>
      <point x="513" y="18" type="curve" smooth="yes"/>
      <point x="513" y="41"/>
      <point x="495" y="55"/>
      <point x="462" y="63" type="curve" smooth="yes"/>
      <point x="430" y="71"/>
      <point x="390" y="77"/>
      <point x="355" y="109" type="curve" smooth="yes"/>
      <point x="289" y="169"/>
      <point x="242" y="190"/>
      <point x="196" y="190" type="curve" smooth="yes"/>
      <point x="127" y="190"/>
      <point x="94" y="147"/>
      <point x="94" y="101" type="curve" smooth="yes"/>
      <point x="94" y="51"/>
      <point x="142" y="16"/>
      <point x="199" y="16" type="curve" smooth="yes"/>
      <point x="327" y="16"/>
      <point x="480" y="129"/>
      <point x="480" y="266" type="curve" smooth="yes"/>
      <point x="480" y="372"/>
      <point x="425" y="451"/>
      <point x="292" y="451" type="curve" smooth="yes"/>
      <point x="257" y="451"/>
      <point x="197" y="443"/>
      <point x="197" y="478" type="curve" smooth="yes"/>
      <point x="197" y="496"/>
      <point x="208" y="502"/>
      <point x="235" y="502" type="curve" smooth="yes"/>
      <point x="500" y="502" type="line" smooth="yes"/>
      <point x="526" y="502"/>
      <point x="546" y="520"/>
      <point x="546" y="545" type="curve" smooth="yes"/>
      <point x="546" y="569"/>
      <point x="526" y="587"/>
      <point x="500" y="587" type="curve" smooth="yes"/>
      <point x="206" y="587" type="line" smooth="yes"/>
      <point x="157" y="587"/>
      <point x="129" y="546"/>
      <point x="129" y="521" type="curve"/>
      <point x="142" y="521" type="line"/>
      <point x="141" y="558"/>
      <point x="94" y="587"/>
      <point x="54" y="587" type="curve" smooth="yes"/>
      <point x="0" y="587" type="line" smooth="yes"/>
      <point x="-26" y="587"/>
      <point x="-46" y="569"/>
      <point x="-46" y="545" type="curve" smooth="yes"/>
      <point x="-46" y="521"/>
      <point x="-26" y="502"/>
      <point x="0" y="502" type="curve" smooth="yes"/>
      <point x="36" y="502" type="line" smooth="yes"/>
      <point x="98" y="502"/>
      <point x="101" y="490"/>
      <point x="101" y="453" type="curve" smooth="yes"/>
      <point x="101" y="301" type="line" smooth="yes"/>
      <point x="101" y="250"/>
      <point x="119" y="204"/>
      <point x="198" y="204" type="curve" smooth="yes"/>
      <point x="294" y="204"/>
      <point x="374" y="278"/>
      <point x="385" y="350" type="curve"/>
      <point x="365" y="369" type="line"/>
      <point x="373" y="354"/>
      <point x="395" y="331"/>
      <point x="395" y="285" type="curve" smooth="yes"/>
      <point x="395" y="189"/>
      <point x="269" y="96"/>
      <point x="196" y="96" type="curve" smooth="yes"/>
      <point x="174" y="96"/>
      <point x="165" y="104"/>
      <point x="165" y="110" type="curve" smooth="yes"/>
      <point x="165" y="115"/>
      <point x="170" y="118"/>
      <point x="178" y="118" type="curve" smooth="yes"/>
      <point x="202" y="118"/>
      <point x="239" y="101"/>
      <point x="275" y="65" type="curve" smooth="yes"/>
      <point x="331" y="10"/>
      <point x="425" y="-22"/>
    </contour>
    <contour>
      <point x="447" y="-138" type="line"/>
      <point x="431" y="-61"/>
      <point x="348" y="-30"/>
      <point x="284" y="-30" type="curve"/>
      <point x="304" y="-60" type="line"/>
      <point x="434" y="11" type="line"/>
      <point x="398" y="71" type="line"/>
      <point x="254" y="0" type="line" smooth="yes"/>
      <point x="233" y="-11"/>
      <point x="216" y="-27"/>
      <point x="216" y="-48" type="curve" smooth="yes"/>
      <point x="216" y="-67"/>
      <point x="230" y="-82"/>
      <point x="254" y="-89" type="curve" smooth="yes"/>
      <point x="299" y="-102"/>
      <point x="386" y="-110"/>
      <point x="399" y="-151" type="curve"/>
    </contour>
    <contour>
      <point x="445" y="-186" type="curve" smooth="yes"/>
      <point x="470" y="-186"/>
      <point x="482" y="-164"/>
      <point x="482" y="-135" type="curve" smooth="yes"/>
      <point x="482" y="39" type="line"/>
      <point x="397" y="39" type="line"/>
      <point x="397" y="-135" type="line" smooth="yes"/>
      <point x="397" y="-164"/>
      <point x="416" y="-186"/>
    </contour>
    <contour>
      <point x="219" y="288" type="curve" smooth="yes"/>
      <point x="193" y="288"/>
      <point x="196" y="313"/>
      <point x="196" y="345" type="curve" smooth="yes"/>
      <point x="196" y="430" type="line"/>
      <point x="181" y="420" type="line"/>
      <point x="184" y="397"/>
      <point x="205" y="382"/>
      <point x="247" y="382" type="curve" smooth="yes"/>
      <point x="279" y="382"/>
      <point x="302" y="391"/>
      <point x="302" y="364" type="curve" smooth="yes"/>
      <point x="302" y="328"/>
      <point x="257" y="288"/>
    </contour>
  </outline>
</glyph>
<glyph name="bDBa" format="1">
  <advance width="528"/>
  <outline>
    <contour>
      <point x="416" y="-82" type="curve" smooth="yes"/>
      <point x="449" y="-82"/>
      <point x="461" y="-50"/>
      <point x="461" y="-2" type="curve" smooth="yes"/>
      <point x="461" y="88"/>
      <point x="455" y="154"/>
      <point x="455" y="232" type="curve" smooth="yes"/>
      <point x="455" y="313"/>
      <point x="474" y="370"/>
      <point x="474" y="410" type="curve" smooth="yes"/>
      <point x="474" y="428"/>
      <point x="466" y="451"/>
      <point x="430" y="451" type="curve" smooth="yes"/>
      <point x="387" y="451"/>
      <point x="281" y="400"/>
      <point x="160" y="323" type="curve"/>
      <point x="185" y="305" type="line"/>
      <point x="185" y="406" type="line" smooth="yes"/>
      <point x="185" y="455"/>
      <point x="183" y="502"/>
      <point x="233" y="502" type="curve" smooth="yes"/>
      <point x="528" y="502" type="line" smooth="yes"/>
      <point x="554" y="502"/>
      <point x="574" y="520"/>
      <point x="574" y="545" type="curve" smooth="yes"/>
      <point x="574" y="569"/>
      <point x="554" y="587"/>
      <point x="528" y="587" type="curve" smooth="yes"/>
      <point x="202" y="587" type="line" smooth="yes"/>
      <point x="148" y="587"/>
      <point x="119" y="546"/>
      <point x="119" y="521" type="curve"/>
      <point x="132" y="521" type="line"/>
      <point x="132" y="555"/>
      <point x="84" y="587"/>
      <point x="47" y="587" type="curve" smooth="yes"/>
      <point x="0" y="587" type="line" smooth="yes"/>
      <point x="-26" y="587"/>
      <point x="-46" y="569"/>
      <point x="-46" y="545" type="curve" smooth="yes"/>
      <point x="-46" y="521"/>
      <point x="-26" y="502"/>
      <point x="0" y="502" type="curve" smooth="yes"/>
      <point x="49" y="502" type="line" smooth="yes"/>
      <point x="96" y="502"/>
      <point x="90" y="463"/>
      <point x="90" y="425" type="curve" smooth="yes"/>
      <point x="90" y="251" type="line" smooth="yes"/>
      <point x="90" y="213"/>
      <point x="107" y="196"/>
      <point x="135" y="200" type="curve" smooth="yes"/>
      <point x="162" y="204"/>
      <point x="177" y="214"/>
      <point x="234" y="251" type="curve" smooth="yes"/>
      <point x="287" y="285"/>
      <point x="357" y="329"/>
      <point x="402" y="351" type="curve"/>
      <point x="408" y="370" type="line"/>
      <point x="365" y="345"/>
      <point x="363" y="268"/>
      <point x="363" y="223" type="curve" smooth="yes"/>
      <point x="363" y="156"/>
      <point x="365" y="89"/>
      <point x="365" y="-2" type="curve" smooth="yes"/>
      <point x="365" y="-55"/>
      <point x="385" y="-82"/>
    </contour>
    <contour>
      <point x="425" y="0" type="line"/>
      <point x="398" y="75"/>
      <point x="281" y="119"/>
      <point x="249" y="119" type="curve"/>
      <point x="236" y="84" type="line"/>
      <point x="420" y="193" type="line"/>
      <point x="420" y="298" type="line"/>
      <point x="166" y="152" type="line" smooth="yes"/>
      <point x="134" y="134"/>
      <point x="125" y="120"/>
      <point x="125" y="100" type="curve" smooth="yes"/>
      <point x="125" y="75"/>
      <point x="144" y="57"/>
      <point x="170" y="53" type="curve" smooth="yes"/>
      <point x="203" y="48"/>
      <point x="351" y="12"/>
      <point x="367" y="-30" type="curve"/>
    </contour>
  </outline>
</glyph>
<glyph name="bDBhRa" format="1">
  <advance width="571"/>
  <outline>
    <contour>
      <point x="430" y="102" type="line"/>
      <point x="429" y="161"/>
      <point x="399" y="224"/>
      <point x="399" y="286" type="curve" smooth="yes"/>
      <point x="399" y="353"/>
      <point x="438" y="390"/>
      <point x="438" y="430" type="curve" smooth="yes"/>
      <point x="438" y="448"/>
      <point x="430" y="471"/>
      <point x="394" y="471" type="curve" smooth="yes"/>
      <point x="351" y="471"/>
      <point x="217" y="398"/>
      <point x="172" y="382" type="curve"/>
      <point x="209" y="376" type="line"/>
      <point x="209" y="429" type="line" smooth="yes"/>
      <point x="209" y="455"/>
      <point x="207" y="502"/>
      <point x="257" y="502" type="curve" smooth="yes"/>
      <point x="542" y="502" type="line" smooth="yes"/>
      <point x="568" y="502"/>
      <point x="588" y="520"/>
      <point x="588" y="545" type="curve" smooth="yes"/>
      <point x="588" y="569"/>
      <point x="568" y="587"/>
      <point x="542" y="587" type="curve" smooth="yes"/>
      <point x="226" y="587" type="line" smooth="yes"/>
      <point x="172" y="587"/>
      <point x="143" y="546"/>
      <point x="143" y="521" type="curve"/>
      <point x="156" y="521" type="line"/>
      <point x="156" y="555"/>
      <point x="108" y="587"/>
      <point x="71" y="587" type="curve" smooth="yes"/>
      <point x="-30" y="587" type="line" smooth="yes"/>
      <point x="-56" y="587"/>
      <point x="-76" y="569"/>
      <point x="-76" y="545" type="curve" smooth="yes"/>
      <point x="-76" y="521"/>
      <point x="-56" y="502"/>
      <point x="-30" y="502" type="curve" smooth="yes"/>
      <point x="73" y="502" type="line" smooth="yes"/>
      <point x="120" y="502"/>
      <point x="114" y="463"/>
      <point x="114" y="425" type="curve" smooth="yes"/>
      <point x="114" y="331" type="line" smooth="yes"/>
      <point x="114" y="293"/>
      <point x="135" y="281"/>
      <point x="151" y="281" type="curve" smooth="yes"/>
      <point x="168" y="281"/>
      <point x="179" y="285"/>
      <point x="228" y="312" type="curve" smooth="yes"/>
      <point x="270" y="335"/>
      <point x="341" y="367"/>
      <point x="379" y="390" type="curve"/>
      <point x="362" y="396" type="line"/>
      <point x="325" y="371"/>
      <point x="319" y="312"/>
      <point x="319" y="281" type="curve" smooth="yes"/>
      <point x="319" y="236"/>
      <point x="354" y="160"/>
      <point x="354" y="98" type="curve"/>
    </contour>
    <contour>
      <point x="489" y="-190" type="curve" smooth="yes"/>
      <point x="516" y="-190"/>
      <point x="536" y="-166"/>
      <point x="536" y="-134" type="curve" smooth="yes"/>
      <point x="536" y="75" type="line" smooth="yes"/>
      <point x="536" y="157"/>
      <point x="519" y="264"/>
      <point x="455" y="264" type="curve" smooth="yes"/>
      <point x="431" y="264"/>
      <point x="413" y="237"/>
      <point x="413" y="214" type="curve" smooth="yes"/>
      <point x="413" y="174"/>
      <point x="368" y="110"/>
      <point x="295" y="110" type="curve" smooth="yes"/>
      <point x="274" y="110"/>
      <point x="241" y="121"/>
      <point x="218" y="132" type="curve"/>
      <point x="187" y="122" type="line"/>
      <point x="195" y="109"/>
      <point x="217" y="95"/>
      <point x="240" y="95" type="curve" smooth="yes"/>
      <point x="305" y="95"/>
      <point x="329" y="141"/>
      <point x="329" y="183" type="curve" smooth="yes"/>
      <point x="329" y="233"/>
      <point x="289" y="276"/>
      <point x="241" y="276" type="curve" smooth="yes"/>
      <point x="195" y="276"/>
      <point x="139" y="243"/>
      <point x="139" y="174" type="curve" smooth="yes"/>
      <point x="139" y="104"/>
      <point x="209" y="27"/>
      <point x="307" y="27" type="curve" smooth="yes"/>
      <point x="411" y="27"/>
      <point x="462" y="128"/>
      <point x="462" y="178" type="curve"/>
      <point x="419" y="152" type="line"/>
      <point x="444" y="132"/>
      <point x="441" y="80"/>
      <point x="441" y="41" type="curve" smooth="yes"/>
      <point x="441" y="-134" type="line" smooth="yes"/>
      <point x="441" y="-166"/>
      <point x="462" y="-190"/>
    </contour>
    <contour>
      <point x="237" y="143" type="curve" smooth="yes"/>
      <point x="226" y="143"/>
      <point x="215" y="152"/>
      <point x="215" y="165" type="curve" smooth="yes"/>
      <point x="215" y="178"/>
      <point x="227" y="186"/>
      <point x="237" y="186" type="curve" smooth="yes"/>
      <point x="247" y="186"/>
      <point x="258" y="178"/>
      <point x="258" y="163" type="curve" smooth="yes"/>
      <point x="258" y="148"/>
      <point x="244" y="143"/>
    </contour>
    <contour>
      <point x="491" y="-109" type="line"/>
      <point x="477" y="-52"/>
      <point x="428" y="-4"/>
      <point x="355" y="-4" type="curve" smooth="yes"/>
      <point x="302" y="-4"/>
      <point x="220" y="-30"/>
      <point x="167" y="-30" type="curve" smooth="yes"/>
      <point x="133" y="-30"/>
      <point x="118" y="-9"/>
      <point x="118" y="15" type="curve" smooth="yes"/>
      <point x="118" y="34"/>
      <point x="128" y="46"/>
      <point x="128" y="65" type="curve" smooth="yes"/>
      <point x="128" y="88"/>
      <point x="113" y="100"/>
      <point x="91" y="100" type="curve" smooth="yes"/>
      <point x="47" y="100"/>
      <point x="30" y="55"/>
      <point x="30" y="12" type="curve" smooth="yes"/>
      <point x="30" y="-47"/>
      <point x="63" y="-130"/>
      <point x="161" y="-130" type="curve" smooth="yes"/>
      <point x="246" y="-130"/>
      <point x="318" y="-96"/>
      <point x="373" y="-96" type="curve" smooth="yes"/>
      <point x="410" y="-96"/>
      <point x="441" y="-111"/>
      <point x="441" y="-134" type="curve"/>
    </contour>
  </outline>
</glyph>
<glyph name="bDDhBa" format="1">
  <advance width="663"/>
  <outline>
    <contour>
      <point x="416" y="-140" type="curve" smooth="yes"/>
      <point x="449" y="-140"/>
      <point x="461" y="-108"/>
      <point x="461" y="-60" type="curve" smooth="yes"/>
      <point x="461" y="61"/>
      <point x="455" y="147"/>
      <point x="455" y="252" type="curve" smooth="yes"/>
      <point x="455" y="333"/>
      <point x="474" y="390"/>
      <point x="474" y="430" type="curve" smooth="yes"/>
      <point x="474" y="448"/>
      <point x="466" y="471"/>
      <point x="430" y="471" type="curve" smooth="yes"/>
      <point x="387" y="471"/>
      <point x="281" y="420"/>
      <point x="160" y="343" type="curve"/>
      <point x="185" y="325" type="line"/>
      <point x="185" y="406" type="line" smooth="yes"/>
      <point x="185" y="455"/>
      <point x="183" y="502"/>
      <point x="233" y="502" type="curve" smooth="yes"/>
      <point x="663" y="502" type="line" smooth="yes"/>
      <point x="689" y="502"/>
      <point x="709" y="520"/>
      <point x="709" y="545" type="curve" smooth="yes"/>
      <point x="709" y="569"/>
      <point x="689" y="587"/>
      <point x="663" y="587" type="curve" smooth="yes"/>
      <point x="202" y="587" type="line" smooth="yes"/>
      <point x="148" y="587"/>
      <point x="119" y="546"/>
      <point x="119" y="521" type="curve"/>
      <point x="132" y="521" type="line"/>
      <point x="132" y="555"/>
      <point x="84" y="587"/>
      <point x="47" y="587" type="curve" smooth="yes"/>
      <point x="0" y="587" type="line" smooth="yes"/>
      <point x="-26" y="587"/>
      <point x="-46" y="569"/>
      <point x="-46" y="545" type="curve" smooth="yes"/>
      <point x="-46" y="521"/>
      <point x="-26" y="502"/>
      <point x="0" y="502" type="curve" smooth="yes"/>
      <point x="49" y="502" type="line" smooth="yes"/>
      <point x="96" y="502"/>
      <point x="90" y="463"/>
      <point x="90" y="425" type="curve" smooth="yes"/>
      <point x="90" y="271" type="line" smooth="yes"/>
      <point x="90" y="233"/>
      <point x="107" y="216"/>
      <point x="135" y="220" type="curve" smooth="yes"/>
      <point x="162" y="224"/>
      <point x="177" y="234"/>
      <point x="234" y="271" type="curve" smooth="yes"/>
      <point x="287" y="305"/>
      <point x="357" y="349"/>
      <point x="402" y="371" type="curve"/>
      <point x="408" y="390" type="line"/>
      <point x="365" y="365"/>
      <point x="363" y="288"/>
      <point x="363" y="243" type="curve" smooth="yes"/>
      <point x="363" y="152"/>
      <point x="365" y="63"/>
      <point x="365" y="-60" type="curve" smooth="yes"/>
      <point x="365" y="-113"/>
      <point x="385" y="-140"/>
    </contour>
    <contour>
      <point x="427" y="-73" type="line"/>
      <point x="388" y="-3"/>
      <point x="332" y="17"/>
      <point x="250" y="17" type="curve"/>
      <point x="245" y="-16" type="line"/>
      <point x="382" y="56" type="line"/>
      <point x="388" y="154" type="line"/>
      <point x="217" y="55" type="line" smooth="yes"/>
      <point x="185" y="37"/>
      <point x="174" y="19"/>
      <point x="174" y="-1" type="curve" smooth="yes"/>
      <point x="174" y="-26"/>
      <point x="193" y="-41"/>
      <point x="219" y="-45" type="curve" smooth="yes"/>
      <point x="260" y="-52"/>
      <point x="356" y="-51"/>
      <point x="372" y="-105" type="curve"/>
    </contour>
    <contour>
      <point x="356" y="103" type="line"/>
      <point x="340" y="126"/>
      <point x="260" y="158"/>
      <point x="221" y="158" type="curve"/>
      <point x="240" y="118" type="line"/>
      <point x="564" y="292" type="line"/>
      <point x="572" y="316" type="line"/>
      <point x="537" y="296"/>
      <point x="524" y="242"/>
      <point x="524" y="199" type="curve" smooth="yes"/>
      <point x="524" y="-24" type="line" smooth="yes"/>
      <point x="524" y="-57"/>
      <point x="545" y="-82"/>
      <point x="572" y="-82" type="curve" smooth="yes"/>
      <point x="599" y="-82"/>
      <point x="619" y="-57"/>
      <point x="619" y="-23" type="curve" smooth="yes"/>
      <point x="619" y="216" type="line" smooth="yes"/>
      <point x="619" y="324"/>
      <point x="648" y="357"/>
      <point x="648" y="394" type="curve" smooth="yes"/>
      <point x="648" y="416"/>
      <point x="636" y="429"/>
      <point x="619" y="429" type="curve" smooth="yes"/>
      <point x="604" y="429"/>
      <point x="584" y="420"/>
      <point x="559" y="406" type="curve" smooth="yes"/>
      <point x="174" y="192" type="line" smooth="yes"/>
      <point x="141" y="174"/>
      <point x="133" y="160"/>
      <point x="133" y="140" type="curve" smooth="yes"/>
      <point x="133" y="115"/>
      <point x="152" y="99"/>
      <point x="178" y="93" type="curve"/>
      <point x="198" y="87"/>
      <point x="242" y="81"/>
      <point x="278" y="61" type="curve"/>
    </contour>
  </outline>
</glyph>
<glyph name="bDhMa" format="1">
  <advance width="650"/>
  <outline>
    <contour>
      <point x="536" y="-82" type="curve" smooth="yes"/>
      <point x="563" y="-82"/>
      <point x="584" y="-58"/>
      <point x="584" y="-26" type="curve" smooth="yes"/>
      <point x="584" y="435" type="line" smooth="yes"/>
      <point x="584" y="491"/>
      <point x="584" y="502"/>
      <point x="618" y="502" type="curve" smooth="yes"/>
      <point x="650" y="502" type="line" smooth="yes"/>
      <point x="676" y="502"/>
      <point x="696" y="520"/>
      <point x="696" y="545" type="curve" smooth="yes"/>
      <point x="696" y="569"/>
      <point x="676" y="587"/>
      <point x="650" y="587" type="curve" smooth="yes"/>
      <point x="595" y="587" type="line" smooth="yes"/>
      <point x="531" y="587"/>
      <point x="515" y="557"/>
      <point x="515" y="502" type="curve"/>
      <point x="536" y="502" type="line"/>
      <point x="536" y="558"/>
      <point x="496" y="587"/>
      <point x="450" y="587" type="curve" smooth="yes"/>
      <point x="393" y="587" type="line" smooth="yes"/>
      <point x="323" y="587"/>
      <point x="287" y="547"/>
      <point x="287" y="459" type="curve" smooth="yes"/>
      <point x="287" y="155" type="line" smooth="yes"/>
      <point x="287" y="118"/>
      <point x="278" y="96"/>
      <point x="249" y="96" type="curve" smooth="yes"/>
      <point x="232" y="96"/>
      <point x="221" y="109"/>
      <point x="221" y="120" type="curve" smooth="yes"/>
      <point x="221" y="144"/>
      <point x="249" y="149"/>
      <point x="283" y="149" type="curve" smooth="yes"/>
      <point x="361" y="149"/>
      <point x="489" y="73"/>
      <point x="489" y="-12" type="curve"/>
      <point x="544" y="28" type="line"/>
      <point x="509" y="171"/>
      <point x="372" y="231"/>
      <point x="270" y="231" type="curve" smooth="yes"/>
      <point x="198" y="231"/>
      <point x="122" y="187"/>
      <point x="122" y="115" type="curve" smooth="yes"/>
      <point x="122" y="35"/>
      <point x="190" y="1"/>
      <point x="249" y="1" type="curve" smooth="yes"/>
      <point x="313" y="1"/>
      <point x="382" y="45"/>
      <point x="382" y="155" type="curve" smooth="yes"/>
      <point x="382" y="435" type="line" smooth="yes"/>
      <point x="382" y="491"/>
      <point x="382" y="502"/>
      <point x="418" y="502" type="curve" smooth="yes"/>
      <point x="443" y="502" type="line" smooth="yes"/>
      <point x="479" y="502"/>
      <point x="489" y="492"/>
      <point x="489" y="441" type="curve" smooth="yes"/>
      <point x="489" y="-26" type="line" smooth="yes"/>
      <point x="489" y="-58"/>
      <point x="509" y="-82"/>
    </contour>
    <contour>
      <point x="314" y="198" type="line"/>
      <point x="293" y="231"/>
      <point x="234" y="291"/>
      <point x="142" y="291" type="curve"/>
      <point x="142" y="271" type="line"/>
      <point x="182" y="271"/>
      <point x="351" y="338"/>
      <point x="348" y="417" type="curve"/>
      <point x="287" y="463" type="line"/>
      <point x="287" y="429"/>
      <point x="249" y="407"/>
      <point x="214" y="407" type="curve" smooth="yes"/>
      <point x="185" y="407"/>
      <point x="146" y="421"/>
      <point x="146" y="441" type="curve" smooth="yes"/>
      <point x="146" y="452"/>
      <point x="147" y="457"/>
      <point x="149" y="463" type="curve"/>
      <point x="107" y="450" type="line"/>
      <point x="124" y="432"/>
      <point x="145" y="425"/>
      <point x="166" y="425" type="curve" smooth="yes"/>
      <point x="213" y="425"/>
      <point x="258" y="463"/>
      <point x="258" y="512" type="curve" smooth="yes"/>
      <point x="258" y="582"/>
      <point x="205" y="609"/>
      <point x="156" y="609" type="curve" smooth="yes"/>
      <point x="107" y="609"/>
      <point x="39" y="575"/>
      <point x="39" y="495" type="curve" smooth="yes"/>
      <point x="39" y="407"/>
      <point x="116" y="354"/>
      <point x="187" y="354" type="curve"/>
      <point x="183" y="375" type="line"/>
      <point x="71" y="333" type="line" smooth="yes"/>
      <point x="37" y="321"/>
      <point x="24" y="300"/>
      <point x="24" y="275" type="curve" smooth="yes"/>
      <point x="24" y="243"/>
      <point x="48" y="225"/>
      <point x="88" y="219" type="curve" smooth="yes"/>
      <point x="139" y="211"/>
      <point x="204" y="201"/>
      <point x="238" y="160" type="curve"/>
    </contour>
    <contour>
      <point x="148" y="478" type="curve" smooth="yes"/>
      <point x="132" y="478"/>
      <point x="120" y="490"/>
      <point x="120" y="507" type="curve" smooth="yes"/>
      <point x="120" y="523"/>
      <point x="132" y="536"/>
      <point x="148" y="536" type="curve" smooth="yes"/>
      <point x="165" y="536"/>
      <point x="178" y="523"/>
      <point x="178" y="507" type="curve" smooth="yes"/>
      <point x="178" y="490"/>
      <point x="165" y="478"/>
    </contour>
  </outline>
</glyph>
<glyph name="bGDhBa" format="1">
  <advance width="690"/>
  <outline>
    <contour>
      <point x="423" y="-189" type="curve" smooth="yes"/>
      <point x="446" y="-189"/>
      <point x="467" y="-165"/>
      <point x="467" y="-133" type="curve" smooth="yes"/>
      <point x="467" y="435" type="line" smooth="yes"/>
      <point x="467" y="491"/>
      <point x="467" y="502"/>
      <point x="501" y="502" type="curve" smooth="yes"/>
      <point x="690" y="502" type="line" smooth="yes"/>
      <point x="716" y="502"/>
      <point x="736" y="520"/>
      <point x="736" y="545" type="curve" smooth="yes"/>
      <point x="736" y="569"/>
      <point x="716" y="587"/>
      <point x="690" y="587" type="curve" smooth="yes"/>
      <point x="478" y="587" type="line" smooth="yes"/>
      <point x="428" y="587"/>
      <point x="372" y="558"/>
      <point x="372" y="459" type="curve" smooth="yes"/>
      <point x="372" y="-133" type="line" smooth="yes"/>
      <point x="372" y="-165"/>
      <point x="392" y="-189"/>
    </contour>
    <contour>
      <point x="439" y="-128" type="line"/>
      <point x="426" y="-82"/>
      <point x="325" y="-11"/>
      <point x="250" y="-11" type="curve"/>
      <point x="277" y="-42" type="line"/>
      <point x="418" y="32" type="line"/>
      <point x="427" y="129" type="line"/>
      <point x="222" y="19" type="line" smooth="yes"/>
      <point x="191" y="3"/>
      <point x="180" y="-13"/>
      <point x="180" y="-34" type="curve" smooth="yes"/>
      <point x="180" y="-46"/>
      <point x="186" y="-69"/>
      <point x="220" y="-78" type="curve" smooth="yes"/>
      <point x="270" y="-91"/>
      <point x="361" y="-112"/>
      <point x="376" y="-156" type="curve"/>
    </contour>
    <contour>
      <point x="118" y="175" type="curve" smooth="yes"/>
      <point x="201" y="175"/>
      <point x="337" y="265"/>
      <point x="337" y="347" type="curve" smooth="yes"/>
      <point x="337" y="385"/>
      <point x="312" y="431"/>
      <point x="253" y="431" type="curve" smooth="yes"/>
      <point x="217" y="431"/>
      <point x="198" y="414"/>
      <point x="165" y="414" type="curve" smooth="yes"/>
      <point x="136" y="414"/>
      <point x="121" y="428"/>
      <point x="121" y="446" type="curve" smooth="yes"/>
      <point x="121" y="470"/>
      <point x="149" y="488"/>
      <point x="195" y="488" type="curve" smooth="yes"/>
      <point x="299" y="488"/>
      <point x="372" y="428"/>
      <point x="372" y="317" type="curve"/>
      <point x="402" y="450" type="line"/>
      <point x="389" y="525"/>
      <point x="297" y="593"/>
      <point x="193" y="593" type="curve" smooth="yes"/>
      <point x="82" y="593"/>
      <point x="12" y="531"/>
      <point x="12" y="445" type="curve" smooth="yes"/>
      <point x="12" y="378"/>
      <point x="51" y="335"/>
      <point x="133" y="335" type="curve" smooth="yes"/>
      <point x="178" y="335"/>
      <point x="216" y="360"/>
      <point x="235" y="360" type="curve" smooth="yes"/>
      <point x="246" y="360"/>
      <point x="251" y="355"/>
      <point x="251" y="347" type="curve" smooth="yes"/>
      <point x="251" y="337"/>
      <point x="236" y="315"/>
      <point x="136" y="276" type="curve" smooth="yes"/>
      <point x="85" y="256"/>
      <point x="71" y="240"/>
      <point x="71" y="214" type="curve" smooth="yes"/>
      <point x="71" y="188"/>
      <point x="96" y="175"/>
    </contour>
    <contour>
      <point x="355" y="61" type="line"/>
      <point x="316" y="93"/>
      <point x="263" y="118"/>
      <point x="220" y="118" type="curve"/>
      <point x="240" y="78" type="line"/>
      <point x="564" y="252" type="line"/>
      <point x="572" y="276" type="line"/>
      <point x="537" y="256"/>
      <point x="524" y="202"/>
      <point x="524" y="159" type="curve" smooth="yes"/>
      <point x="524" y="-24" type="line" smooth="yes"/>
      <point x="524" y="-57"/>
      <point x="545" y="-82"/>
      <point x="572" y="-82" type="curve" smooth="yes"/>
      <point x="599" y="-82"/>
      <point x="619" y="-57"/>
      <point x="619" y="-23" type="curve" smooth="yes"/>
      <point x="619" y="176" type="line" smooth="yes"/>
      <point x="619" y="284"/>
      <point x="648" y="317"/>
      <point x="648" y="354" type="curve" smooth="yes"/>
      <point x="648" y="376"/>
      <point x="636" y="389"/>
      <point x="619" y="389" type="curve" smooth="yes"/>
      <point x="604" y="389"/>
      <point x="584" y="380"/>
      <point x="559" y="366" type="curve" smooth="yes"/>
      <point x="174" y="152" type="line" smooth="yes"/>
      <point x="141" y="134"/>
      <point x="133" y="120"/>
      <point x="133" y="100" type="curve" smooth="yes"/>
      <point x="133" y="75"/>
      <point x="152" y="59"/>
      <point x="178" y="53" type="curve"/>
      <point x="200" y="46"/>
      <point x="243" y="35"/>
      <point x="284" y="18" type="curve"/>
    </contour>
  </outline>
</glyph>
<glyph name="bGGa" format="1">
  <advance width="548"/>
  <outline>
    <contour>
      <point x="275" y="236" type="line"/>
      <point x="304" y="248"/>
      <point x="333" y="286"/>
      <point x="333" y="335" type="curve" smooth="yes"/>
      <point x="333" y="385"/>
      <point x="303" y="423"/>
      <point x="250" y="423" type="curve" smooth="yes"/>
      <point x="224" y="423"/>
      <point x="193" y="414"/>
      <point x="163" y="414" type="curve" smooth="yes"/>
      <point x="134" y="414"/>
      <point x="119" y="425"/>
      <point x="119" y="445" type="curve" smooth="yes"/>
      <point x="119" y="467"/>
      <point x="147" y="498"/>
      <point x="208" y="498" type="curve" smooth="yes"/>
      <point x="309" y="498"/>
      <point x="387" y="418"/>
      <point x="387" y="325" type="curve"/>
      <point x="423" y="433" type="line"/>
      <point x="396" y="524"/>
      <point x="290" y="593"/>
      <point x="203" y="593" type="curve" smooth="yes"/>
      <point x="80" y="593"/>
      <point x="10" y="511"/>
      <point x="10" y="445" type="curve" smooth="yes"/>
      <point x="10" y="378"/>
      <point x="52" y="321"/>
      <point x="123" y="321" type="curve" smooth="yes"/>
      <point x="174" y="321"/>
      <point x="205" y="352"/>
      <point x="238" y="352" type="curve" smooth="yes"/>
      <point x="250" y="352"/>
      <point x="256" y="346"/>
      <point x="256" y="338" type="curve" smooth="yes"/>
      <point x="256" y="308"/>
      <point x="216" y="291"/>
      <point x="183" y="283" type="curve"/>
    </contour>
    <contour>
      <point x="172" y="-86" type="curve" smooth="yes"/>
      <point x="229" y="-86"/>
      <point x="347" y="-40"/>
      <point x="347" y="70" type="curve" smooth="yes"/>
      <point x="347" y="112"/>
      <point x="320" y="153"/>
      <point x="275" y="153" type="curve" smooth="yes"/>
      <point x="243" y="153"/>
      <point x="224" y="140"/>
      <point x="195" y="140" type="curve" smooth="yes"/>
      <point x="177" y="140"/>
      <point x="164" y="151"/>
      <point x="164" y="168" type="curve" smooth="yes"/>
      <point x="164" y="195"/>
      <point x="204" y="212"/>
      <point x="245" y="212" type="curve" smooth="yes"/>
      <point x="329" y="212"/>
      <point x="387" y="147"/>
      <point x="387" y="28" type="curve"/>
      <point x="452" y="8" type="line"/>
      <point x="452" y="136"/>
      <point x="396" y="291"/>
      <point x="245" y="291" type="curve" smooth="yes"/>
      <point x="147" y="291"/>
      <point x="54" y="232"/>
      <point x="54" y="147" type="curve" smooth="yes"/>
      <point x="54" y="91"/>
      <point x="101" y="57"/>
      <point x="149" y="57" type="curve" smooth="yes"/>
      <point x="196" y="57"/>
      <point x="225" y="80"/>
      <point x="256" y="80" type="curve" smooth="yes"/>
      <point x="270" y="80"/>
      <point x="274" y="75"/>
      <point x="274" y="65" type="curve" smooth="yes"/>
      <point x="274" y="24"/>
      <point x="209" y="3"/>
      <point x="159" y="-5" type="curve" smooth="yes"/>
      <point x="120" y="-11"/>
      <point x="108" y="-27"/>
      <point x="108" y="-44" type="curve" smooth="yes"/>
      <point x="108" y="-65"/>
      <point x="123" y="-86"/>
    </contour>
    <contour>
      <point x="434" y="-82" type="curve" smooth="yes"/>
      <point x="461" y="-82"/>
      <point x="482" y="-58"/>
      <point x="482" y="-26" type="curve" smooth="yes"/>
      <point x="482" y="435" type="line" smooth="yes"/>
      <point x="482" y="491"/>
      <point x="482" y="502"/>
      <point x="516" y="502" type="curve" smooth="yes"/>
      <point x="548" y="502" type="line" smooth="yes"/>
      <point x="574" y="502"/>
      <point x="594" y="520"/>
      <point x="594" y="545" type="curve" smooth="yes"/>
      <point x="594" y="569"/>
      <point x="574" y="587"/>
      <point x="548" y="587" type="curve" smooth="yes"/>
      <point x="493" y="587" type="line" smooth="yes"/>
      <point x="443" y="587"/>
      <point x="387" y="558"/>
      <point x="387" y="459" type="curve" smooth="yes"/>
      <point x="387" y="-26" type="line" smooth="yes"/>
      <point x="387" y="-57"/>
      <point x="407" y="-82"/>
    </contour>
  </outline>
</glyph>
<glyph name="bGMa" format="1">
  <advance width="757"/>
  <outline>
    <contour>
      <point x="643" y="-82" type="curve" smooth="yes"/>
      <point x="670" y="-82"/>
      <point x="691" y="-58"/>
      <point x="691" y="-26" type="curve" smooth="yes"/>
      <point x="691" y="435" type="line" smooth="yes"/>
      <point x="691" y="491"/>
      <point x="691" y="502"/>
      <point x="725" y="502" type="curve" smooth="yes"/>
      <point x="757" y="502" type="line" smooth="yes"/>
      <point x="783" y="502"/>
      <point x="803" y="520"/>
      <point x="803" y="545" type="curve" smooth="yes"/>
      <point x="803" y="569"/>
      <point x="783" y="587"/>
      <point x="757" y="587" type="curve" smooth="yes"/>
      <point x="702" y="587" type="line" smooth="yes"/>
      <point x="638" y="587"/>
      <point x="622" y="557"/>
      <point x="622" y="502" type="curve"/>
      <point x="643" y="502" type="line"/>
      <point x="643" y="558"/>
      <point x="603" y="587"/>
      <point x="557" y="587" type="curve" smooth="yes"/>
      <point x="480" y="587" type="line" smooth="yes"/>
      <point x="410" y="587"/>
      <point x="374" y="547"/>
      <point x="374" y="459" type="curve" smooth="yes"/>
      <point x="374" y="170" type="line" smooth="yes"/>
      <point x="374" y="118"/>
      <point x="365" y="96"/>
      <point x="333" y="96" type="curve" smooth="yes"/>
      <point x="319" y="96"/>
      <point x="308" y="103"/>
      <point x="308" y="117" type="curve" smooth="yes"/>
      <point x="308" y="137"/>
      <point x="336" y="139"/>
      <point x="370" y="139" type="curve" smooth="yes"/>
      <point x="448" y="139"/>
      <point x="596" y="86"/>
      <point x="596" y="-12" type="curve"/>
      <point x="651" y="28" type="line"/>
      <point x="613" y="171"/>
      <point x="459" y="231"/>
      <point x="357" y="231" type="curve" smooth="yes"/>
      <point x="285" y="231"/>
      <point x="209" y="187"/>
      <point x="209" y="115" type="curve" smooth="yes"/>
      <point x="209" y="29"/>
      <point x="277" y="1"/>
      <point x="336" y="1" type="curve" smooth="yes"/>
      <point x="400" y="1"/>
      <point x="469" y="45"/>
      <point x="469" y="155" type="curve" smooth="yes"/>
      <point x="469" y="435" type="line" smooth="yes"/>
      <point x="469" y="491"/>
      <point x="469" y="502"/>
      <point x="523" y="502" type="curve" smooth="yes"/>
      <point x="550" y="502" type="line" smooth="yes"/>
      <point x="586" y="502"/>
      <point x="596" y="492"/>
      <point x="596" y="441" type="curve" smooth="yes"/>
      <point x="596" y="-26" type="line" smooth="yes"/>
      <point x="596" y="-58"/>
      <point x="616" y="-82"/>
    </contour>
    <contour>
      <point x="122" y="175" type="curve" smooth="yes"/>
      <point x="205" y="175"/>
      <point x="341" y="264"/>
      <point x="341" y="347" type="curve" smooth="yes"/>
      <point x="341" y="385"/>
      <point x="316" y="431"/>
      <point x="257" y="431" type="curve" smooth="yes"/>
      <point x="221" y="431"/>
      <point x="202" y="414"/>
      <point x="169" y="414" type="curve" smooth="yes"/>
      <point x="140" y="414"/>
      <point x="125" y="428"/>
      <point x="125" y="446" type="curve" smooth="yes"/>
      <point x="125" y="470"/>
      <point x="153" y="494"/>
      <point x="218" y="494" type="curve" smooth="yes"/>
      <point x="310" y="494"/>
      <point x="375" y="434"/>
      <point x="374" y="319" type="curve"/>
      <point x="435" y="385" type="line"/>
      <point x="435" y="502"/>
      <point x="313" y="593"/>
      <point x="198" y="593" type="curve" smooth="yes"/>
      <point x="86" y="593"/>
      <point x="16" y="531"/>
      <point x="16" y="453" type="curve" smooth="yes"/>
      <point x="16" y="393"/>
      <point x="55" y="335"/>
      <point x="137" y="335" type="curve" smooth="yes"/>
      <point x="182" y="335"/>
      <point x="220" y="360"/>
      <point x="239" y="360" type="curve" smooth="yes"/>
      <point x="250" y="360"/>
      <point x="255" y="355"/>
      <point x="255" y="347" type="curve" smooth="yes"/>
      <point x="255" y="337"/>
      <point x="240" y="315"/>
      <point x="140" y="276" type="curve" smooth="yes"/>
      <point x="89" y="256"/>
      <point x="75" y="240"/>
      <point x="75" y="214" type="curve" smooth="yes"/>
      <point x="75" y="188"/>
      <point x="100" y="175"/>
    </contour>
  </outline>
</glyph>
<glyph name="bGNa" format="1">
  <advance width="548"/>
  <outline>
    <contour>
      <point x="123" y="155" type="curve" smooth="yes"/>
      <point x="213" y="155"/>
      <point x="342" y="247"/>
      <point x="342" y="337" type="curve" smooth="yes"/>
      <point x="342" y="382"/>
      <point x="317" y="421"/>
      <point x="267" y="421" type="curve" smooth="yes"/>
      <point x="222" y="421"/>
      <point x="212" y="404"/>
      <point x="170" y="404" type="curve" smooth="yes"/>
      <point x="141" y="404"/>
      <point x="128" y="421"/>
      <point x="128" y="439" type="curve" smooth="yes"/>
      <point x="128" y="473"/>
      <point x="164" y="488"/>
      <point x="210" y="488" type="curve" smooth="yes"/>
      <point x="314" y="488"/>
      <point x="387" y="428"/>
      <point x="387" y="317" type="curve"/>
      <point x="417" y="450" type="line"/>
      <point x="404" y="525"/>
      <point x="312" y="593"/>
      <point x="208" y="593" type="curve" smooth="yes"/>
      <point x="97" y="593"/>
      <point x="17" y="531"/>
      <point x="17" y="445" type="curve" smooth="yes"/>
      <point x="17" y="383"/>
      <point x="56" y="325"/>
      <point x="138" y="325" type="curve" smooth="yes"/>
      <point x="183" y="325"/>
      <point x="221" y="350"/>
      <point x="240" y="350" type="curve" smooth="yes"/>
      <point x="251" y="350"/>
      <point x="256" y="345"/>
      <point x="256" y="337" type="curve" smooth="yes"/>
      <point x="256" y="326"/>
      <point x="241" y="295"/>
      <point x="141" y="256" type="curve" smooth="yes"/>
      <point x="90" y="236"/>
      <point x="76" y="220"/>
      <point x="76" y="194" type="curve" smooth="yes"/>
      <point x="76" y="168"/>
      <point x="101" y="155"/>
    </contour>
    <contour>
      <point x="246" y="-12" type="curve" smooth="yes"/>
      <point x="233" y="-12"/>
      <point x="216" y="-3"/>
      <point x="216" y="16" type="curve" smooth="yes"/>
      <point x="216" y="33"/>
      <point x="228" y="46"/>
      <point x="244" y="46" type="curve" smooth="yes"/>
      <point x="259" y="46"/>
      <point x="274" y="35"/>
      <point x="274" y="17" type="curve" smooth="yes"/>
      <point x="274" y="-1"/>
      <point x="260" y="-12"/>
    </contour>
    <contour>
      <point x="235" y="-98" type="curve" smooth="yes"/>
      <point x="295" y="-98"/>
      <point x="347" y="-53"/>
      <point x="347" y="5" type="curve" smooth="yes"/>
      <point x="347" y="50"/>
      <point x="316" y="100"/>
      <point x="264" y="100" type="curve"/>
      <point x="278" y="50" type="line"/>
      <point x="331" y="50"/>
      <point x="387" y="16"/>
      <point x="387" y="-53" type="curve"/>
      <point x="446" y="-24" type="line"/>
      <point x="423" y="71"/>
      <point x="351" y="143"/>
      <point x="252" y="143" type="curve" smooth="yes"/>
      <point x="151" y="143"/>
      <point x="117" y="68"/>
      <point x="117" y="17" type="curve" smooth="yes"/>
      <point x="117" y="-46"/>
      <point x="171" y="-98"/>
    </contour>
    <contour>
      <point x="434" y="-119" type="curve" smooth="yes"/>
      <point x="461" y="-119"/>
      <point x="482" y="-95"/>
      <point x="482" y="-63" type="curve" smooth="yes"/>
      <point x="482" y="435" type="line" smooth="yes"/>
      <point x="482" y="491"/>
      <point x="482" y="502"/>
      <point x="516" y="502" type="curve" smooth="yes"/>
      <point x="548" y="502" type="line" smooth="yes"/>
      <point x="574" y="502"/>
      <point x="594" y="520"/>
      <point x="594" y="545" type="curve" smooth="yes"/>
      <point x="594" y="569"/>
      <point x="574" y="587"/>
      <point x="548" y="587" type="curve" smooth="yes"/>
      <point x="493" y="587" type="line" smooth="yes"/>
      <point x="443" y="587"/>
      <point x="387" y="558"/>
      <point x="387" y="459" type="curve" smooth="yes"/>
      <point x="387" y="-63" type="line" smooth="yes"/>
      <point x="387" y="-95"/>
      <point x="407" y="-119"/>
    </contour>
  </outline>
</glyph>
<glyph name="bGRa_bSignUu" format="1">
  <advance width="743"/>
  <outline>
    <contour>
      <point x="743" y="502" type="line" smooth="yes"/>
      <point x="769" y="502"/>
      <point x="789" y="520"/>
      <point x="789" y="545" type="curve" smooth="yes"/>
      <point x="789" y="569"/>
      <point x="769" y="587"/>
      <point x="743" y="587" type="curve" smooth="yes"/>
      <point x="539" y="587" type="line" smooth="yes"/>
      <point x="532" y="587"/>
      <point x="504" y="582"/>
      <point x="504" y="546" type="curve" smooth="yes"/>
      <point x="504" y="510"/>
      <point x="530" y="502"/>
      <point x="539" y="502" type="curve" smooth="yes"/>
    </contour>
    <contour>
      <point x="627" y="-11" type="curve" smooth="yes"/>
      <point x="658" y="-11"/>
      <point x="674" y="16"/>
      <point x="674" y="69" type="curve" smooth="yes"/>
      <point x="674" y="256" type="line" smooth="yes"/>
      <point x="674" y="364"/>
      <point x="703" y="381"/>
      <point x="703" y="426" type="curve" smooth="yes"/>
      <point x="703" y="448"/>
      <point x="693" y="469"/>
      <point x="658" y="469" type="curve" smooth="yes"/>
      <point x="625" y="469"/>
      <point x="465" y="390"/>
      <point x="443" y="375" type="curve"/>
      <point x="443" y="265" type="line"/>
      <point x="501" y="302"/>
      <point x="575" y="342"/>
      <point x="636" y="366" type="curve"/>
      <point x="633" y="380" type="line"/>
      <point x="595" y="351"/>
      <point x="579" y="312"/>
      <point x="579" y="274" type="curve" smooth="yes"/>
      <point x="579" y="69" type="line" smooth="yes"/>
      <point x="579" y="8"/>
      <point x="605" y="-11"/>
    </contour>
    <contour>
      <point x="198" y="142" type="curve" smooth="yes"/>
      <point x="268" y="142"/>
      <point x="380" y="218"/>
      <point x="380" y="306" type="curve" smooth="yes"/>
      <point x="380" y="366"/>
      <point x="347" y="411"/>
      <point x="288" y="411" type="curve" smooth="yes"/>
      <point x="252" y="411"/>
      <point x="233" y="394"/>
      <point x="200" y="394" type="curve" smooth="yes"/>
      <point x="171" y="394"/>
      <point x="156" y="411"/>
      <point x="156" y="429" type="curve" smooth="yes"/>
      <point x="156" y="453"/>
      <point x="184" y="488"/>
      <point x="250" y="488" type="curve" smooth="yes"/>
      <point x="345" y="488"/>
      <point x="424" y="425"/>
      <point x="424" y="299" type="curve"/>
      <point x="463" y="451" type="line"/>
      <point x="422" y="550"/>
      <point x="327" y="593"/>
      <point x="240" y="593" type="curve" smooth="yes"/>
      <point x="117" y="593"/>
      <point x="47" y="511"/>
      <point x="47" y="425" type="curve" smooth="yes"/>
      <point x="47" y="358"/>
      <point x="89" y="301"/>
      <point x="171" y="301" type="curve" smooth="yes"/>
      <point x="216" y="301"/>
      <point x="238" y="318"/>
      <point x="263" y="318" type="curve" smooth="yes"/>
      <point x="280" y="318"/>
      <point x="288" y="310"/>
      <point x="288" y="296" type="curve" smooth="yes"/>
      <point x="288" y="279"/>
      <point x="256" y="253"/>
      <point x="200" y="234" type="curve" smooth="yes"/>
      <point x="163" y="222"/>
      <point x="141" y="211"/>
      <point x="141" y="185" type="curve" smooth="yes"/>
      <point x="141" y="159"/>
      <point x="165" y="142"/>
    </contour>
    <contour>
      <point x="471" y="25" type="line"/>
      <point x="448" y="88"/>
      <point x="399" y="117"/>
      <point x="342" y="117" type="curve" smooth="yes"/>
      <point x="286" y="117"/>
      <point x="215" y="98"/>
      <point x="161" y="98" type="curve" smooth="yes"/>
      <point x="121" y="98"/>
      <point x="104" y="120"/>
      <point x="104" y="141" type="curve" smooth="yes"/>
      <point x="104" y="165"/>
      <point x="114" y="171"/>
      <point x="114" y="195" type="curve" smooth="yes"/>
      <point x="114" y="215"/>
      <point x="99" y="228"/>
      <point x="75" y="228" type="curve" smooth="yes"/>
      <point x="33" y="228"/>
      <point x="16" y="182"/>
      <point x="16" y="141" type="curve" smooth="yes"/>
      <point x="16" y="81"/>
      <point x="62" y="-2"/>
      <point x="156" y="-2" type="curve" smooth="yes"/>
      <point x="243" y="-2"/>
      <point x="305" y="29"/>
      <point x="356" y="29" type="curve" smooth="yes"/>
      <point x="395" y="29"/>
      <point x="424" y="0"/>
      <point x="424" y="-26" type="curve"/>
    </contour>
    <contour>
      <point x="471" y="-82" type="curve" smooth="yes"/>
      <point x="500" y="-82"/>
      <point x="519" y="-61"/>
      <point x="519" y="-26" type="curve" smooth="yes"/>
      <point x="519" y="435" type="line" smooth="yes"/>
      <point x="519" y="491"/>
      <point x="519" y="502"/>
      <point x="553" y="502" type="curve" smooth="yes"/>
      <point x="585" y="502" type="line" smooth="yes"/>
      <point x="611" y="502"/>
      <point x="631" y="520"/>
      <point x="631" y="545" type="curve" smooth="yes"/>
      <point x="631" y="569"/>
      <point x="611" y="587"/>
      <point x="585" y="587" type="curve" smooth="yes"/>
      <point x="530" y="587" type="line" smooth="yes"/>
      <point x="480" y="587"/>
      <point x="424" y="558"/>
      <point x="424" y="459" type="curve" smooth="yes"/>
      <point x="424" y="-26" type="line" smooth="yes"/>
      <point x="424" y="-58"/>
      <point x="441" y="-82"/>
    </contour>
  </outline>
</glyph>
<glyph name="bHNa" format="1">
  <advance width="622"/>
  <outline>
    <contour>
      <point x="511" y="156" type="curve" smooth="yes"/>
      <point x="572" y="156"/>
      <point x="612" y="208"/>
      <point x="612" y="277" type="curve" smooth="yes"/>
      <point x="612" y="351"/>
      <point x="560" y="399"/>
      <point x="488" y="399" type="curve" smooth="yes"/>
      <point x="431" y="399"/>
      <point x="345" y="363"/>
      <point x="345" y="255" type="curve"/>
      <point x="414" y="257" type="line"/>
      <point x="419" y="298"/>
      <point x="452" y="326"/>
      <point x="493" y="326" type="curve" smooth="yes"/>
      <point x="526" y="326"/>
      <point x="559" y="310"/>
      <point x="559" y="271" type="curve" smooth="yes"/>
      <point x="559" y="254"/>
      <point x="554" y="227"/>
      <point x="524" y="207" type="curve"/>
      <point x="541" y="189" type="line"/>
      <point x="559" y="200"/>
      <point x="576" y="219"/>
      <point x="576" y="242" type="curve" smooth="yes"/>
      <point x="576" y="281"/>
      <point x="547" y="311"/>
      <point x="505" y="311" type="curve" smooth="yes"/>
      <point x="467" y="311"/>
      <point x="427" y="283"/>
      <point x="427" y="235" type="curve" smooth="yes"/>
      <point x="427" y="194"/>
      <point x="462" y="156"/>
    </contour>
    <contour>
      <point x="517" y="214" type="curve" smooth="yes"/>
      <point x="506" y="214"/>
      <point x="494" y="221"/>
      <point x="494" y="236" type="curve" smooth="yes"/>
      <point x="494" y="249"/>
      <point x="504" y="258"/>
      <point x="517" y="258" type="curve" smooth="yes"/>
      <point x="528" y="258"/>
      <point x="538" y="250"/>
      <point x="538" y="236" type="curve" smooth="yes"/>
      <point x="538" y="221"/>
      <point x="527" y="214"/>
    </contour>
    <contour>
      <point x="622" y="502" type="line" smooth="yes"/>
      <point x="648" y="502"/>
      <point x="668" y="520"/>
      <point x="668" y="545" type="curve" smooth="yes"/>
      <point x="668" y="569"/>
      <point x="648" y="587"/>
      <point x="622" y="587" type="curve" smooth="yes"/>
      <point x="434" y="587" type="line"/>
      <point x="434" y="502" type="line"/>
    </contour>
    <contour>
      <point x="417" y="-40" type="curve" smooth="yes"/>
      <point x="448" y="-40"/>
      <point x="467" y="-24"/>
      <point x="467" y="1" type="curve" smooth="yes"/>
      <point x="467" y="22"/>
      <point x="452" y="41"/>
      <point x="417" y="51" type="curve" smooth="yes"/>
      <point x="359" y="67"/>
      <point x="333" y="108"/>
      <point x="307" y="142" type="curve" smooth="yes"/>
      <point x="262" y="202"/>
      <point x="223" y="248"/>
      <point x="151" y="248" type="curve" smooth="yes"/>
      <point x="94" y="248"/>
      <point x="56" y="206"/>
      <point x="56" y="159" type="curve" smooth="yes"/>
      <point x="56" y="102"/>
      <point x="103" y="60"/>
      <point x="181" y="60" type="curve" smooth="yes"/>
      <point x="297" y="60"/>
      <point x="416" y="162"/>
      <point x="416" y="283" type="curve" smooth="yes"/>
      <point x="416" y="398"/>
      <point x="332" y="480"/>
      <point x="218" y="480" type="curve" smooth="yes"/>
      <point x="140" y="480"/>
      <point x="62" y="443"/>
      <point x="62" y="359" type="curve" smooth="yes"/>
      <point x="62" y="308"/>
      <point x="102" y="265"/>
      <point x="165" y="265" type="curve" smooth="yes"/>
      <point x="224" y="265"/>
      <point x="257" y="310"/>
      <point x="257" y="356" type="curve" smooth="yes"/>
      <point x="257" y="411"/>
      <point x="212" y="434"/>
      <point x="185" y="434" type="curve" smooth="yes"/>
      <point x="161" y="434"/>
      <point x="137" y="425"/>
      <point x="124" y="402" type="curve"/>
      <point x="169" y="402" type="line"/>
      <point x="187" y="412"/>
      <point x="207" y="416"/>
      <point x="221" y="416" type="curve" smooth="yes"/>
      <point x="277" y="416"/>
      <point x="321" y="362"/>
      <point x="321" y="303" type="curve" smooth="yes"/>
      <point x="321" y="210"/>
      <point x="250" y="144"/>
      <point x="168" y="144" type="curve" smooth="yes"/>
      <point x="146" y="144"/>
      <point x="133" y="153"/>
      <point x="133" y="161" type="curve" smooth="yes"/>
      <point x="133" y="165"/>
      <point x="139" y="169"/>
      <point x="150" y="169" type="curve" smooth="yes"/>
      <point x="177" y="169"/>
      <point x="213" y="107"/>
      <point x="234" y="81" type="curve" smooth="yes"/>
      <point x="280" y="24"/>
      <point x="338" y="-40"/>
    </contour>
    <contour>
      <point x="168" y="339" type="curve" smooth="yes"/>
      <point x="154" y="339"/>
      <point x="142" y="351"/>
      <point x="142" y="365" type="curve" smooth="yes"/>
      <point x="142" y="379"/>
      <point x="154" y="391"/>
      <point x="168" y="391" type="curve" smooth="yes"/>
      <point x="182" y="391"/>
      <point x="194" y="379"/>
      <point x="194" y="365" type="curve" smooth="yes"/>
      <point x="194" y="351"/>
      <point x="182" y="339"/>
    </contour>
    <contour>
      <point x="487" y="502" type="line" smooth="yes"/>
      <point x="513" y="502"/>
      <point x="533" y="520"/>
      <point x="533" y="545" type="curve" smooth="yes"/>
      <point x="533" y="569"/>
      <point x="513" y="587"/>
      <point x="487" y="587" type="curve" smooth="yes"/>
      <point x="0" y="587" type="line" smooth="yes"/>
      <point x="-26" y="587"/>
      <point x="-46" y="569"/>
      <point x="-46" y="545" type="curve" smooth="yes"/>
      <point x="-46" y="521"/>
      <point x="-26" y="502"/>
      <point x="0" y="502" type="curve" smooth="yes"/>
    </contour>
  </outline>
</glyph>
<glyph name="bHNna" format="1">
  <advance width="488"/>
  <outline>
    <contour>
      <point x="426" y="-20" type="curve" smooth="yes"/>
      <point x="459" y="-20"/>
      <point x="477" y="-4"/>
      <point x="477" y="21" type="curve" smooth="yes"/>
      <point x="477" y="51"/>
      <point x="451" y="63"/>
      <point x="427" y="71" type="curve" smooth="yes"/>
      <point x="358" y="95"/>
      <point x="342" y="119"/>
      <point x="284" y="173" type="curve" smooth="yes"/>
      <point x="248" y="207"/>
      <point x="198" y="248"/>
      <point x="128" y="248" type="curve" smooth="yes"/>
      <point x="54" y="248"/>
      <point x="26" y="201"/>
      <point x="26" y="158" type="curve" smooth="yes"/>
      <point x="26" y="103"/>
      <point x="73" y="60"/>
      <point x="151" y="60" type="curve" smooth="yes"/>
      <point x="267" y="60"/>
      <point x="416" y="157"/>
      <point x="416" y="292" type="curve" smooth="yes"/>
      <point x="416" y="392"/>
      <point x="334" y="480"/>
      <point x="218" y="480" type="curve" smooth="yes"/>
      <point x="140" y="480"/>
      <point x="62" y="441"/>
      <point x="62" y="362" type="curve" smooth="yes"/>
      <point x="62" y="304"/>
      <point x="105" y="265"/>
      <point x="163" y="265" type="curve" smooth="yes"/>
      <point x="225" y="265"/>
      <point x="257" y="310"/>
      <point x="257" y="356" type="curve" smooth="yes"/>
      <point x="257" y="411"/>
      <point x="213" y="434"/>
      <point x="182" y="434" type="curve" smooth="yes"/>
      <point x="162" y="434"/>
      <point x="137" y="425"/>
      <point x="124" y="402" type="curve"/>
      <point x="169" y="402" type="line"/>
      <point x="187" y="412"/>
      <point x="207" y="416"/>
      <point x="222" y="416" type="curve" smooth="yes"/>
      <point x="277" y="416"/>
      <point x="321" y="362"/>
      <point x="321" y="302" type="curve" smooth="yes"/>
      <point x="321" y="210"/>
      <point x="217" y="144"/>
      <point x="143" y="144" type="curve" smooth="yes"/>
      <point x="115" y="144"/>
      <point x="103" y="153"/>
      <point x="103" y="160" type="curve" smooth="yes"/>
      <point x="103" y="165"/>
      <point x="109" y="169"/>
      <point x="122" y="169" type="curve" smooth="yes"/>
      <point x="146" y="169"/>
      <point x="167" y="154"/>
      <point x="206" y="122" type="curve" smooth="yes"/>
      <point x="280" y="60"/>
      <point x="352" y="-20"/>
    </contour>
    <contour>
      <point x="188" y="-103" type="curve" smooth="yes"/>
      <point x="175" y="-103"/>
      <point x="158" y="-94"/>
      <point x="158" y="-75" type="curve" smooth="yes"/>
      <point x="158" y="-58"/>
      <point x="170" y="-45"/>
      <point x="186" y="-45" type="curve" smooth="yes"/>
      <point x="201" y="-45"/>
      <point x="216" y="-56"/>
      <point x="216" y="-74" type="curve" smooth="yes"/>
      <point x="216" y="-92"/>
      <point x="202" y="-103"/>
    </contour>
    <contour>
      <point x="177" y="-179" type="curve" smooth="yes"/>
      <point x="232" y="-179"/>
      <point x="279" y="-139"/>
      <point x="279" y="-84" type="curve" smooth="yes"/>
      <point x="279" y="-42"/>
      <point x="252" y="9"/>
      <point x="206" y="9" type="curve"/>
      <point x="220" y="-41" type="line"/>
      <point x="226" y="-40"/>
      <point x="232" y="-39"/>
      <point x="239" y="-39" type="curve" smooth="yes"/>
      <point x="285" y="-39"/>
      <point x="329" y="-81"/>
      <point x="329" y="-133" type="curve"/>
      <point x="388" y="-115" type="line"/>
      <point x="365" y="-26"/>
      <point x="292" y="42"/>
      <point x="196" y="42" type="curve" smooth="yes"/>
      <point x="99" y="42"/>
      <point x="69" y="-27"/>
      <point x="69" y="-73" type="curve" smooth="yes"/>
      <point x="69" y="-132"/>
      <point x="118" y="-179"/>
    </contour>
    <contour>
      <point x="377" y="-189" type="curve" smooth="yes"/>
      <point x="404" y="-189"/>
      <point x="424" y="-165"/>
      <point x="424" y="-133" type="curve" smooth="yes"/>
      <point x="424" y="35" type="line"/>
      <point x="329" y="60" type="line"/>
      <point x="329" y="-133" type="line" smooth="yes"/>
      <point x="329" y="-165"/>
      <point x="350" y="-189"/>
    </contour>
    <contour>
      <point x="168" y="339" type="curve" smooth="yes"/>
      <point x="154" y="339"/>
      <point x="142" y="351"/>
      <point x="142" y="365" type="curve" smooth="yes"/>
      <point x="142" y="379"/>
      <point x="154" y="391"/>
      <point x="168" y="391" type="curve" smooth="yes"/>
      <point x="182" y="391"/>
      <point x="194" y="379"/>
      <point x="194" y="365" type="curve" smooth="yes"/>
      <point x="194" y="351"/>
      <point x="182" y="339"/>
    </contour>
    <contour>
      <point x="488" y="502" type="line" smooth="yes"/>
      <point x="499" y="502"/>
      <point x="529" y="509"/>
      <point x="529" y="544" type="curve" smooth="yes"/>
      <point x="529" y="578"/>
      <point x="501" y="587"/>
      <point x="488" y="587" type="curve" smooth="yes"/>
      <point x="0" y="587" type="line" smooth="yes"/>
      <point x="-17" y="587"/>
      <point x="-45" y="579"/>
      <point x="-45" y="544" type="curve" smooth="yes"/>
      <point x="-45" y="510"/>
      <point x="-19" y="502"/>
      <point x="0" y="502" type="curve" smooth="yes"/>
    </contour>
  </outline>
</glyph>
<glyph name="bKMa" format="1">
  <advance width="725"/>
  <outline>
    <contour>
      <point x="621" y="-23" type="line"/>
      <point x="600" y="93"/>
      <point x="419" y="202"/>
      <point x="239" y="202" type="curve" smooth="yes"/>
      <point x="126" y="202"/>
      <point x="75" y="139"/>
      <point x="75" y="85" type="curve" smooth="yes"/>
      <point x="75" y="7"/>
      <point x="138" y="-19"/>
      <point x="192" y="-19" type="curve" smooth="yes"/>
      <point x="262" y="-19"/>
      <point x="326" y="32"/>
      <point x="326" y="126" type="curve" smooth="yes"/>
      <point x="326" y="241"/>
      <point x="175" y="347"/>
      <point x="108" y="347" type="curve"/>
      <point x="91" y="327" type="line"/>
      <point x="154" y="340"/>
      <point x="288" y="398"/>
      <point x="288" y="460" type="curve" smooth="yes"/>
      <point x="288" y="530"/>
      <point x="257" y="587"/>
      <point x="160" y="587" type="curve" smooth="yes"/>
      <point x="0" y="587" type="line" smooth="yes"/>
      <point x="-26" y="587"/>
      <point x="-46" y="569"/>
      <point x="-46" y="545" type="curve" smooth="yes"/>
      <point x="-46" y="521"/>
      <point x="-26" y="502"/>
      <point x="0" y="502" type="curve" smooth="yes"/>
      <point x="156" y="502" type="line" smooth="yes"/>
      <point x="217" y="502"/>
      <point x="231" y="498"/>
      <point x="231" y="483" type="curve" smooth="yes"/>
      <point x="231" y="460"/>
      <point x="136" y="431"/>
      <point x="62" y="402" type="curve" smooth="yes"/>
      <point x="29" y="389"/>
      <point x="12" y="371"/>
      <point x="12" y="343" type="curve" smooth="yes"/>
      <point x="12" y="310"/>
      <point x="38" y="295"/>
      <point x="63" y="286" type="curve"/>
      <point x="121" y="262"/>
      <point x="238" y="241"/>
      <point x="238" y="138" type="curve" smooth="yes"/>
      <point x="238" y="100"/>
      <point x="231" y="66"/>
      <point x="199" y="66" type="curve" smooth="yes"/>
      <point x="185" y="66"/>
      <point x="174" y="73"/>
      <point x="174" y="87" type="curve" smooth="yes"/>
      <point x="174" y="103"/>
      <point x="191" y="115"/>
      <point x="241" y="115" type="curve" smooth="yes"/>
      <point x="366" y="115"/>
      <point x="564" y="46"/>
      <point x="564" y="-56" type="curve"/>
    </contour>
    <contour>
      <point x="614" y="-119" type="curve" smooth="yes"/>
      <point x="641" y="-119"/>
      <point x="659" y="-95"/>
      <point x="659" y="-63" type="curve" smooth="yes"/>
      <point x="659" y="435" type="line" smooth="yes"/>
      <point x="659" y="491"/>
      <point x="659" y="502"/>
      <point x="693" y="502" type="curve" smooth="yes"/>
      <point x="725" y="502" type="line" smooth="yes"/>
      <point x="751" y="502"/>
      <point x="771" y="520"/>
      <point x="771" y="545" type="curve" smooth="yes"/>
      <point x="771" y="569"/>
      <point x="751" y="587"/>
      <point x="725" y="587" type="curve" smooth="yes"/>
      <point x="670" y="587" type="line" smooth="yes"/>
      <point x="614" y="587"/>
      <point x="600" y="557"/>
      <point x="600" y="502" type="curve"/>
      <point x="611" y="502" type="line"/>
      <point x="611" y="558"/>
      <point x="571" y="587"/>
      <point x="525" y="587" type="curve" smooth="yes"/>
      <point x="338" y="587" type="line" smooth="yes"/>
      <point x="268" y="587"/>
      <point x="232" y="547"/>
      <point x="232" y="459" type="curve" smooth="yes"/>
      <point x="232" y="157" type="line"/>
      <point x="327" y="157" type="line"/>
      <point x="327" y="435" type="line" smooth="yes"/>
      <point x="327" y="491"/>
      <point x="327" y="502"/>
      <point x="361" y="502" type="curve" smooth="yes"/>
      <point x="498" y="502" type="line" smooth="yes"/>
      <point x="554" y="502"/>
      <point x="564" y="492"/>
      <point x="564" y="441" type="curve" smooth="yes"/>
      <point x="564" y="-63" type="line" smooth="yes"/>
      <point x="564" y="-98"/>
      <point x="587" y="-119"/>
    </contour>
    <contour>
      <point x="452" y="265" type="curve" smooth="yes"/>
      <point x="435" y="265"/>
      <point x="428" y="278"/>
      <point x="428" y="286" type="curve" smooth="yes"/>
      <point x="428" y="297"/>
      <point x="437" y="309"/>
      <point x="451" y="309" type="curve" smooth="yes"/>
      <point x="461" y="309"/>
      <point x="472" y="301"/>
      <point x="472" y="287" type="curve" smooth="yes"/>
      <point x="472" y="278"/>
      <point x="467" y="265"/>
    </contour>
    <contour>
      <point x="442" y="200" type="curve" smooth="yes"/>
      <point x="499" y="200"/>
      <point x="541" y="254"/>
      <point x="541" y="312" type="curve" smooth="yes"/>
      <point x="541" y="358"/>
      <point x="525" y="412"/>
      <point x="428" y="435" type="curve" smooth="yes"/>
      <point x="367" y="449"/>
      <point x="329" y="451"/>
      <point x="329" y="484" type="curve"/>
      <point x="288" y="433" type="line"/>
      <point x="303" y="383"/>
      <point x="352" y="369"/>
      <point x="399" y="364" type="curve" smooth="yes"/>
      <point x="475" y="356"/>
      <point x="487" y="333"/>
      <point x="487" y="293" type="curve" smooth="yes"/>
      <point x="487" y="269"/>
      <point x="458" y="244"/>
      <point x="430" y="244" type="curve"/>
      <point x="450" y="219" type="line"/>
      <point x="462" y="219"/>
      <point x="503" y="238"/>
      <point x="503" y="286" type="curve" smooth="yes"/>
      <point x="503" y="324"/>
      <point x="472" y="355"/>
      <point x="428" y="355" type="curve" smooth="yes"/>
      <point x="383" y="355"/>
      <point x="348" y="325"/>
      <point x="348" y="278" type="curve" smooth="yes"/>
      <point x="348" y="224"/>
      <point x="399" y="200"/>
    </contour>
  </outline>
</glyph>
<glyph name="bKSsRa" format="1">
  <advance width="720"/>
  <outline>
    <contour>
      <point x="438" y="-29" type="line"/>
      <point x="416" y="35"/>
      <point x="366" y="73"/>
      <point x="306" y="73" type="curve" smooth="yes"/>
      <point x="225" y="73"/>
      <point x="176" y="23"/>
      <point x="127" y="23" type="curve" smooth="yes"/>
      <point x="108" y="23"/>
      <point x="93" y="30"/>
      <point x="93" y="47" type="curve" smooth="yes"/>
      <point x="93" y="56"/>
      <point x="97" y="66"/>
      <point x="97" y="79" type="curve" smooth="yes"/>
      <point x="97" y="101"/>
      <point x="84" y="120"/>
      <point x="58" y="120" type="curve" smooth="yes"/>
      <point x="23" y="120"/>
      <point x="6" y="87"/>
      <point x="6" y="52" type="curve" smooth="yes"/>
      <point x="6" y="-7"/>
      <point x="54" y="-71"/>
      <point x="142" y="-71" type="curve" smooth="yes"/>
      <point x="220" y="-71"/>
      <point x="265" y="-20"/>
      <point x="327" y="-20" type="curve" smooth="yes"/>
      <point x="362" y="-20"/>
      <point x="392" y="-37"/>
      <point x="392" y="-85" type="curve"/>
    </contour>
    <contour>
      <point x="458" y="79" type="line"/>
      <point x="444" y="163"/>
      <point x="354" y="306"/>
      <point x="218" y="306" type="curve" smooth="yes"/>
      <point x="144" y="306"/>
      <point x="77" y="271"/>
      <point x="77" y="195" type="curve" smooth="yes"/>
      <point x="77" y="133"/>
      <point x="134" y="98"/>
      <point x="187" y="98" type="curve" smooth="yes"/>
      <point x="259" y="98"/>
      <point x="327" y="155"/>
      <point x="327" y="285" type="curve" smooth="yes"/>
      <point x="327" y="395"/>
      <point x="235" y="488"/>
      <point x="131" y="488" type="curve" smooth="yes"/>
      <point x="65" y="488"/>
      <point x="6" y="450"/>
      <point x="6" y="386" type="curve" smooth="yes"/>
      <point x="6" y="336"/>
      <point x="51" y="301"/>
      <point x="111" y="301" type="curve" smooth="yes"/>
      <point x="163" y="301"/>
      <point x="247" y="339"/>
      <point x="247" y="441" type="curve" smooth="yes"/>
      <point x="247" y="546"/>
      <point x="148" y="587"/>
      <point x="62" y="587" type="curve" smooth="yes"/>
      <point x="0" y="587" type="line" smooth="yes"/>
      <point x="-26" y="587"/>
      <point x="-46" y="569"/>
      <point x="-46" y="545" type="curve" smooth="yes"/>
      <point x="-46" y="521"/>
      <point x="-26" y="502"/>
      <point x="0" y="502" type="curve" smooth="yes"/>
      <point x="88" y="502" type="line" smooth="yes"/>
      <point x="139" y="502"/>
      <point x="188" y="496"/>
      <point x="188" y="440" type="curve" smooth="yes"/>
      <point x="188" y="395"/>
      <point x="142" y="380"/>
      <point x="115" y="380" type="curve" smooth="yes"/>
      <point x="103" y="380"/>
      <point x="95" y="387"/>
      <point x="95" y="395" type="curve" smooth="yes"/>
      <point x="95" y="404"/>
      <point x="105" y="412"/>
      <point x="121" y="412" type="curve" smooth="yes"/>
      <point x="173" y="412"/>
      <point x="239" y="365"/>
      <point x="239" y="298" type="curve" smooth="yes"/>
      <point x="239" y="210"/>
      <point x="216" y="187"/>
      <point x="198" y="187" type="curve" smooth="yes"/>
      <point x="183" y="187"/>
      <point x="175" y="196"/>
      <point x="175" y="205" type="curve" smooth="yes"/>
      <point x="175" y="210"/>
      <point x="178" y="224"/>
      <point x="209" y="224" type="curve" smooth="yes"/>
      <point x="288" y="224"/>
      <point x="392" y="149"/>
      <point x="392" y="60" type="curve"/>
    </contour>
    <contour>
      <point x="439" y="-141" type="curve" smooth="yes"/>
      <point x="466" y="-141"/>
      <point x="487" y="-117"/>
      <point x="487" y="-85" type="curve" smooth="yes"/>
      <point x="487" y="435" type="line" smooth="yes"/>
      <point x="487" y="491"/>
      <point x="487" y="502"/>
      <point x="521" y="502" type="curve" smooth="yes"/>
      <point x="720" y="502" type="line" smooth="yes"/>
      <point x="746" y="502"/>
      <point x="766" y="520"/>
      <point x="766" y="545" type="curve" smooth="yes"/>
      <point x="766" y="569"/>
      <point x="746" y="587"/>
      <point x="720" y="587" type="curve" smooth="yes"/>
      <point x="498" y="587" type="line" smooth="yes"/>
      <point x="436" y="587"/>
      <point x="392" y="544"/>
      <point x="392" y="457" type="curve" smooth="yes"/>
      <point x="392" y="-85" type="line" smooth="yes"/>
      <point x="392" y="-117"/>
      <point x="412" y="-141"/>
    </contour>
    <contour>
      <point x="593" y="233" type="curve" smooth="yes"/>
      <point x="577" y="233"/>
      <point x="567" y="244"/>
      <point x="567" y="257" type="curve" smooth="yes"/>
      <point x="567" y="270"/>
      <point x="577" y="281"/>
      <point x="591" y="281" type="curve" smooth="yes"/>
      <point x="602" y="281"/>
      <point x="615" y="274"/>
      <point x="615" y="256" type="curve" smooth="yes"/>
      <point x="615" y="244"/>
      <point x="605" y="233"/>
    </contour>
    <contour>
      <point x="592" y="165" type="curve" smooth="yes"/>
      <point x="659" y="165"/>
      <point x="697" y="231"/>
      <point x="697" y="304" type="curve" smooth="yes"/>
      <point x="697" y="354"/>
      <point x="680" y="405"/>
      <point x="634" y="437" type="curve" smooth="yes"/>
      <point x="597" y="464"/>
      <point x="546" y="472"/>
      <point x="468" y="472" type="curve" smooth="yes"/>
      <point x="387" y="472"/>
      <point x="350" y="475"/>
      <point x="350" y="502" type="curve" smooth="yes"/>
      <point x="350" y="510"/>
      <point x="356" y="518"/>
      <point x="366" y="518" type="curve" smooth="yes"/>
      <point x="389" y="518"/>
      <point x="392" y="490"/>
      <point x="392" y="458" type="curve"/>
      <point x="444" y="491" type="line"/>
      <point x="444" y="521"/>
      <point x="434" y="587"/>
      <point x="361" y="587" type="curve" smooth="yes"/>
      <point x="313" y="587"/>
      <point x="282" y="545"/>
      <point x="282" y="500" type="curve" smooth="yes"/>
      <point x="282" y="420"/>
      <point x="355" y="379"/>
      <point x="459" y="379" type="curve" smooth="yes"/>
      <point x="522" y="379"/>
      <point x="565" y="386"/>
      <point x="600" y="366" type="curve" smooth="yes"/>
      <point x="623" y="353"/>
      <point x="634" y="330"/>
      <point x="634" y="308" type="curve" smooth="yes"/>
      <point x="634" y="281"/>
      <point x="626" y="268"/>
      <point x="621" y="263" type="curve"/>
      <point x="615" y="218" type="line"/>
      <point x="641" y="225"/>
      <point x="655" y="249"/>
      <point x="655" y="271" type="curve" smooth="yes"/>
      <point x="655" y="309"/>
      <point x="620" y="333"/>
      <point x="582" y="333" type="curve" smooth="yes"/>
      <point x="523" y="333"/>
      <point x="498" y="288"/>
      <point x="498" y="256" type="curve" smooth="yes"/>
      <point x="498" y="195"/>
      <point x="550" y="165"/>
    </contour>
  </outline>
</glyph>
<glyph name="bLGha" format="1">
  <advance width="802"/>
  <outline>
    <contour>
      <point x="688" y="-11" type="curve" smooth="yes"/>
      <point x="715" y="-11"/>
      <point x="736" y="13"/>
      <point x="736" y="45" type="curve" smooth="yes"/>
      <point x="736" y="435" type="line" smooth="yes"/>
      <point x="736" y="491"/>
      <point x="736" y="502"/>
      <point x="770" y="502" type="curve" smooth="yes"/>
      <point x="802" y="502" type="line" smooth="yes"/>
      <point x="828" y="502"/>
      <point x="848" y="520"/>
      <point x="848" y="545" type="curve" smooth="yes"/>
      <point x="848" y="569"/>
      <point x="828" y="587"/>
      <point x="802" y="587" type="curve" smooth="yes"/>
      <point x="747" y="587" type="line" smooth="yes"/>
      <point x="684" y="587"/>
      <point x="657" y="557"/>
      <point x="657" y="502" type="curve"/>
      <point x="678" y="502" type="line"/>
      <point x="678" y="558"/>
      <point x="641" y="587"/>
      <point x="582" y="587" type="curve" smooth="yes"/>
      <point x="0" y="587" type="line" smooth="yes"/>
      <point x="-26" y="587"/>
      <point x="-46" y="569"/>
      <point x="-46" y="545" type="curve" smooth="yes"/>
      <point x="-46" y="520"/>
      <point x="-26" y="502"/>
      <point x="0" y="502" type="curve" smooth="yes"/>
      <point x="571" y="502" type="line" smooth="yes"/>
      <point x="618" y="502"/>
      <point x="641" y="492"/>
      <point x="641" y="441" type="curve" smooth="yes"/>
      <point x="641" y="45" type="line" smooth="yes"/>
      <point x="641" y="13"/>
      <point x="661" y="-11"/>
    </contour>
    <contour>
      <point x="102" y="175" type="curve" smooth="yes"/>
      <point x="92" y="175"/>
      <point x="84" y="183"/>
      <point x="84" y="193" type="curve" smooth="yes"/>
      <point x="84" y="204"/>
      <point x="92" y="211"/>
      <point x="102" y="211" type="curve" smooth="yes"/>
      <point x="111" y="211"/>
      <point x="120" y="204"/>
      <point x="120" y="193" type="curve" smooth="yes"/>
      <point x="120" y="181"/>
      <point x="111" y="175"/>
    </contour>
    <contour>
      <point x="104" y="118" type="curve" smooth="yes"/>
      <point x="150" y="118"/>
      <point x="180" y="152"/>
      <point x="180" y="193" type="curve" smooth="yes"/>
      <point x="180" y="236"/>
      <point x="148" y="266"/>
      <point x="110" y="266" type="curve" smooth="yes"/>
      <point x="67" y="266"/>
      <point x="48" y="228"/>
      <point x="48" y="207" type="curve" smooth="yes"/>
      <point x="48" y="191"/>
      <point x="58" y="173"/>
      <point x="68" y="167" type="curve"/>
      <point x="79" y="187" type="line"/>
      <point x="74" y="201"/>
      <point x="72" y="213"/>
      <point x="72" y="225" type="curve" smooth="yes"/>
      <point x="72" y="282"/>
      <point x="116" y="320"/>
      <point x="170" y="320" type="curve" smooth="yes"/>
      <point x="219" y="320"/>
      <point x="247" y="287"/>
      <point x="247" y="265" type="curve" smooth="yes"/>
      <point x="247" y="257"/>
      <point x="243" y="251"/>
      <point x="238" y="251" type="curve" smooth="yes"/>
      <point x="232" y="251"/>
      <point x="226" y="258"/>
      <point x="226" y="270" type="curve" smooth="yes"/>
      <point x="226" y="299"/>
      <point x="261" y="319"/>
      <point x="291" y="319" type="curve" smooth="yes"/>
      <point x="327" y="319"/>
      <point x="360" y="291"/>
      <point x="360" y="224" type="curve"/>
      <point x="404" y="239" type="line"/>
      <point x="404" y="291"/>
      <point x="377" y="380"/>
      <point x="291" y="380" type="curve" smooth="yes"/>
      <point x="224" y="380"/>
      <point x="174" y="325"/>
      <point x="174" y="272" type="curve" smooth="yes"/>
      <point x="174" y="233"/>
      <point x="201" y="200"/>
      <point x="242" y="200" type="curve" smooth="yes"/>
      <point x="282" y="200"/>
      <point x="302" y="231"/>
      <point x="302" y="272" type="curve" smooth="yes"/>
      <point x="302" y="345"/>
      <point x="240" y="396"/>
      <point x="159" y="396" type="curve" smooth="yes"/>
      <point x="61" y="396"/>
      <point x="3" y="323"/>
      <point x="3" y="239" type="curve" smooth="yes"/>
      <point x="3" y="163"/>
      <point x="51" y="118"/>
    </contour>
    <contour>
      <point x="702" y="67" type="line"/>
      <point x="702" y="184"/>
      <point x="512" y="265"/>
      <point x="463" y="262" type="curve"/>
      <point x="451" y="232" type="line"/>
      <point x="560" y="301" type="line" smooth="yes"/>
      <point x="582" y="315"/>
      <point x="611" y="333"/>
      <point x="611" y="366" type="curve" smooth="yes"/>
      <point x="611" y="394"/>
      <point x="590" y="406"/>
      <point x="566" y="406" type="curve" smooth="yes"/>
      <point x="546" y="406"/>
      <point x="526" y="392"/>
      <point x="495" y="392" type="curve" smooth="yes"/>
      <point x="467" y="392"/>
      <point x="431" y="406"/>
      <point x="431" y="446" type="curve" smooth="yes"/>
      <point x="431" y="474"/>
      <point x="455" y="504"/>
      <point x="517" y="502" type="curve"/>
      <point x="428" y="562" type="line"/>
      <point x="363" y="562"/>
      <point x="323" y="499"/>
      <point x="323" y="447" type="curve" smooth="yes"/>
      <point x="323" y="364"/>
      <point x="399" y="328"/>
      <point x="451" y="328" type="curve" smooth="yes"/>
      <point x="473" y="328"/>
      <point x="500" y="337"/>
      <point x="511" y="351" type="curve"/>
      <point x="462" y="351" type="line"/>
      <point x="363" y="289" type="line"/>
      <point x="349" y="277"/>
      <point x="334" y="260"/>
      <point x="334" y="236" type="curve" smooth="yes"/>
      <point x="334" y="221"/>
      <point x="340" y="196"/>
      <point x="377" y="187" type="curve" smooth="yes"/>
      <point x="439" y="173"/>
      <point x="641" y="133"/>
      <point x="641" y="48" type="curve"/>
    </contour>
  </outline>
</glyph>
